<?xml version="1.0" encoding="UTF-8" standalone="no"?>
<!-- Created with Inkscape (http://www.inkscape.org/) -->

<svg
   xmlns:dc="http://purl.org/dc/elements/1.1/"
   xmlns:cc="http://creativecommons.org/ns#"
   xmlns:rdf="http://www.w3.org/1999/02/22-rdf-syntax-ns#"
   xmlns:svg="http://www.w3.org/2000/svg"
   xmlns="http://www.w3.org/2000/svg"
   xmlns:sodipodi="http://sodipodi.sourceforge.net/DTD/sodipodi-0.dtd"
   xmlns:inkscape="http://www.inkscape.org/namespaces/inkscape"
   width="420mm"
   height="318mm"
   viewBox="0 0 420 318"
   version="1.1"
   id="svg275"
   inkscape:version="0.92.5 (2060ec1f9f, 2020-04-08)"
   sodipodi:docname="consolegame.svg">
  <defs
     id="defs269" />
  <sodipodi:namedview
     id="base"
     pagecolor="#ffffff"
     bordercolor="#666666"
     borderopacity="1.0"
     inkscape:pageopacity="0.0"
     inkscape:pageshadow="2"
     inkscape:zoom="0.76981901"
     inkscape:cx="214.96228"
     inkscape:cy="419.69824"
     inkscape:document-units="mm"
     inkscape:current-layer="layer1"
     showgrid="false"
     inkscape:window-width="3840"
     inkscape:window-height="2065"
     inkscape:window-x="0"
     inkscape:window-y="0"
     inkscape:window-maximized="1" />
  <metadata
     id="metadata272">
    <rdf:RDF>
      <cc:Work
         rdf:about="">
        <dc:format>image/svg+xml</dc:format>
        <dc:type
           rdf:resource="http://purl.org/dc/dcmitype/StillImage" />
        <dc:title></dc:title>
      </cc:Work>
    </rdf:RDF>
  </metadata>
  <g
     inkscape:label="Layer 1"
     inkscape:groupmode="layer"
     id="layer1"
     transform="translate(0,21)">
    <g
       id="g1686"
       transform="translate(-20)">
      <path
         style="fill:#4e5895;fill-opacity:1;stroke-width:0.21592326"
         inkscape:connector-curvature="0"
         d="m 373.03831,285.23564 h 55.18091 c 1.30224,0 2.36976,-1.06644 2.36976,-2.36976 V 220.1039 c 0,-1.30396 -1.06731,-2.36976 -2.36976,-2.36976 h -57.54894 c -1.30375,0 -2.36954,1.0658 -2.36954,2.36976 v 60.39417 z"
         id="path2-6" />
      <path
         style="fill:#ffffff;stroke-width:0.21592326"
         inkscape:connector-curvature="0"
         d="m 410.3628,230.6958 h -0.0212 -0.07 c -0.36901,0 -0.8177,-0.14359 -1.13619,-0.36966 l -1.06234,-0.63006 c -0.21376,-0.13712 -0.45041,-0.21355 -0.55622,-0.21355 h -16.50172 c -0.1045,0 -0.3364,0.0764 -0.54347,0.20556 l -1.10985,0.66007 c -0.28394,0.20405 -0.73284,0.34764 -1.09991,0.34764 l -19.9973,-1.24847 -0.54996,-0.035 v -0.54995 -8.7585 c 0,-1.63044 1.32512,-2.95383 2.95534,-2.95383 h 57.54873 c 1.63044,0 2.95556,1.32339 2.95556,2.95383 v 8.6948 0.5465 l -0.5465,0.0402 z"
         id="path4-0" />
      <path
         style="fill:#323133;fill-opacity:1;stroke-width:0.21592326"
         inkscape:connector-curvature="0"
         d="m 428.21922,217.73414 c 1.30224,0 2.36976,1.06645 2.36976,2.36976 v 8.69307 l -20.26526,1.31368 c -0.016,0.002 -0.0358,0.002 -0.0518,0.002 -0.25803,0 -0.58623,-0.11596 -0.80129,-0.26451 l -1.09992,-0.65338 c -0.24507,-0.15525 -0.59249,-0.29711 -0.85354,-0.29711 h -16.50172 c -0.26127,0 -0.60718,0.14186 -0.85527,0.29711 l -1.09646,0.65338 c -0.21873,0.14855 -0.54369,0.26451 -0.80302,0.26451 -0.0162,0 -0.0358,0 -0.0522,-0.002 l -19.90748,-1.24998 v -8.75677 c 0,-1.3031 1.0658,-2.36976 2.36803,-2.36976 h 57.55024 m 0,-1.16922 h -57.55045 c -1.95173,0 -3.53812,1.58703 -3.53812,3.53898 v 8.75677 1.09905 l 1.09667,0.0684 19.90748,1.24998 0.0376,0.003 0.0881,0.002 c 0.47978,0 1.03945,-0.1803 1.46201,-0.4692 l 1.03643,-0.61539 c 0.13712,-0.0848 0.25933,-0.12825 0.2969,-0.13538 l 16.46091,0.003 c 0.005,0.006 0.12567,0.0505 0.22866,0.11422 l 1.12604,0.67304 c 0.35714,0.24744 0.91854,0.42925 1.40005,0.42925 h 0.0376 l 0.0898,-0.005 20.26483,-1.31368 1.09473,-0.07 v -1.09754 -8.69307 c 2.2e-4,-1.95195 -1.58747,-3.53898 -3.5392,-3.53898"
         id="path6-6" />
      <polygon
         transform="matrix(0.21592326,0,0,0.21592326,358.67099,210.92673)"
         style="fill:#202020;fill-opacity:1"
         points="44.591,303.873 333.079,303.873 335.784,303.873 335.784,306.582 335.784,344.141 335.784,346.85 333.079,346.85 44.591,346.85 41.886,346.85 41.886,344.141 41.886,306.582 41.886,303.873 "
         id="polygon8-2" />
      <path
         style="fill:#202020;fill-opacity:1;stroke-width:0.21592326"
         inkscape:connector-curvature="0"
         d="m 430.58877,285.23715 h -62.28782 v -8.1131 h 62.28803 v 8.1131 z m 1.16987,-9.28405 h -1.16987 -62.28782 -1.17009 v 1.16922 8.11483 1.16987 h 1.17009 62.28803 1.16987 v -1.16987 -8.11483 -1.16922 z"
         id="path10-6" />
      <path
         style="fill:#58595c;fill-opacity:1;stroke-width:0.21592326"
         inkscape:connector-curvature="0"
         d="m 438.41231,214.88331 c 0,-1.30224 -1.06731,-2.36954 -2.36975,-2.36954 H 362.6267 c -1.14223,0 -2.09877,0.81662 -2.3188,1.893 -0.0343,0.15416 -0.049,0.31416 -0.049,0.47654 v 66.31802 c 0,7.81383 6.3937,14.21077 14.20883,14.21077 h 61.58153 c 1.30223,0 2.36285,-1.06817 2.36285,-2.36975 v -78.15904 z m -7.82354,67.98257 c 0,1.3031 -1.06731,2.36976 -2.36976,2.36976 h -54.48888 c -0.61668,0 -0.81922,-0.12394 -1.21414,-0.51994 l -3.79226,-3.79313 c -0.34613,-0.34612 -0.42451,-0.71384 -0.42451,-1.14806 V 220.1039 c 0,-1.30396 1.0658,-2.36976 2.36976,-2.36976 h 57.55024 c 1.30224,0 2.36976,1.0658 2.36976,2.36976 v 62.76198 z"
         id="path12-1" />
      <path
         style="fill:none;stroke:#323133;stroke-width:1.16974258;stroke-opacity:1"
         inkscape:connector-curvature="0"
         d="m 438.41231,214.88331 c 0,-1.30224 -1.06731,-2.36954 -2.36975,-2.36954 H 362.6267 c -1.14223,0 -2.09877,0.81662 -2.3188,1.893 -0.0343,0.15416 -0.049,0.31416 -0.049,0.47654 v 66.31802 c 0,7.81383 6.3937,14.21077 14.20883,14.21077 h 61.58153 c 1.30223,0 2.36285,-1.06817 2.36285,-2.36975 v -78.15904 z m -7.82354,67.98257 c 0,1.3031 -1.06731,2.36976 -2.36976,2.36976 h -54.48888 c -0.61668,0 -0.81922,-0.12394 -1.21414,-0.51994 l -3.79226,-3.79313 c -0.34613,-0.34612 -0.42451,-0.71384 -0.42451,-1.14806 V 220.1039 c 0,-1.30396 1.0658,-2.36976 2.36976,-2.36976 h 57.55024 c 1.30224,0 2.36976,1.0658 2.36976,2.36976 v 62.76198 z"
         id="path14-8" />
      <path
         style="fill:#323132;fill-opacity:1;stroke-width:0.21592326"
         inkscape:connector-curvature="0"
         d="m 436.04256,212.51398 c 1.30223,0 2.36975,1.06796 2.36975,2.36954 v 78.15926 c 0,1.30223 -1.06061,2.36976 -2.36284,2.36976 h -61.58175 c -7.81664,0 -14.20883,-6.39803 -14.20883,-14.21078 v -66.31845 c 0,-0.16151 0.0162,-0.32238 0.0473,-0.47568 0.22045,-1.07789 1.17829,-1.89386 2.32052,-1.89386 h 73.41586 m 0,-1.58704 H 362.6267 c -1.87011,0 -3.50033,1.33009 -3.87409,3.16263 -0.0538,0.24809 -0.0816,0.51994 -0.0816,0.79395 v 66.31802 c 0,8.71121 7.08574,15.79867 15.79673,15.79867 h 61.58153 C 438.22792,297 440,295.2236 440,293.04256 v -78.15925 c 0,-2.18018 -1.77532,-3.95658 -3.95744,-3.95658"
         id="path16-7" />
      <polygon
         transform="matrix(0.21592326,0,0,0.21592326,358.67099,210.92673)"
         style="fill:#323133;fill-opacity:1"
         points="188.34,379 155.434,357.061 221.247,357.061 "
         id="polygon18-9" />
      <polygon
         transform="matrix(0.21592326,0,0,0.21592326,358.67099,210.92673)"
         style="fill:#010101"
         points="106.542,60.644 96.944,51.303 96.944,60.644 94.608,60.644 94.608,48.034 96.604,48.034 106.066,57.221 106.066,48.034 107.926,48.034 108.364,48.034 108.364,60.644 "
         id="polygon20-2" />
      <path
         style="fill:#939598;stroke-width:0.21592326"
         inkscape:connector-curvature="0"
         d="m 404.80494,224.34917 h -2.19853 c -0.31806,0 -0.57781,0.26105 -0.57781,0.57846 v 1.5676 c 0,0.31568 0.25975,0.57781 0.57781,0.57781 h 2.19853 c 0.31633,0 0.57738,-0.26213 0.57738,-0.57781 v -1.5676 c 0,-0.31741 -0.26105,-0.57846 -0.57738,-0.57846 m 0.0928,2.1426 c 0,0.0613 -0.0505,0.11207 -0.11249,0.11207 h -2.1588 c -0.062,0 -0.1125,-0.0505 -0.1125,-0.11207 v -1.56242 c 0,-0.062 0.0505,-0.11012 0.1125,-0.11012 h 2.1588 c 0.062,0 0.11249,0.0481 0.11249,0.11012 z"
         id="path22-0" />
      <polygon
         transform="matrix(0.21592326,0,0,0.21592326,358.67099,210.92673)"
         style="fill:#010101"
         points="129.949,60.644 120.351,51.303 120.351,60.644 118.015,60.644 118.015,48.034 120.003,48.034 129.465,57.221 129.465,48.034 131.332,48.034 131.763,48.034 131.763,60.644 "
         id="polygon24-2" />
      <polygon
         transform="matrix(0.21592326,0,0,0.21592326,358.67099,210.92673)"
         style="fill:#010101"
         points="178.455,60.644 168.856,51.303 168.856,60.644 166.528,60.644 166.528,48.034 168.517,48.034 177.971,57.221 177.971,48.034 179.846,48.034 180.283,48.034 180.283,60.644 "
         id="polygon26-3" />
      <polygon
         transform="matrix(0.21592326,0,0,0.21592326,358.67099,210.92673)"
         style="fill:#010101"
         points="112.021,60.644 112.021,48.037 113.927,48.037 114.35,48.037 114.35,60.644 "
         id="polygon28-7" />
      <polygon
         transform="matrix(0.21592326,0,0,0.21592326,358.67099,210.92673)"
         style="fill:#010101"
         points="134.408,50.21 134.408,48.037 147.664,48.037 148.095,48.037 148.095,50.21 142.465,50.21 142.465,60.644 140.046,60.644 140.046,50.21 "
         id="polygon30-5" />
      <polygon
         transform="matrix(0.21592326,0,0,0.21592326,358.67099,210.92673)"
         style="fill:#010101"
         points="153.053,53.037 160.792,53.037 160.792,55.202 153.053,55.202 153.053,58.475 163.052,58.475 163.052,60.644 150.748,60.644 150.748,48.037 162.629,48.037 163.052,48.037 163.052,50.21 153.053,50.21 "
         id="polygon32-9" />
      <path
         style="fill:#010101;stroke-width:0.21592326"
         inkscape:connector-curvature="0"
         d="m 401.22623,221.69741 c -0.19779,-0.26191 -0.48972,-0.39902 -0.84059,-0.39902 h -2.02018 v 2.72193 h 2.02018 c 0.35087,0 0.6428,-0.13733 0.84059,-0.39579 0.18439,-0.24399 0.28221,-0.57522 0.28221,-0.96453 0,-0.38931 -0.098,-0.72205 -0.28221,-0.96259 m -0.82742,1.85543 h -1.54709 v -1.78374 h 0.0132 1.53392 c 0.48453,0 0.65576,0.48 0.65576,0.89112 0,0.41111 -0.17123,0.89262 -0.65576,0.89262"
         id="path34-2" />
      <path
         style="fill:#010101;stroke-width:0.21592326"
         inkscape:connector-curvature="0"
         d="m 404.80494,221.29904 h -2.19853 c -0.31806,0 -0.57781,0.26126 -0.57781,0.57867 v 1.56739 c 0,0.31589 0.25975,0.57608 0.57781,0.57608 h 2.19853 c 0.31633,0 0.57738,-0.26019 0.57738,-0.57608 v -1.56739 c 0,-0.31741 -0.26105,-0.57867 -0.57738,-0.57867 m 0.0928,2.14282 c 0,0.0594 -0.0505,0.11012 -0.11249,0.11012 h -2.1588 c -0.062,0 -0.1125,-0.0505 -0.1125,-0.11012 v -1.56242 c 0,-0.062 0.0505,-0.11034 0.1125,-0.11034 h 2.1588 c 0.062,0 0.11249,0.0484 0.11249,0.11034 z"
         id="path36-2" />
      <path
         style="fill:#010101;stroke-width:0.21592326"
         inkscape:connector-curvature="0"
         d="m 413.95469,225.9239 c 0.52383,0.20555 1.62525,0.37376 2.48743,0.37376 0.94294,0 1.33311,-0.32561 1.33311,-0.73047 0,-0.36534 -0.36232,-0.57932 -1.4035,-0.96021 -1.39206,-0.51498 -2.41186,-0.91962 -2.41186,-1.8334 0,-0.94575 1.22731,-1.50391 3.10044,-1.50391 1.00534,0 1.35125,0.0654 1.98757,0.18202 l 0.007,0.89587 c -0.62661,-0.11919 -1.18326,-0.32237 -2.04674,-0.32237 -0.92696,0 -1.31994,0.29365 -1.31994,0.59486 0,0.4407 0.60696,0.6495 1.67254,1.03061 1.48188,0.5303 2.30779,0.93905 2.30779,1.83491 0,0.92048 -1.03146,1.5879 -3.36192,1.5879 -0.95784,0 -1.61856,-0.0652 -2.35162,-0.18267 z"
         id="path38-8" />
      <path
         style="fill:#010101;stroke-width:0.21592326"
         inkscape:connector-curvature="0"
         d="m 411.97229,226.65264 c -0.54995,0.24874 -1.58617,0.40636 -2.49542,0.40636 h -3.46622 v -5.77702 h 3.46622 c 0.90925,0 1.94547,0.16064 2.49542,0.40809 1.33635,0.60459 1.77209,1.56739 1.77209,2.48118 0,0.91551 -0.43228,1.87831 -1.77209,2.48139 m -2.97823,-4.58643 h -1.10833 v 4.19561 h 1.10833 c 1.70213,0 2.77743,-0.72702 2.77743,-2.09057 0,-1.36356 -1.07552,-2.10504 -2.77743,-2.10504"
         id="path40-9" />
      <path
         style="fill:#010101;stroke-width:0.21592326"
         inkscape:connector-curvature="0"
         d="m 421.24771,224.63332 c -0.66548,0 -1.20744,0.54175 -1.20744,1.20831 0,0.6685 0.54196,1.21003 1.20744,1.21003 0.66936,0 1.21111,-0.54175 1.21111,-1.21003 0,-0.66677 -0.54196,-1.20831 -1.21111,-1.20831 m 0,2.21106 c -0.55125,0 -1.00167,-0.44956 -1.00167,-1.00297 0,-0.5547 0.45042,-1.00123 1.00167,-1.00123 0.55492,0 1.0021,0.44631 1.0021,1.00123 -2.2e-4,0.55341 -0.44718,1.00297 -1.0021,1.00297"
         id="path42-7" />
      <path
         style="fill:#010101;stroke-width:0.21592326"
         inkscape:connector-curvature="0"
         d="m 421.26067,225.95909 h -0.25436 v 0.54499 h -0.20254 v -1.30569 h 0.19563 0.007 0.43401 v 0.003 c 0.19908,0 0.36232,0.17857 0.36232,0.37938 0,0.18591 -0.13711,0.34612 -0.31676,0.36966 l 0.32647,0.55319 h -0.22823 z m -0.25436,-0.18526 h 0.40788 0.0132 c 0.10127,0 0.1831,-0.0922 0.1831,-0.19412 0,-0.1004 -0.0818,-0.19735 -0.1831,-0.19735 l -0.0132,0.002 -0.40788,-0.002 z"
         id="path44-3" />
    </g>
    <g
       id="g1459">
      <path
         d="m 295.78973,124.58901 c 4.95467,1.66948 9.50485,6.32644 9.50485,13.58898 v 3.51005 c -0.008,1.09794 0.18341,2.09541 0.59053,3.10793 0.22109,0.5327 0.54764,1.0026 0.62808,1.60301 0.0729,0.5653 0.91455,5.58784 0.91455,12.8918 v 116.97355 c 0,10.10045 -7.9547,18.40937 -18.04497,18.84154 -22.74344,0.99752 -45.48949,1.97737 -68.25047,1.49992 -0.51508,-0.007 -1.19594,-0.0352 -1.90699,-0.15571 -1.87696,-0.3041 -3.75377,-0.62568 -5.62561,-0.97986 -0.71354,-0.13829 -2.16586,-0.20599 -2.16586,-0.20599 H 96.888681 c 0,0 -1.44344,0.0677 -2.158296,0.20599 -1.875496,0.35418 -3.751131,0.67578 -5.631852,0.97986 -0.702201,0.12055 -1.37939,0.14826 -1.905713,0.15571 -22.757282,0.47745 -45.511983,-0.5024 -68.258041,-1.49992 C 8.8420264,294.6737 0.8809876,286.36478 0.8885766,276.26433 L 0.8998406,159.2908 c 0,-7.30396 0.8328827,-12.3265 0.8994354,-12.8918 0.083022,-0.60043 0.4071041,-1.07031 0.6256951,-1.60301 0.4195207,-1.01254 0.6067624,-2.01001 0.5966503,-3.10793 v -3.50876 c 0,-7.25872 4.5440424,-11.91821 9.5099696,-13.59029 V -7.8429787 c 0,-6.8327813 5.544002,-12.3741613 12.366711,-12.3741613 H 283.41293 c 6.83409,0 12.3768,5.541399 12.3768,12.3741613 V 124.58901"
         id="path2"
         inkscape:connector-curvature="0"
         style="fill:#5c67a9;fill-opacity:1;stroke-width:0.01986649" />
      <path
         d="m 12.328158,124.58142 c -4.9610793,1.66714 -9.5049628,6.3241 -9.5049628,13.59408 v 3.50248 c 0.00375,0.7185 -0.086697,1.39193 -0.2587411,2.06022 h -1.423434 c -0.8328828,0 -1.0778962,-0.5326 -1.0727905,-1.50749 l 0.2964875,-8.50486 c 0,-7.71853 5.183346,-12.49486 11.9634409,-12.64312 v 3.49869"
         id="path4"
         inkscape:connector-curvature="0"
         style="fill:#313233;fill-opacity:1;stroke-width:0.01986649" />
      <path
         d="m 295.57613,124.57383 v -3.47856 c 6.78635,0.13821 11.97216,4.91457 11.97216,12.63058 l 0.29156,8.50486 c 0.005,0.97489 -0.24382,1.50749 -1.0703,1.50749 h -1.42725 c -0.16577,-0.66829 -0.25624,-1.34172 -0.24865,-2.06022 v -3.50248 c 0.002,-7.27258 -4.5452,-11.92959 -9.51752,-13.60167"
         id="path6"
         inkscape:connector-curvature="0"
         style="fill:#313233;fill-opacity:1;stroke-width:0.01986649" />
      <path
         d="m 12.534174,131.94185 c 0,4.42338 3.491138,8.05529 7.905611,8.24863 22.576359,0.95983 45.159134,1.43222 67.755499,1.43222 V 119.72353 H 220.13232 v 21.89917 c 22.60018,0 45.18542,-0.48242 67.76297,-1.43965 4.40203,-0.18851 7.89446,-3.82029 7.89446,-8.2412 V -7.8429787 c 0,-6.8327813 -5.53774,-12.3741613 -12.3768,-12.3741613 H 24.898282 c -6.822709,0 -12.366711,5.541399 -12.366711,12.3741613 V 131.94185 Z"
         id="path8"
         inkscape:connector-curvature="0"
         style="fill:none;stroke:#231f20;stroke-width:0.34733179" />
      <path
         d="m 277.66432,218.7927 c 0,4.14815 -3.36691,7.51741 -7.51507,7.51741 -4.15067,0 -7.51496,-3.36928 -7.51496,-7.51741 0,-4.14569 3.36431,-7.51755 7.51496,-7.51755 4.14816,0 7.51507,3.36675 7.51507,7.51755"
         id="path10"
         inkscape:connector-curvature="0"
         style="fill:#545457;fill-opacity:1;stroke:#373132;stroke-width:0.01986649;stroke-opacity:1" />
      <path
         d="m 270.14923,211.27759 c 4.15078,0 7.51507,3.36431 7.51507,7.51511 0,4.15067 -3.36431,7.51741 -7.51507,7.51741 -4.15067,0 -7.51496,-3.36676 -7.51496,-7.51741 0,-4.1508 3.36431,-7.51511 7.51496,-7.51511 z"
         id="path12"
         inkscape:connector-curvature="0"
         style="fill:none;stroke:#231f20;stroke-width:0.34733179" />
      <path
         d="m 277.66432,186.22513 c 0,4.1457 -3.36691,7.51247 -7.51507,7.51247 -4.15067,0 -7.52253,-3.36679 -7.52253,-7.51247 0,-4.14818 3.37188,-7.51744 7.52253,-7.51744 4.14816,-2e-5 7.51507,3.36681 7.51507,7.51744"
         id="path14"
         inkscape:connector-curvature="0"
         style="fill:#313133;fill-opacity:1;stroke-width:0.01986649" />
      <path
         d="m 270.14674,178.70767 c 4.15067,0 7.51756,3.36431 7.51756,7.51744 0,4.15083 -3.36691,7.5176 -7.51756,7.5176 -4.15064,0 -7.51744,-3.36679 -7.51744,-7.5176 0,-4.15313 3.3668,-7.51744 7.51744,-7.51744 z"
         id="path16"
         inkscape:connector-curvature="0"
         style="fill:none;stroke:#231f20;stroke-width:0.34733179" />
      <path
         d="m 294.08368,202.50641 c 0,4.15067 -3.36681,7.51248 -7.52255,7.51248 -4.14818,0 -7.51495,-3.36183 -7.51495,-7.51248 0,-4.15078 3.36679,-7.51755 7.51495,-7.51755 4.15574,0 7.52255,3.36677 7.52255,7.51755"
         id="path18"
         inkscape:connector-curvature="0"
         style="fill:#545457;fill-opacity:1;stroke-width:0.01986649" />
      <path
         d="m 286.56362,194.98637 c 4.1508,0 7.51756,3.3668 7.51756,7.52004 0,4.15067 -3.36678,7.51744 -7.51756,7.51744 -4.15067,0 -7.51744,-3.36679 -7.51744,-7.51744 0,-4.15326 3.36677,-7.52004 7.51744,-7.52004 z"
         id="path20"
         inkscape:connector-curvature="0"
         style="fill:none;stroke:#231f20;stroke-width:0.34733179" />
      <path
         d="m 261.48356,202.50641 c 0,4.15067 -3.36679,7.51248 -7.51493,7.51248 -4.14833,0 -7.51262,-3.36183 -7.51262,-7.51248 0,-4.15078 3.36431,-7.51755 7.51262,-7.51755 4.14814,0 7.51493,3.36677 7.51493,7.51755"
         id="path22"
         inkscape:connector-curvature="0"
         style="fill:#313133;fill-opacity:1;stroke:#313237;stroke-width:0.01986649;stroke-opacity:1" />
      <path
         d="m 260.95084,218.7927 v -6.18084 c 0,-0.58805 -0.24122,-0.82658 -0.82402,-0.82658 h -6.18344 c -5.12304,0 -9.27618,-4.15579 -9.27618,-9.27887 0,-5.12054 4.15314,-9.27121 9.27618,-9.27121 h 6.18344 c 0.58541,0 0.82402,-0.2412 0.82402,-0.82414 v -6.1808 c 0,-5.12307 4.14831,-9.28131 9.27634,-9.28131 5.12057,0 9.27368,4.15824 9.27368,9.28131 v 6.1808 c 0,0.58793 0.24382,0.82414 0.82665,0.82414 h 6.18094 c 5.12045,0 9.27868,4.15067 9.27868,9.27121 0,5.12308 -4.15823,9.27887 -9.27868,9.27887 h -6.18094 c -0.58791,0 -0.82665,0.2412 -0.82665,0.82658 v 6.18084 c 0,5.12304 -4.14814,9.27879 -9.27368,9.27879 -5.12805,0 -9.27634,-4.15575 -9.27634,-9.27879 z m 0.53272,-16.28629 c 0,4.15067 -3.36679,7.51248 -7.51493,7.51248 -4.14833,0 -7.51262,-3.36183 -7.51262,-7.51248 0,-4.15078 3.36431,-7.51755 7.51262,-7.51755 4.14814,0 7.51493,3.36677 7.51493,7.51755 z"
         id="path24"
         inkscape:connector-curvature="0"
         style="fill:none;stroke:#231f20;stroke-width:0.34733179" />
      <path
         d="m 272.70952,162.4416 h 15.14049 c 2.12822,0.005 3.8543,-1.72361 3.8543,-3.84921 0,-2.13068 -1.72608,-3.84933 -3.8543,-3.84172 h -15.14049 c -0.29388,0 -0.41704,0.11803 -0.41704,0.40959 v 6.86415 c 0,0.29653 0.12318,0.41719 0.41704,0.41719"
         id="path26"
         inkscape:connector-curvature="0"
         style="fill:#313233;fill-opacity:1;stroke-width:0.01986649" />
      <path
         d="m 272.70952,162.4416 h 15.14049 c 2.12822,0.005 3.8543,-1.72361 3.8543,-3.84921 0,-2.13068 -1.72608,-3.84933 -3.8543,-3.84172 h -15.14049 c -0.29388,0 -0.41704,0.11803 -0.41704,0.40959 v 6.86415 c 0,0.29653 0.12318,0.41719 0.41704,0.41719 z"
         id="path28"
         inkscape:connector-curvature="0"
         style="fill:none;stroke:#231f20;stroke-width:0.34733179" />
      <path
         d="M 267.83017,162.4416 H 252.6746 c -2.1155,0.005 -3.84917,-1.72361 -3.84917,-3.84921 0,-2.13068 1.73367,-3.84933 3.84917,-3.84172 h 15.15557 c 0.28395,0 0.41452,0.11803 0.41452,0.40959 v 6.86415 c 0,0.29653 -0.13057,0.41719 -0.41452,0.41719"
         id="path30"
         inkscape:connector-curvature="0"
         style="fill:#313233;fill-opacity:1;stroke-width:0.01986649" />
      <path
         d="M 287.85003,154.0647 H 252.5942 c -2.49491,0 -4.5376,2.02521 -4.5376,4.53018 0,2.50997 2.04269,4.54507 4.5376,4.54507 h 35.25583 c 2.5025,0 4.53763,-2.0351 4.53763,-4.54507 0,-2.50497 -2.03513,-4.53018 -4.53763,-4.53018 z m -20.01986,8.3769 H 252.6746 c -2.1155,0.005 -3.84917,-1.72361 -3.84917,-3.84921 0,-2.13068 1.73367,-3.84933 3.84917,-3.84172 h 15.15557 c 0.28395,0 0.41452,0.11803 0.41452,0.40959 v 6.86415 c 0,0.29653 -0.13057,0.41719 -0.41452,0.41719 z"
         id="path32"
         inkscape:connector-curvature="0"
         style="fill:none;stroke:#231f20;stroke-width:0.34733179" />
      <path
         d="m 92.324633,282.77433 c 0,0.33663 -0.272568,0.61558 -0.616815,0.61558 H 90.45162 c -0.336796,0 -0.614331,-0.27895 -0.614331,-0.61558 v -4.87677 c 0,-0.33676 0.277554,-0.61066 0.614331,-0.61066 h 1.256198 c 0.344247,0 0.616815,0.2739 0.616815,0.61066 v 4.87677"
         id="path34"
         inkscape:connector-curvature="0"
         style="fill:#4c4c4e;stroke-width:0.01986649" />
      <path
         d="m 211.05196,282.77433 c 0,0.33663 -0.27638,0.61558 -0.61812,0.61558 h -1.24615 c -0.34172,0 -0.61811,-0.27895 -0.61811,-0.61558 v -4.87677 c 0,-0.33676 0.27639,-0.61066 0.61811,-0.61066 h 1.24615 c 0.34174,0 0.61812,0.2739 0.61812,0.61066 v 4.87677"
         id="path36"
         inkscape:connector-curvature="0"
         style="fill:#4c4c4e;stroke-width:0.01986649" />
      <path
         d="m 218.49906,282.77433 c 0,0.33663 -0.28133,0.61558 -0.61797,0.61558 h -1.25125 c -0.34671,0 -0.6257,-0.27895 -0.6257,-0.61558 v -4.87677 c 0,-0.33676 0.27899,-0.61066 0.6257,-0.61066 h 1.24614 c 0.34177,0 0.62059,0.2739 0.62059,0.61066 v 4.87677"
         id="path38"
         inkscape:connector-curvature="0"
         style="fill:#bbf607;fill-opacity:1;stroke-width:0.01986649" />
      <path
         d="m 14.820588,210.05157 c -1.949777,-4.84172 -1.949777,-10.24871 0,-15.09275 0.262496,-0.65331 0.633145,-0.90951 1.340412,-0.90951 h 12.666874 c 0.577837,0 0.82285,-0.24124 0.820387,-0.81922 v -12.6556 c 0,-0.71109 0.24998,-1.08289 0.908315,-1.34669 4.844086,-1.94219 10.249878,-1.94219 15.095295,0 0.655753,0.26889 0.904521,0.6356 0.904521,1.34669 v 12.6556 c 0,0.58048 0.237444,0.81922 0.824022,0.81922 h 12.663239 c 0.704783,0 1.07279,0.2562 1.335465,0.90951 1.958498,4.84404 1.958498,10.25103 0,15.09275 -0.265138,0.65827 -0.630682,0.90702 -1.335465,0.90702 H 47.380414 c -0.586578,0 -0.824022,0.24124 -0.824022,0.82405 v 12.66321 c 0,0.69855 -0.248768,1.07035 -0.904521,1.32655 -4.845398,1.96479 -10.251209,1.96479 -15.095295,0 -0.658355,-0.2562 -0.908315,-0.628 -0.908315,-1.32655 v -12.66321 c 0.0025,-0.58789 -0.24253,-0.82405 -0.820387,-0.82405 H 16.161 c -0.707267,0 -1.077916,-0.24875 -1.340412,-0.90702 z m 14.678217,-0.94728 c 1.175858,0 2.002463,0.82411 2.002463,2.00505 M 210.43892,128.09016 v -8.36665 m -10.50744,8.36665 v -8.36665 m -45.76834,8.36665 v -8.36665 m -56.278294,8.36665 v -8.36665 m 101.152184,3.35042 v 18.54875 h -43.98072 v -18.54875 z m 20.21085,18.88044 v -20.33393 h -7.87927 v 20.33393 z m -130.333966,0 v -20.33393 h 8.047677 v 20.33393 z M 295.78973,124.58901 c 4.95467,1.66948 9.50485,6.32644 9.50485,13.58898 v 3.51005 c -0.008,1.09794 0.18341,2.09541 0.59053,3.10793 0.22109,0.5327 0.54764,1.0026 0.62808,1.60301 0.0729,0.5653 0.91455,5.58784 0.91455,12.8918 v 116.97355 c 0,10.10045 -7.9547,18.40937 -18.04497,18.84154 -22.74344,0.99752 -45.48949,1.97737 -68.25047,1.49992 -0.51508,-0.007 -1.19594,-0.0352 -1.90699,-0.15571 -1.87696,-0.3041 -3.75377,-0.62568 -5.62561,-0.97986 -0.71354,-0.13829 -2.16586,-0.20599 -2.16586,-0.20599 H 96.888681 c 0,0 -1.44344,0.0677 -2.158296,0.20599 -1.875496,0.35418 -3.751131,0.67578 -5.631852,0.97986 -0.702201,0.12055 -1.37939,0.14826 -1.905713,0.15571 -22.757282,0.47745 -45.511983,-0.5024 -68.258041,-1.49992 C 8.8420264,294.6737 0.8809876,286.36478 0.8885766,276.26433 L 0.8998406,159.2908 c 0,-7.30396 0.8328827,-12.3265 0.8994354,-12.8918 0.083022,-0.60043 0.4071041,-1.07031 0.6256951,-1.60301 0.4195207,-1.01254 0.6067624,-2.01001 0.5966503,-3.10793 v -3.50876 c 0,-7.25872 4.5440424,-11.91821 9.5099696,-13.59029 m 187.399889,17.02868 v -13.52751 h 10.50744 v 13.52751 z m -102.046634,0 v -13.52751 h 56.278294 v 13.51748 z m 197.904884,-15.3868 c 3.40939,1.82413 5.81894,5.35929 5.81894,10.23488 v 139.32866 c 0,5.73621 -5.19835,13.06772 -12.93946,13.06772 -21.12551,-0.0728 -42.25581,-0.0502 -63.38627,0.0654 -1.71352,0.005 -3.43215,0.015 -5.14567,0.015 H 88.195264 c -1.718472,0 -3.434638,-0.01 -5.150646,-0.015 -21.122867,-0.11554 -42.255826,-0.14065 -63.381156,-0.0654 -7.747395,0 -12.9521364,-7.33151 -12.9521364,-13.06772 V 136.46577 c 0,-4.86554 2.4133218,-8.40825 5.8253514,-10.22977"
         id="path40"
         inkscape:connector-curvature="0"
         style="fill:none;stroke:#231f20;stroke-width:0.34733179" />
      <path
         d="M 29.498805,209.10429 H 17.449898 c -0.763727,0 -1.144429,-0.27638 -1.378059,-1.01005 -1.219862,-3.87929 -1.219862,-7.30135 0,-11.18072 0.23363,-0.7287 0.629351,-0.96732 1.378059,-0.96732 l 12.048907,0.0126 c 1.13688,0.01 2.061566,-0.9146 2.05646,-2.05525 l -0.01633,-12.04515 c -0.0025,-0.74623 0.234921,-1.14314 0.964816,-1.37429 3.875594,-1.22365 7.301451,-1.22365 11.181993,0 0.727431,0.23115 0.969921,0.62804 0.969921,1.37429 l -0.01764,12.04515 c 0,1.21096 0.874324,2.00493 2.060354,2.00493 h 12.048788 c 0.768833,0 1.144429,0.27141 1.373072,1.00508 1.224849,3.87935 1.224849,7.30143 0,11.18072 -0.22614,0.72871 -0.604239,1.01005 -1.373072,1.01005 H 46.698378 c -1.18603,0 -2.003734,0.82411 -2.003734,2.00505 v 12.04003 c 0,0.77382 -0.279005,1.15074 -1.006397,1.37941 -3.876787,1.22365 -7.306438,1.22365 -11.182033,0 -0.729895,-0.22867 -1.004946,-0.60557 -1.004946,-1.37941 v -12.04003"
         id="path42"
         inkscape:connector-curvature="0"
         style="fill:#414345;fill-opacity:1;stroke-width:0.01986649" />
      <path
         d="m 53.251002,162.71286 c 0,0.57796 -0.467399,1.03775 -1.033972,1.03775 H 23.977431 c -0.571579,0 -1.033852,-0.45981 -1.033852,-1.03775 v -8.24354 c 0,-0.56033 0.466067,-1.02259 1.033852,-1.02259 H 52.21703 c 0.566593,0 1.033972,0.46478 1.033972,1.02259 z M 224.25275,266.00317 H 84.07102 c -1.272687,0 -2.055248,-0.73863 -2.055248,-2.08036 V 147.87893 c 0,-1.23623 1.011204,-2.06534 2.055248,-2.06534 h 140.18173 c 1.50006,0 2.05787,1.03266 2.05787,2.06534 v 116.0439 c 0,1.42707 -1.01266,2.08034 -2.05787,2.08034 z M 44.709663,202.50641 c 0,3.66331 -2.972365,6.64823 -6.633163,6.64314 -3.668248,0 -6.640593,-2.97485 -6.640593,-6.64314 0,-3.66079 2.972365,-6.65314 6.640593,-6.64321 3.660798,0 6.633163,2.97238 6.633163,6.64321 z m -15.210858,6.59788 H 17.449898 c -0.763727,0 -1.144429,-0.27638 -1.378059,-1.01005 -1.219862,-3.87929 -1.219862,-7.30135 0,-11.18072 0.23363,-0.7287 0.629351,-0.96732 1.378059,-0.96732 l 12.048907,0.0126 c 1.13688,0.01 2.061566,-0.9146 2.05646,-2.05525 l -0.01633,-12.04515 c -0.0025,-0.74623 0.234921,-1.14314 0.964816,-1.37429 3.875594,-1.22365 7.301451,-1.22365 11.181993,0 0.727431,0.23115 0.969921,0.62804 0.969921,1.37429 l -0.01764,12.04515 c 0,1.21096 0.874324,2.00493 2.060354,2.00493 h 12.048788 c 0.768833,0 1.144429,0.27141 1.373072,1.00508 1.224849,3.87935 1.224849,7.30143 0,11.18072 -0.22614,0.72871 -0.604239,1.01005 -1.373072,1.01005 H 46.698378 c -1.18603,0 -2.003734,0.82411 -2.003734,2.00505 v 12.04003 c 0,0.77382 -0.279005,1.15074 -1.006397,1.37941 -3.876787,1.22365 -7.306438,1.22365 -11.182033,0 -0.729895,-0.22867 -1.004946,-0.60557 -1.004946,-1.37941 v -12.04003"
         id="path44"
         inkscape:connector-curvature="0"
         style="fill:none;stroke:#231f20;stroke-width:0.34733179" />
      <path
         d="m 48.286247,161.99437 c 0,0.34669 -0.281449,0.62303 -0.625676,0.62303 h -19.14172 c -0.345399,0 -0.62061,-0.27634 -0.62061,-0.62303 v -6.79895 c 0,-0.34172 0.275211,-0.62059 0.62061,-0.62059 h 19.14172 c 0.344247,0 0.625676,0.27887 0.625676,0.62059 v 6.79895"
         id="path46"
         inkscape:connector-curvature="0"
         style="fill:#313233;fill-opacity:1;stroke-width:0.01986649" />
      <path
         d="m 48.286247,161.99437 c 0,0.34669 -0.281449,0.62303 -0.625676,0.62303 h -19.14172 c -0.345399,0 -0.62061,-0.27634 -0.62061,-0.62303 v -6.79895 c 0,-0.34172 0.275211,-0.62059 0.62061,-0.62059 h 19.14172 c 0.344247,0 0.625676,0.27887 0.625676,0.62059 z"
         id="path48"
         inkscape:connector-curvature="0"
         style="fill:none;stroke:#231f20;stroke-width:0.34733179" />
      <path
         d="m 85.308404,-2.2776597 c -1.707266,0 -3.091702,1.38697898 -3.091702,3.0953978 V 114.19713 c 0,1.71352 1.384456,3.09537 3.091702,3.09537 H 223.02164 c 1.69849,0 3.08547,-1.38433 3.08547,-3.09537 V 0.8177381 c 0,-1.70841882 -1.38696,-3.0953978 -3.08547,-3.0953978 H 85.308404"
         id="path50"
         inkscape:connector-curvature="0"
         style="fill:#222021;fill-opacity:1;stroke-width:0.01986649" />
      <path
         d="m 240.33048,121.51991 v -4.74745 c 0,-0.85422 0.69354,-1.54395 1.54776,-1.54395 h 4.74614 c 0.84924,0 1.54528,0.69221 1.54528,1.54395 v 4.74497 c 0,0.85422 -0.69604,1.54019 -1.54528,1.54019 h -4.74614 c -0.8542,-2e-5 -1.54776,-0.68599 -1.54776,-1.53771 z m 0,-123.9005973 v -4.7461243 c 0,-0.8518553 0.69354,-1.5439839 1.54776,-1.5439839 h 4.74614 c 0.84924,0 1.54528,0.6947113 1.54528,1.5439839 v 4.7461243 c 0,0.8542591 -0.69604,1.54893058 -1.54528,1.54893058 h -4.74614 c -0.8542,0 -1.54776,-0.69467148 -1.54776,-1.54893058 z M 60.161679,121.51991 v -4.74745 c 0,-0.85422 0.692248,-1.54395 1.541501,-1.54395 h 4.744813 c 0.853047,0 1.540309,0.69221 1.540309,1.54395 v 4.74497 c 0,0.85422 -0.687262,1.54019 -1.540309,1.54019 H 61.70318 c -0.849233,-2e-5 -1.541501,-0.68599 -1.541501,-1.53771 z m 0,-123.9005973 v -4.7461243 c 0,-0.8518553 0.692248,-1.5439839 1.541501,-1.5439839 h 4.744813 c 0.853047,0 1.540309,0.6947113 1.540309,1.5439839 v 4.7461243 c 0,0.8542591 -0.687262,1.54893058 -1.540309,1.54893058 H 61.70318 c -0.849233,0 -1.541501,-0.69467148 -1.541501,-1.54893058 z M 301.04339,266.59619 c 0,0 -9.27881,0.10799 -13.91189,0.10799 h -48.35871 c -2.38444,0 -5.05533,-0.92208 -5.05533,-3.51009 V 148.61755 c 0,-1.52764 1.20864,-3.5 5.05533,-3.5 h 48.35873 c 0,0 9.27882,0.0327 13.91189,0.0981 0,1 -2.23359,1.19346 -3.22861,1.19346 h -57.77572 c -1.08797,0 -1.72358,1.32406 -1.72358,1.90951 v 115.1745 c 0,1.02521 0.72098,1.90963 1.72358,1.90963 h 57.7757 c 2.25374,0 3.22861,0.60046 3.22861,1.19348 z m -293.7630087,0 c 0,0 9.2750477,0.10799 13.9132177,0.10799 h 48.356229 c 2.388091,0 5.054015,-0.92208 5.054015,-3.51009 V 148.61755 c 0,-1.52764 -1.204843,-3.5 -5.054015,-3.5 H 21.193599 c 0,0 -9.282637,0.0327 -13.9132177,0.0981 0,1 2.2248481,1.19346 3.2236557,1.19346 h 57.785759 c 1.077916,0 1.718471,1.32406 1.718471,1.90951 v 115.1745 c 0,1.02521 -0.71732,1.90963 -1.718471,1.90963 H 10.504037 c -2.2512506,0 -3.2236557,0.60046 -3.2236557,1.19348 z M 85.308404,-2.2776597 c -1.707266,0 -3.091702,1.38697898 -3.091702,3.0953978 V 114.19713 c 0,1.71352 1.384456,3.09537 3.091702,3.09537 H 223.02164 c 1.69849,0 3.08547,-1.38433 3.08547,-3.09537 V 0.8177381 c 0,-1.70841882 -1.38696,-3.0953978 -3.08547,-3.0953978 z"
         id="path52"
         inkscape:connector-curvature="0"
         style="fill:none;stroke:#231f20;stroke-width:0.34733179" />
      <path
         d="m 31.09168,77.708881 c 0,-0.5654 -0.460962,-1.026362 -1.033852,-1.026362 -0.569095,0 -1.030177,0.460962 -1.030177,1.026362 0,0.576546 0.461082,1.03268 1.030177,1.03268 0.570248,0 1.033852,-0.458598 1.033852,-1.03268"
         id="path54"
         inkscape:connector-curvature="0"
         style="fill:#231f20;stroke-width:0.01986649" />
      <path
         d="m 37.891881,77.708881 c 0,-0.5654 -0.458618,-1.026362 -1.035124,-1.026362 -0.567904,0 -1.028866,0.460962 -1.028866,1.026362 0,0.576546 0.460962,1.03268 1.028866,1.03268 0.576506,0 1.035124,-0.458598 1.035124,-1.03268"
         id="path56"
         inkscape:connector-curvature="0"
         style="fill:#231f20;stroke-width:0.01986649" />
      <path
         d="m 44.694644,77.708881 c 0,-0.5654 -0.461122,-1.026362 -1.032661,-1.026362 -0.567943,0 -1.033971,0.460962 -1.033971,1.026362 0,0.576546 0.468551,1.03268 1.033971,1.03268 0.569056,0 1.032661,-0.458598 1.032661,-1.03268"
         id="path58"
         inkscape:connector-curvature="0"
         style="fill:#231f20;stroke-width:0.01986649" />
      <path
         d="m 51.502294,77.708881 c 0,-0.5654 -0.468671,-1.026362 -1.035124,-1.026362 -0.570367,0 -1.031508,0.460962 -1.031508,1.026362 0,0.576546 0.461121,1.03268 1.031508,1.03268 0.566453,0 1.035124,-0.458598 1.035124,-1.03268"
         id="path60"
         inkscape:connector-curvature="0"
         style="fill:#231f20;stroke-width:0.01986649" />
      <path
         d="m 58.305017,77.708881 c 0,-0.5654 -0.46869,-1.026362 -1.03266,-1.026362 -0.577956,0 -1.038918,0.460962 -1.038918,1.026362 0,0.576546 0.460962,1.03268 1.038918,1.03268 0.56397,0 1.03266,-0.458598 1.03266,-1.03268"
         id="path62"
         inkscape:connector-curvature="0"
         style="fill:#231f20;stroke-width:0.01986649" />
      <path
         d="m 65.096396,77.708881 c 0,-0.5654 -0.459829,-1.026362 -1.026402,-1.026362 -0.571579,0 -1.026382,0.460962 -1.026382,1.026362 0,0.576546 0.458479,1.03268 1.026382,1.03268 0.566573,0 1.026402,-0.458598 1.026402,-1.03268"
         id="path64"
         inkscape:connector-curvature="0"
         style="fill:#231f20;stroke-width:0.01986649" />
      <path
         d="m 71.90651,77.708881 c 0,-0.5654 -0.46724,-1.026362 -1.038938,-1.026362 -0.566592,0 -1.02374,0.460962 -1.02374,1.026362 0,0.576546 0.457168,1.03268 1.02374,1.03268 0.571718,0 1.038938,-0.458598 1.038938,-1.03268"
         id="path66"
         inkscape:connector-curvature="0"
         style="fill:#231f20;stroke-width:0.01986649" />
      <path
         d="m 31.09168,87.187323 c 0,-0.570248 -0.460962,-1.031349 -1.033852,-1.031349 -0.569095,0 -1.030177,0.461081 -1.030177,1.031349 0,0.571698 0.461082,1.031508 1.030177,1.031508 0.570248,0.0025 1.033852,-0.457327 1.033852,-1.031508"
         id="path68"
         inkscape:connector-curvature="0"
         style="fill:#231f20;stroke-width:0.01986649" />
      <path
         d="m 37.891881,87.187323 c 0,-0.570248 -0.458618,-1.031349 -1.035124,-1.031349 -0.567904,0 -1.028866,0.461081 -1.028866,1.031349 0,0.571698 0.460962,1.031508 1.028866,1.031508 0.576506,0.0025 1.035124,-0.457327 1.035124,-1.031508"
         id="path70"
         inkscape:connector-curvature="0"
         style="fill:#231f20;stroke-width:0.01986649" />
      <path
         d="m 44.694644,87.187323 c 0,-0.570248 -0.461122,-1.031349 -1.032661,-1.031349 -0.567943,0 -1.033971,0.461081 -1.033971,1.031349 0,0.571698 0.468551,1.031508 1.033971,1.031508 0.569056,0.0025 1.032661,-0.457327 1.032661,-1.031508"
         id="path72"
         inkscape:connector-curvature="0"
         style="fill:#231f20;stroke-width:0.01986649" />
      <path
         d="m 51.502294,87.187323 c 0,-0.570248 -0.468671,-1.031349 -1.035124,-1.031349 -0.570367,0 -1.031508,0.461081 -1.031508,1.031349 0,0.571698 0.461121,1.031508 1.031508,1.031508 0.566453,0.0025 1.035124,-0.457327 1.035124,-1.031508"
         id="path74"
         inkscape:connector-curvature="0"
         style="fill:#231f20;stroke-width:0.01986649" />
      <path
         d="m 58.305017,87.187323 c 0,-0.570248 -0.46869,-1.031349 -1.03266,-1.031349 -0.577956,0 -1.038918,0.461081 -1.038918,1.031349 0,0.571698 0.460962,1.031508 1.038918,1.031508 0.56397,0.0025 1.03266,-0.457327 1.03266,-1.031508"
         id="path76"
         inkscape:connector-curvature="0"
         style="fill:#231f20;stroke-width:0.01986649" />
      <path
         d="m 65.096396,87.187323 c 0,-0.570248 -0.459829,-1.031349 -1.026402,-1.031349 -0.571579,0 -1.026382,0.461081 -1.026382,1.031349 0,0.571698 0.458479,1.031508 1.026382,1.031508 0.566573,0.0025 1.026402,-0.457327 1.026402,-1.031508"
         id="path78"
         inkscape:connector-curvature="0"
         style="fill:#231f20;stroke-width:0.01986649" />
      <path
         d="m 71.90651,87.187323 c 0,-0.570248 -0.46724,-1.031349 -1.038938,-1.031349 -0.566592,0 -1.02374,0.461081 -1.02374,1.031349 0,0.571698 0.457168,1.031508 1.02374,1.031508 0.571718,0.0025 1.038938,-0.457327 1.038938,-1.031508"
         id="path80"
         inkscape:connector-curvature="0"
         style="fill:#231f20;stroke-width:0.01986649" />
      <path
         d="m 31.09168,96.66344 c 0,-0.571579 -0.460962,-1.026383 -1.033852,-1.026383 -0.569095,0 -1.030177,0.457287 -1.030177,1.026383 0,0.571539 0.461082,1.031349 1.030177,1.031349 0.570248,0.0025 1.033852,-0.457307 1.033852,-1.031349"
         id="path82"
         inkscape:connector-curvature="0"
         style="fill:#231f20;stroke-width:0.01986649" />
      <path
         d="m 37.891881,96.66344 c 0,-0.571579 -0.458618,-1.026383 -1.035124,-1.026383 -0.567904,0 -1.028866,0.457287 -1.028866,1.026383 0,0.571539 0.460962,1.031349 1.028866,1.031349 0.576506,0.0025 1.035124,-0.457307 1.035124,-1.031349"
         id="path84"
         inkscape:connector-curvature="0"
         style="fill:#231f20;stroke-width:0.01986649" />
      <path
         d="m 44.694644,96.66344 c 0,-0.571579 -0.461122,-1.026383 -1.032661,-1.026383 -0.567943,0 -1.033971,0.457287 -1.033971,1.026383 0,0.571539 0.468551,1.031349 1.033971,1.031349 0.569056,0.0025 1.032661,-0.457307 1.032661,-1.031349"
         id="path86"
         inkscape:connector-curvature="0"
         style="fill:#231f20;stroke-width:0.01986649" />
      <path
         d="m 51.502294,96.66344 c 0,-0.571579 -0.468671,-1.026383 -1.035124,-1.026383 -0.570367,0 -1.031508,0.457287 -1.031508,1.026383 0,0.571539 0.461121,1.031349 1.031508,1.031349 0.566453,0.0025 1.035124,-0.457307 1.035124,-1.031349"
         id="path88"
         inkscape:connector-curvature="0"
         style="fill:#231f20;stroke-width:0.01986649" />
      <path
         d="m 58.305017,96.66344 c 0,-0.571579 -0.46869,-1.026383 -1.03266,-1.026383 -0.577956,0 -1.038918,0.457287 -1.038918,1.026383 0,0.571539 0.460962,1.031349 1.038918,1.031349 0.56397,0.0025 1.03266,-0.457307 1.03266,-1.031349"
         id="path90"
         inkscape:connector-curvature="0"
         style="fill:#231f20;stroke-width:0.01986649" />
      <path
         d="m 65.096396,96.66344 c 0,-0.571579 -0.459829,-1.026383 -1.026402,-1.026383 -0.571579,0 -1.026382,0.457287 -1.026382,1.026383 0,0.571539 0.458479,1.031349 1.026382,1.031349 0.566573,0.0025 1.026402,-0.457307 1.026402,-1.031349"
         id="path92"
         inkscape:connector-curvature="0"
         style="fill:#231f20;stroke-width:0.01986649" />
      <path
         d="m 71.90651,96.66344 c 0,-0.571579 -0.46724,-1.026383 -1.038938,-1.026383 -0.566592,0 -1.02374,0.457287 -1.02374,1.026383 0,0.571539 0.457168,1.031349 1.02374,1.031349 0.571718,0.0025 1.038938,-0.457307 1.038938,-1.031349"
         id="path94"
         inkscape:connector-curvature="0"
         style="fill:#231f20;stroke-width:0.01986649" />
      <path
         d="m 31.09168,106.14945 c 0,-0.57158 -0.460962,-1.03892 -1.033852,-1.03892 -0.569095,0 -1.030177,0.46734 -1.030177,1.03892 0,0.56909 0.461082,1.02886 1.030177,1.02886 0.570248,-0.002 1.033852,-0.46229 1.033852,-1.02886"
         id="path96"
         inkscape:connector-curvature="0"
         style="fill:#231f20;stroke-width:0.01986649" />
      <path
         d="m 37.891881,106.14945 c 0,-0.57158 -0.458618,-1.03892 -1.035124,-1.03892 -0.567904,0 -1.028866,0.46734 -1.028866,1.03892 0,0.56909 0.460962,1.02886 1.028866,1.02886 0.576506,-0.002 1.035124,-0.46229 1.035124,-1.02886"
         id="path98"
         inkscape:connector-curvature="0"
         style="fill:#231f20;stroke-width:0.01986649" />
      <path
         d="m 44.694644,106.14945 c 0,-0.57158 -0.461122,-1.03892 -1.032661,-1.03892 -0.567943,0 -1.033971,0.46734 -1.033971,1.03892 0,0.56909 0.468551,1.02886 1.033971,1.02886 0.569056,-0.002 1.032661,-0.46229 1.032661,-1.02886"
         id="path100"
         inkscape:connector-curvature="0"
         style="fill:#231f20;stroke-width:0.01986649" />
      <path
         d="m 51.502294,106.14945 c 0,-0.57158 -0.468671,-1.03892 -1.035124,-1.03892 -0.570367,0 -1.031508,0.46734 -1.031508,1.03892 0,0.56909 0.461121,1.02886 1.031508,1.02886 0.566453,-0.002 1.035124,-0.46229 1.035124,-1.02886"
         id="path102"
         inkscape:connector-curvature="0"
         style="fill:#231f20;stroke-width:0.01986649" />
      <path
         d="m 58.305017,106.14945 c 0,-0.57158 -0.46869,-1.03892 -1.03266,-1.03892 -0.577956,0 -1.038918,0.46734 -1.038918,1.03892 0,0.56909 0.460962,1.02886 1.038918,1.02886 0.56397,-0.002 1.03266,-0.46229 1.03266,-1.02886"
         id="path104"
         inkscape:connector-curvature="0"
         style="fill:#231f20;stroke-width:0.01986649" />
      <path
         d="m 65.096396,106.14945 c 0,-0.57158 -0.459829,-1.03892 -1.026402,-1.03892 -0.571579,0 -1.026382,0.46734 -1.026382,1.03892 0,0.56909 0.458479,1.02886 1.026382,1.02886 0.566573,-0.002 1.026402,-0.46229 1.026402,-1.02886"
         id="path106"
         inkscape:connector-curvature="0"
         style="fill:#231f20;stroke-width:0.01986649" />
      <path
         d="m 71.90651,106.14945 c 0,-0.57158 -0.46724,-1.03892 -1.038938,-1.03892 -0.566592,0 -1.02374,0.46734 -1.02374,1.03892 0,0.56909 0.457168,1.02886 1.02374,1.02886 0.571718,-0.002 1.038938,-0.46229 1.038938,-1.02886"
         id="path108"
         inkscape:connector-curvature="0"
         style="fill:#231f20;stroke-width:0.01986649" />
      <path
         d="m 238.47878,77.708881 c 0,-0.5654 -0.44723,-1.026362 -1.03017,-1.026362 -0.56777,0 -1.02507,0.460962 -1.02507,1.026362 0,0.576546 0.4573,1.03268 1.02507,1.03268 0.58296,0 1.03017,-0.458598 1.03017,-1.03268"
         id="path110"
         inkscape:connector-curvature="0"
         style="fill:#231f20;stroke-width:0.01986649" />
      <path
         d="m 245.2853,77.708881 c 0,-0.5654 -0.45991,-1.026362 -1.02767,-1.026362 -0.5754,0 -1.03266,0.460962 -1.03266,1.026362 0,0.576546 0.45981,1.03268 1.03266,1.03268 0.56774,0 1.02767,-0.458598 1.02767,-1.03268"
         id="path112"
         inkscape:connector-curvature="0"
         style="fill:#231f20;stroke-width:0.01986649" />
      <path
         d="m 252.09677,77.708881 c 0,-0.5654 -0.47247,-1.026362 -1.04023,-1.026362 -0.56779,0 -1.02011,0.460962 -1.02011,1.026362 0,0.576546 0.45232,1.03268 1.02011,1.03268 0.56776,0 1.04023,-0.458598 1.04023,-1.03268"
         id="path114"
         inkscape:connector-curvature="0"
         style="fill:#231f20;stroke-width:0.01986649" />
      <path
         d="m 258.89309,77.708881 c 0,-0.5654 -0.45979,-1.026362 -1.02757,-1.026362 -0.57041,0 -1.04025,0.460962 -1.04025,1.026362 0,0.576546 0.46984,1.03268 1.04025,1.03268 0.56778,0 1.02757,-0.458598 1.02757,-1.03268"
         id="path116"
         inkscape:connector-curvature="0"
         style="fill:#231f20;stroke-width:0.01986649" />
      <path
         d="m 265.6945,77.708881 c 0,-0.5654 -0.46229,-1.026362 -1.02509,-1.026362 -0.57289,0 -1.03762,0.460962 -1.03762,1.026362 0,0.576546 0.46984,1.03268 1.03762,1.03268 0.56282,0 1.02509,-0.458598 1.02509,-1.03268"
         id="path118"
         inkscape:connector-curvature="0"
         style="fill:#231f20;stroke-width:0.01986649" />
      <path
         d="m 272.49095,77.708881 c 0,-0.5654 -0.46986,-1.026362 -1.02509,-1.026362 -0.57041,0 -1.03266,0.460962 -1.03266,1.026362 0,0.576546 0.46478,1.03268 1.03266,1.03268 0.55521,0 1.02509,-0.458598 1.02509,-1.03268"
         id="path120"
         inkscape:connector-curvature="0"
         style="fill:#231f20;stroke-width:0.01986649" />
      <path
         d="m 279.29485,77.708881 c 0,-0.5654 -0.45981,-1.026362 -1.03763,-1.026362 -0.56282,0 -1.02261,0.460962 -1.02261,1.026362 0,0.576546 0.45979,1.03268 1.02261,1.03268 0.57782,0 1.03763,-0.458598 1.03763,-1.03268"
         id="path122"
         inkscape:connector-curvature="0"
         style="fill:#231f20;stroke-width:0.01986649" />
      <path
         d="m 238.47878,87.187323 c 0,-0.570248 -0.44723,-1.031349 -1.03017,-1.031349 -0.56777,0 -1.02507,0.461081 -1.02507,1.031349 0,0.571698 0.4573,1.031508 1.02507,1.031508 0.58296,0.0025 1.03017,-0.457327 1.03017,-1.031508"
         id="path124"
         inkscape:connector-curvature="0"
         style="fill:#231f20;stroke-width:0.01986649" />
      <path
         d="m 245.2853,87.187323 c 0,-0.570248 -0.45991,-1.031349 -1.02767,-1.031349 -0.5754,0 -1.03266,0.461081 -1.03266,1.031349 0,0.571698 0.45981,1.031508 1.03266,1.031508 0.56774,0.0025 1.02767,-0.457327 1.02767,-1.031508"
         id="path126"
         inkscape:connector-curvature="0"
         style="fill:#231f20;stroke-width:0.01986649" />
      <path
         d="m 252.09677,87.187323 c 0,-0.570248 -0.47247,-1.031349 -1.04023,-1.031349 -0.56779,0 -1.02011,0.461081 -1.02011,1.031349 0,0.571698 0.45232,1.031508 1.02011,1.031508 0.56776,0 1.04023,-0.457327 1.04023,-1.031508"
         id="path128"
         inkscape:connector-curvature="0"
         style="fill:#231f20;stroke-width:0.01986649" />
      <path
         d="m 258.89309,87.187323 c 0,-0.570248 -0.45979,-1.031349 -1.02757,-1.031349 -0.57041,0 -1.04025,0.461081 -1.04025,1.031349 0,0.571698 0.46984,1.031508 1.04025,1.031508 0.56778,0 1.02757,-0.457327 1.02757,-1.031508"
         id="path130"
         inkscape:connector-curvature="0"
         style="fill:#231f20;stroke-width:0.01986649" />
      <path
         d="m 265.6945,87.187323 c 0,-0.570248 -0.46229,-1.031349 -1.02509,-1.031349 -0.57289,0 -1.03762,0.461081 -1.03762,1.031349 0,0.571698 0.46984,1.031508 1.03762,1.031508 0.56282,0.0025 1.02509,-0.457327 1.02509,-1.031508"
         id="path132"
         inkscape:connector-curvature="0"
         style="fill:#231f20;stroke-width:0.01986649" />
      <path
         d="m 272.49095,87.187323 c 0,-0.570248 -0.46986,-1.031349 -1.02509,-1.031349 -0.57041,0 -1.03266,0.461081 -1.03266,1.031349 0,0.571698 0.46478,1.031508 1.03266,1.031508 0.55521,0.0025 1.02509,-0.457327 1.02509,-1.031508"
         id="path134"
         inkscape:connector-curvature="0"
         style="fill:#231f20;stroke-width:0.01986649" />
      <path
         d="m 279.29485,87.187323 c 0,-0.570248 -0.45981,-1.031349 -1.03763,-1.031349 -0.56282,0 -1.02261,0.461081 -1.02261,1.031349 0,0.571698 0.45979,1.031508 1.02261,1.031508 0.57782,0.0025 1.03763,-0.457327 1.03763,-1.031508"
         id="path136"
         inkscape:connector-curvature="0"
         style="fill:#231f20;stroke-width:0.01986649" />
      <path
         d="m 238.47878,96.66344 c 0,-0.571579 -0.44723,-1.026383 -1.03017,-1.026383 -0.56777,0 -1.02507,0.457287 -1.02507,1.026383 0,0.571539 0.4573,1.031349 1.02507,1.031349 0.58296,0.0025 1.03017,-0.457307 1.03017,-1.031349"
         id="path138"
         inkscape:connector-curvature="0"
         style="fill:#231f20;stroke-width:0.01986649" />
      <path
         d="m 245.2853,96.66344 c 0,-0.571579 -0.45991,-1.026383 -1.02767,-1.026383 -0.5754,0 -1.03266,0.457287 -1.03266,1.026383 0,0.571539 0.45981,1.031349 1.03266,1.031349 0.56774,0.0025 1.02767,-0.457307 1.02767,-1.031349"
         id="path140"
         inkscape:connector-curvature="0"
         style="fill:#231f20;stroke-width:0.01986649" />
      <path
         d="m 252.09677,96.66344 c 0,-0.571579 -0.47247,-1.026383 -1.04023,-1.026383 -0.56779,0 -1.02011,0.457287 -1.02011,1.026383 0,0.571539 0.45232,1.031349 1.02011,1.031349 0.56776,-2e-5 1.04023,-0.457307 1.04023,-1.031349"
         id="path142"
         inkscape:connector-curvature="0"
         style="fill:#231f20;stroke-width:0.01986649" />
      <path
         d="m 258.89309,96.66344 c 0,-0.571579 -0.45979,-1.026383 -1.02757,-1.026383 -0.57041,0 -1.04025,0.457287 -1.04025,1.026383 0,0.571539 0.46984,1.031349 1.04025,1.031349 0.56778,-2e-5 1.02757,-0.457307 1.02757,-1.031349"
         id="path144"
         inkscape:connector-curvature="0"
         style="fill:#231f20;stroke-width:0.01986649" />
      <path
         d="m 265.6945,96.66344 c 0,-0.571579 -0.46229,-1.026383 -1.02509,-1.026383 -0.57289,0 -1.03762,0.457287 -1.03762,1.026383 0,0.571539 0.46984,1.031349 1.03762,1.031349 0.56282,0.0025 1.02509,-0.457307 1.02509,-1.031349"
         id="path146"
         inkscape:connector-curvature="0"
         style="fill:#231f20;stroke-width:0.01986649" />
      <path
         d="m 272.49095,96.66344 c 0,-0.571579 -0.46986,-1.026383 -1.02509,-1.026383 -0.57041,0 -1.03266,0.457287 -1.03266,1.026383 0,0.571539 0.46478,1.031349 1.03266,1.031349 0.55521,0.0025 1.02509,-0.457307 1.02509,-1.031349"
         id="path148"
         inkscape:connector-curvature="0"
         style="fill:#231f20;stroke-width:0.01986649" />
      <path
         d="m 279.29485,96.66344 c 0,-0.571579 -0.45981,-1.026383 -1.03763,-1.026383 -0.56282,0 -1.02261,0.457287 -1.02261,1.026383 0,0.571539 0.45979,1.031349 1.02261,1.031349 0.57782,0.0025 1.03763,-0.457307 1.03763,-1.031349"
         id="path150"
         inkscape:connector-curvature="0"
         style="fill:#231f20;stroke-width:0.01986649" />
      <path
         d="m 238.47878,106.14945 c 0,-0.57158 -0.44723,-1.03892 -1.03017,-1.03892 -0.56777,0 -1.02507,0.46734 -1.02507,1.03892 0,0.56909 0.4573,1.02886 1.02507,1.02886 0.58296,-0.002 1.03017,-0.46229 1.03017,-1.02886"
         id="path152"
         inkscape:connector-curvature="0"
         style="fill:#231f20;stroke-width:0.01986649" />
      <path
         d="m 245.2853,106.14945 c 0,-0.57158 -0.45991,-1.03892 -1.02767,-1.03892 -0.5754,0 -1.03266,0.46734 -1.03266,1.03892 0,0.56909 0.45981,1.02886 1.03266,1.02886 0.56774,-0.002 1.02767,-0.46229 1.02767,-1.02886"
         id="path154"
         inkscape:connector-curvature="0"
         style="fill:#231f20;stroke-width:0.01986649" />
      <path
         d="m 252.09677,106.14945 c 0,-0.57158 -0.47247,-1.03892 -1.04023,-1.03892 -0.56779,0 -1.02011,0.46734 -1.02011,1.03892 0,0.56909 0.45232,1.02886 1.02011,1.02886 0.56776,0 1.04023,-0.46229 1.04023,-1.02886"
         id="path156"
         inkscape:connector-curvature="0"
         style="fill:#231f20;stroke-width:0.01986649" />
      <path
         d="m 258.89309,106.14945 c 0,-0.57158 -0.45979,-1.03892 -1.02757,-1.03892 -0.57041,0 -1.04025,0.46734 -1.04025,1.03892 0,0.56909 0.46984,1.02886 1.04025,1.02886 0.56778,0 1.02757,-0.46229 1.02757,-1.02886"
         id="path158"
         inkscape:connector-curvature="0"
         style="fill:#231f20;stroke-width:0.01986649" />
      <path
         d="m 265.6945,106.14945 c 0,-0.57158 -0.46229,-1.03892 -1.02509,-1.03892 -0.57289,0 -1.03762,0.46734 -1.03762,1.03892 0,0.56909 0.46984,1.02886 1.03762,1.02886 0.56282,-0.002 1.02509,-0.46229 1.02509,-1.02886"
         id="path160"
         inkscape:connector-curvature="0"
         style="fill:#231f20;stroke-width:0.01986649" />
      <path
         d="m 272.49095,106.14945 c 0,-0.57158 -0.46986,-1.03892 -1.02509,-1.03892 -0.57041,0 -1.03266,0.46734 -1.03266,1.03892 0,0.56909 0.46478,1.02886 1.03266,1.02886 0.55521,-0.002 1.02509,-0.46229 1.02509,-1.02886"
         id="path162"
         inkscape:connector-curvature="0"
         style="fill:#231f20;stroke-width:0.01986649" />
      <path
         d="m 279.29485,106.14945 c 0,-0.57158 -0.45981,-1.03892 -1.03763,-1.03892 -0.56282,0 -1.02261,0.46734 -1.02261,1.03892 0,0.56909 0.45979,1.02886 1.02261,1.02886 0.57782,-0.002 1.03763,-0.46229 1.03763,-1.02886"
         id="path164"
         inkscape:connector-curvature="0"
         style="fill:#231f20;stroke-width:0.01986649" />
      <path
         d="m 218.02174,245.68925 6.7286,19.20841 m -0.0477,-117.92329 -5.67593,2.0201 m -129.012272,96.69478 -6.734859,19.20841 m 0.04275,-117.92329 5.675816,2.0201"
         id="path166"
         inkscape:connector-curvature="0"
         style="fill:none;stroke:#231f20;stroke-width:0.34733179" />
      <path
         d="m 171.64038,253.50584 c 0,0 0,2.31657 0,2.35426 -0.0352,0 -0.55785,0 -0.58791,0 0,-0.0377 0,-3.14818 0,-3.17328 0.0301,0 0.4849,0 0.49992,0 l 2.38943,2.31151 c 0,0 0,-2.28639 0,-2.31151 0.0327,0 0.46734,0 0.46734,0 0,0 0.0905,0 0.11049,0 0,0.0301 0,3.14062 0,3.17328 -0.0301,0 -0.43966,0 -0.46229,0 l -2.41698,-2.35426"
         id="path168"
         inkscape:connector-curvature="0"
         style="fill:#272829;fill-opacity:1;stroke-width:0.01986649" />
      <path
         d="m 177.54731,253.50584 c 0,0 0,2.31657 0,2.35426 -0.0327,0 -0.55521,0 -0.5955,0 0,-0.0377 0,-3.14818 0,-3.17328 0.0428,0 0.49495,0 0.50753,0 l 2.38692,2.31151 c 0,0 0,-2.28639 0,-2.31151 0.0352,0 0.47492,0 0.47492,0 0,0 0.0829,0 0.108,0 0,0.0301 0,3.14062 0,3.17328 -0.0302,0 -0.44225,0 -0.46226,0 l -2.41961,-2.35426"
         id="path170"
         inkscape:connector-curvature="0"
         style="fill:#272829;fill-opacity:1;stroke-width:0.01986649" />
      <path
         d="m 189.78594,253.50584 c 0,0 0,2.31657 0,2.35426 -0.0327,0 -0.55535,0 -0.58545,0 0,-0.0377 0,-3.14818 0,-3.17328 0.0301,0 0.4849,0 0.49994,0 l 2.37687,2.31151 c 0,0 0,-2.28639 0,-2.31151 0.0427,0 0.4824,0 0.4824,0 0,0 0.0855,0 0.11059,0 0,0.0301 0,3.14062 0,3.17328 -0.0327,0 -0.44723,0 -0.46487,0 l -2.41948,-2.35426"
         id="path172"
         inkscape:connector-curvature="0"
         style="fill:#272829;fill-opacity:1;stroke-width:0.01986649" />
      <path
         d="m 175.92425,252.6868 c 0,0 0.0779,0 0.11048,0 0,0.0301 0,3.14062 0,3.17328 -0.0377,0 -0.55771,0 -0.58544,0 0,-0.0377 0,-3.14818 0,-3.17328 0.0277,0 0.47496,0 0.47496,0"
         id="path174"
         inkscape:connector-curvature="0"
         style="fill:#272829;fill-opacity:1;stroke-width:0.01986649" />
      <path
         d="m 184.43919,252.6868 c 0,0 0.0829,0 0.1106,0 0,0.02 0,0.50998 0,0.54264 -0.0352,0 -1.41716,0 -1.41716,0 0,0 0,2.59796 0,2.63064 -0.0301,0 -0.58543,0 -0.613,0 0,-0.0377 0,-2.63064 0,-2.63064 0,0 -1.38694,0 -1.42709,0 0,-0.0327 0,-0.52267 0,-0.54264 0.0401,0 3.34665,0 3.34665,0"
         id="path176"
         inkscape:connector-curvature="0"
         style="fill:#272829;fill-opacity:1;stroke-width:0.01986649" />
      <path
         d="m 188.21805,252.6868 c 0,0 0.0804,0 0.10552,0 0,0.02 0,0.50998 0,0.54264 -0.0352,0 -2.52513,0 -2.52513,0 v 0.71356 c 0,0 1.9222,0 1.95734,0 0,0.0302 0,0.51262 0,0.54268 -0.0352,0 -1.95734,0 -1.95734,0 v 0.83419 c 0,0 2.49507,0 2.52513,0 0,0.0276 0,0.51261 0,0.54019 -0.0352,0 -3.07031,0 -3.10546,0 0,-0.0377 0,-3.14818 0,-3.17328 0.0351,0 2.99994,0 2.99994,0"
         id="path178"
         inkscape:connector-curvature="0"
         style="fill:#272829;fill-opacity:1;stroke-width:0.01986649" />
      <path
         d="m 195.94165,255.31989 h -1.80412 v -2.09045 h 1.80412 c 0.57025,0 0.7713,0.56282 0.7713,1.03514 0,0.49249 -0.20105,1.05531 -0.7713,1.05531 m 0.97473,-2.17332 c -0.23609,-0.30157 -0.57784,-0.46487 -0.98991,-0.46487 0,0 -2.32406,0 -2.36171,0 0,0.0302 0,3.14073 0,3.17592 0.0376,0 2.36171,0 2.36171,0 0.41207,0 0.75382,-0.1608 0.98991,-0.45981 0.20866,-0.28644 0.31663,-0.67588 0.31663,-1.13569 0,-0.44972 -0.10797,-0.83171 -0.31663,-1.11555 z"
         id="path180"
         inkscape:connector-curvature="0"
         style="fill:#272829;fill-opacity:1;stroke-width:0.01986649" />
      <path
         d="m 201.20537,255.18668 c 0,0.0678 -0.0629,0.13321 -0.13821,0.13321 h -2.52511 c -0.0679,0 -0.12812,-0.0654 -0.12812,-0.13321 v -1.83159 c 0,-0.0703 0.0553,-0.13072 0.12812,-0.13072 h 2.52511 c 0.0728,0 0.13821,0.0579 0.13821,0.13072 v 1.83159 m -0.11308,-2.49988 h -2.56526 c -0.37442,0 -0.68098,0.29898 -0.68098,0.6733 v 1.82919 c 0,0.37428 0.30658,0.67329 0.68098,0.67329 h 2.56526 c 0.36932,0 0.67588,-0.29901 0.67588,-0.67329 v -1.82919 c 0,-0.37432 -0.30656,-0.6733 -0.67588,-0.6733 z"
         id="path182"
         inkscape:connector-curvature="0"
         style="fill:#272829;fill-opacity:1;stroke-width:0.01986649" />
      <path
         d="m 201.20537,258.75202 c 0,0.0704 -0.0629,0.12304 -0.13821,0.12304 h -2.52511 c -0.0679,0 -0.12812,-0.0527 -0.12812,-0.12304 v -1.82918 c 0,-0.0753 0.0553,-0.12552 0.12812,-0.12552 h 2.52511 c 0.0728,0 0.13821,0.0502 0.13821,0.12552 v 1.82918 m -0.11308,-2.50248 h -2.56526 c -0.37442,0 -0.68098,0.29649 -0.68098,0.6733 v 1.82918 c 0,0.37184 0.30658,0.6733 0.68098,0.6733 h 2.56526 c 0.36932,0 0.67588,-0.30146 0.67588,-0.6733 v -1.82918 c 0,-0.3718 -0.30656,-0.6733 -0.67588,-0.6733 z"
         id="path184"
         inkscape:connector-curvature="0"
         style="fill:#272829;fill-opacity:1;stroke-width:0.01986649" />
      <path
         d="m 211.7906,258.07865 c 0.60553,0.24875 1.89705,0.44475 2.90448,0.44475 1.10052,0 1.56031,-0.37941 1.56031,-0.85438 0,-0.4246 -0.43221,-0.68084 -1.64319,-1.12299 -1.63065,-0.59794 -2.81652,-1.07539 -2.81652,-2.14073 0,-1.10798 1.42958,-1.75877 3.61805,-1.75877 1.17087,0 1.57782,0.0729 2.32652,0.21113 l 0.005,1.04772 c -0.72872,-0.1433 -1.38446,-0.3819 -2.39189,-0.3819 -1.0855,0 -1.54773,0.34409 -1.54773,0.70347 0,0.51002 0.71352,0.7537 1.95967,1.19843 1.73118,0.62307 2.69351,1.09802 2.69351,2.14574 0,1.07543 -1.20104,1.8517 -3.93469,1.8517 -1.11555,0 -1.87931,-0.0679 -2.73363,-0.20352 v -1.14065"
         id="path186"
         inkscape:connector-curvature="0"
         style="fill:#272829;fill-opacity:1;stroke-width:0.01986649" />
      <path
         d="m 205.98668,253.57867 h -1.29138 v 4.90198 h 1.29138 c 1.995,0 3.24625,-0.84926 3.24625,-2.4472 0,-1.59301 -1.25125,-2.45478 -3.24625,-2.45478 m 3.48482,5.36177 c -0.64057,0.28395 -1.85666,0.47741 -2.91691,0.47741 h -4.05275 v -6.75367 h 4.05275 c 1.06025,0 2.27634,0.18082 2.91691,0.47481 1.56542,0.70098 2.06534,1.83916 2.06534,2.89941 0,1.06536 -0.49992,2.19344 -2.06534,2.90204 z"
         id="path188"
         inkscape:connector-curvature="0"
         style="fill:#272829;fill-opacity:1;stroke-width:0.01986649" />
      <polyline
         transform="matrix(0.01986649,0,0,0.01986649,152.56734,136.76661)"
         points="-2814.277,7123.699 -2794.739,7243.342 -2793.917,7243.342 -2777.979,7123.699    -2724.544,7123.699 -2703.427,7325.547 -2744.464,7325.547 -2753.762,7179.852 -2754.454,7179.852 -2760.777,7230.061    -2777.979,7325.547 -2808.967,7325.547 -2828.255,7228.666 -2835.27,7184.148 -2835.27,7179.852 -2835.776,7179.852    -2841.594,7325.547 -2884.466,7325.547 -2866.699,7123.699 -2814.277,7123.699  "
         id="polyline190"
         style="fill:#b2b4b6" />
      <rect
         x="99.639954"
         y="278.28952"
         width="0.79014987"
         height="4.0100112"
         id="rect192"
         style="fill:#b2b4b6;stroke-width:0.01986649" />
      <path
         d="m 103.39368,279.05325 c -0.10052,-0.0327 -0.20106,-0.0477 -0.30161,-0.0477 -0.69469,0 -0.99489,0.63561 -0.99489,1.24875 0,0.59286 0.30018,1.32655 0.98993,1.32655 0.10054,0 0.20605,-0.02 0.30397,-0.0502 v 0.73864 c -0.12434,0.0503 -0.23742,0.0704 -0.37049,0.0704 -1.137,0 -1.77511,-1.03004 -1.77511,-2.08036 0,-0.99488 0.6632,-2.0175 1.7411,-2.0175 0.13948,0 0.26762,0.0226 0.402,0.0628 v 0.74869"
         id="path194"
         inkscape:connector-curvature="0"
         style="fill:#b2b4b6;stroke-width:0.01986649" />
      <path
         d="m 104.9502,281.85721 c 0,0.27898 -0.2161,0.50504 -0.50252,0.50504 -0.28526,0 -0.50385,-0.22606 -0.50385,-0.50504 0,-0.27634 0.21859,-0.49496 0.50385,-0.49496 0.28642,0 0.50252,0.21862 0.50252,0.49496"
         id="path196"
         inkscape:connector-curvature="0"
         style="fill:#b2b4b6;stroke-width:0.01986649" />
      <path
         d="m 269.36287,182.7152 0.41207,0.97985 c 0.12562,0.33924 0.26381,0.70608 0.34161,1.06534 h 0.01 c 0.0855,-0.35926 0.191,-0.71865 0.3216,-1.06534 l 0.43223,-0.97985 h 1.53008 l -1.53008,3.3894 1.63821,3.61807 h -1.63821 l -0.45732,-1.11555 c -0.13061,-0.35181 -0.21103,-0.69854 -0.30658,-1.05032 h -0.0301 c -0.10057,0.3543 -0.18093,0.69851 -0.30658,1.05032 l -0.41704,1.11555 h -1.5854 l 1.51505,-3.61807 -1.51505,-3.3894 h 1.58544"
         id="path198"
         inkscape:connector-curvature="0"
         style="fill:#939598;stroke-width:0.01986649" />
      <polyline
         transform="matrix(0.01986649,0,0,0.01986649,152.56734,136.76661)"
         points="5099.708,3270.256 5107.802,3244.328 5141.06,3142.895 5223.522,3142.895 5136.638,3340.951    5136.638,3495.754 5063.284,3495.754 5063.284,3340.951 4974.498,3142.895 5054.808,3142.895 5093.127,3253.305 5099.708,3270.256     "
         id="polyline200"
         style="fill:#939598" />
      <path
         d="m 285.64914,198.69245 -1.69103,7.00492 h 1.42723 l 0.2638,-1.17343 h 1.45729 l 0.26629,1.17343 h 1.54017 l -1.75628,-7.00492 h -1.50747 m 1.24118,4.73356 h -1.02014 l 0.31154,-1.86935 0.15323,-1.06538 h 0.0226 l 0.16591,1.06538 z"
         id="path202"
         inkscape:connector-curvature="0"
         style="fill:#bbbdc0;stroke-width:0.01986649" />
      <path
         d="m 270.88802,217.27763 c 0,0.53512 -0.33924,0.88193 -0.90208,0.88193 v -1.70359 c 0.57289,-0.0377 0.90208,0.31661 0.90208,0.82166 m -0.94481,5.02 c 1.36942,0 2.47243,-0.58541 2.47243,-1.96724 0,-0.61314 -0.30658,-1.35177 -0.92717,-1.63324 0.55771,-0.35418 0.80401,-0.82911 0.80401,-1.44724 0,-0.5828 -0.27141,-1.211 -0.76883,-1.5854 -0.47745,-0.35678 -0.97987,-0.37941 -1.55783,-0.37941 h -1.46225 v 7.01251 h 1.43964 z m 0.99748,-2.12559 c 0,0.59041 -0.35428,0.98746 -0.94978,0.96483 v -1.89693 c 0.58805,-0.0152 0.94978,0.3718 0.94978,0.9321 z"
         id="path204"
         inkscape:connector-curvature="0"
         style="fill:#bbbdc0;stroke-width:0.01986649" />
      <path
         d="m 253.9158,157.55216 c -0.15831,-0.12315 -0.33664,-0.23623 -0.54776,-0.23623 -0.22107,0 -0.37428,0.14326 -0.37428,0.36944 0,0.62059 1.13304,0.66076 1.13304,1.68333 0,0.68084 -0.37937,1.18849 -1.08532,1.18849 -0.20109,0 -0.46738,-0.0705 -0.63317,-0.1935 v -0.71104 c 0.16579,0.12051 0.33664,0.20091 0.55275,0.20091 0.25125,0 0.43207,-0.1608 0.43207,-0.41704 0,-0.294 -0.21598,-0.39439 -0.43718,-0.54776 -0.422,-0.29388 -0.69588,-0.5828 -0.69588,-1.12299 0,-0.60057 0.34421,-1.1282 0.9874,-1.1282 0.25127,0 0.45733,0.0678 0.66833,0.18849 v 0.7261"
         id="path206"
         inkscape:connector-curvature="0"
         style="fill:#808285;stroke-width:0.01986649" />
      <polyline
         transform="matrix(0.01986649,0,0,0.01986649,152.56734,136.76661)"
         points="5222.766,1003.389 5222.766,1038.924 5184.064,1038.924 5184.064,1080.408 5217.954,1080.408    5217.954,1115.951 5184.064,1115.951 5184.064,1158.822 5222.766,1158.822 5222.766,1194.482 5146.502,1194.482 5146.502,1003.389    5222.766,1003.389  "
         id="polyline208"
         style="fill:#808285" />
      <polyline
         transform="matrix(0.01986649,0,0,0.01986649,152.56734,136.76661)"
         points="5306.614,1003.389 5306.614,1158.822 5343.288,1158.822 5343.288,1194.482 5268.671,1194.482    5268.671,1003.389 5306.614,1003.389  "
         id="polyline210"
         style="fill:#808285" />
      <polyline
         transform="matrix(0.01986649,0,0,0.01986649,152.56734,136.76661)"
         points="5452.816,1003.389 5452.816,1038.924 5414.622,1038.924 5414.622,1080.408 5448.513,1080.408    5448.513,1115.951 5414.622,1115.951 5414.622,1158.822 5453.316,1158.822 5453.316,1194.482 5376.929,1194.482 5376.929,1003.389    5452.816,1003.389  "
         id="polyline212"
         style="fill:#808285" />
      <path
         d="m 263.45841,157.42156 c -0.0956,-0.0302 -0.18092,-0.0503 -0.26891,-0.0503 -0.63066,0 -0.90192,0.5955 -0.90192,1.18585 0,0.56282 0.26879,1.25387 0.89447,1.25387 0.0954,0 0.1808,-0.0252 0.27636,-0.0528 v 0.70347 c -0.11058,0.0503 -0.22117,0.0653 -0.33675,0.0653 -1.03004,0 -1.60802,-0.97485 -1.60802,-1.96475 0,-0.94468 0.60553,-1.91956 1.57796,-1.91956 0.12563,0 0.24122,0.0352 0.36683,0.0753 v 0.70359"
         id="path214"
         inkscape:connector-curvature="0"
         style="fill:#808285;stroke-width:0.01986649" />
      <polyline
         transform="matrix(0.01986649,0,0,0.01986649,152.56734,136.76661)"
         points="5713.343,1003.389 5713.343,1038.924 5683.999,1038.924 5683.999,1194.482 5646.062,1194.482    5646.062,1038.924 5616.213,1038.924 5616.213,1003.389 5713.343,1003.389  "
         id="polyline216"
         style="fill:#808285" />
      <path
         d="m 276.62407,157.55216 c -0.14578,-0.12315 -0.33663,-0.2412 -0.53264,-0.2412 -0.2438,0 -0.38698,0.14823 -0.38698,0.37441 0,0.62059 1.14068,0.66076 1.14068,1.68333 0,0.68084 -0.38684,1.18849 -1.09296,1.18849 -0.20353,0 -0.46736,-0.0705 -0.64319,-0.1935 v -0.71617 c 0.17583,0.12564 0.34422,0.19598 0.5704,0.19598 0.24368,0 0.43206,-0.15323 0.43206,-0.40698 0,-0.294 -0.22604,-0.39439 -0.43718,-0.54776 -0.43206,-0.29388 -0.70099,-0.5828 -0.70099,-1.12808 0,-0.5955 0.35179,-1.12311 0.99501,-1.12311 0.23365,0 0.45471,0.0678 0.66074,0.18849 v 0.7261"
         id="path218"
         inkscape:connector-curvature="0"
         style="fill:#808285;stroke-width:0.01986649" />
      <polyline
         transform="matrix(0.01986649,0,0,0.01986649,152.56734,136.76661)"
         points="6378.958,1003.389 6378.958,1038.924 6349.497,1038.924 6349.497,1194.482 6311.046,1194.482    6311.046,1038.924 6282.21,1038.924 6282.21,1003.389 6378.958,1003.389  "
         id="polyline220"
         style="fill:#808285" />
      <path
         d="m 280.43562,156.70043 -0.87699,3.79636 h 0.74376 l 0.13321,-0.63809 h 0.76124 l 0.14066,0.63809 h 0.79909 l -0.91464,-3.79636 h -0.78633 m 0.64568,2.56526 h -0.52007 l 0.15323,-1.01502 0.0905,-0.58296 h 0.005 l 0.0804,0.58296 z"
         id="path222"
         inkscape:connector-curvature="0"
         style="fill:#808285;stroke-width:0.01986649" />
      <path
         d="m 283.50837,160.49677 v -1.75876 h 0.0152 l 0.66072,1.75876 h 0.78899 l -0.66584,-1.72854 c 0.37693,-0.20603 0.55525,-0.56282 0.55525,-0.97985 0,-1.04023 -0.86179,-1.08797 -1.34421,-1.08797 h -0.75369 v 3.79636 h 0.7436 m 0,-3.17824 h 0.10054 c 0.37693,-0.0226 0.51262,0.19847 0.51262,0.4773 0,0.30658 -0.13817,0.54019 -0.4824,0.54019 l -0.13074,-0.007 v -1.01004 z"
         id="path224"
         inkscape:connector-curvature="0"
         style="fill:#808285;stroke-width:0.01986649" />
      <polyline
         transform="matrix(0.01986649,0,0,0.01986649,152.56734,136.76661)"
         points="6784.302,1003.389 6784.302,1038.924 6753.946,1038.924 6753.946,1194.482 6716.386,1194.482    6716.386,1038.924 6686.534,1038.924 6686.534,1003.389 6784.302,1003.389  "
         id="polyline226"
         style="fill:#808285" />
      <path
         d="m 31.976097,160.6024 v -1.56786 l 0.159607,0.008 c 0.659587,0 1.091644,-0.40466 1.091644,-1.11306 0,-1.22866 -1.065321,-1.12563 -1.214776,-1.12563 h -0.738656 v 3.79896 h 0.702181 m 0,-3.1784 h 0.139482 c 0.311547,0 0.404502,0.21613 0.404502,0.48987 0,0.38947 -0.195983,0.52267 -0.541501,0.50765 v -0.99752 z"
         id="path228"
         inkscape:connector-curvature="0"
         style="fill:#808285;stroke-width:0.01986649" />
      <path
         d="m 35.022544,156.74318 c -0.630622,0 -1.262456,0.5326 -1.262456,1.96217 0,1.42721 0.631834,1.95983 1.262456,1.95983 0.635628,0 1.25884,-0.53264 1.25884,-1.95983 0,-1.42957 -0.623212,-1.96217 -1.25884,-1.96217 m -0.496265,1.95969 c 0,-0.34172 0.03403,-1.26381 0.496265,-1.26381 0.468551,0 0.509992,0.92209 0.509992,1.26381 0,0.30149 -0.04144,1.26629 -0.509992,1.26629 -0.462234,0 -0.496265,-0.96482 -0.496265,-1.26629 z"
         id="path230"
         inkscape:connector-curvature="0"
         style="fill:#808285;stroke-width:0.01986649" />
      <path
         d="m 37.413277,156.80344 0.303957,1.81158 c 0.04029,0.26877 0.04776,0.53757 0.07168,0.81147 h 0.01005 c 0.03385,-0.2739 0.04887,-0.54268 0.103028,-0.81147 l 0.36302,-1.81158 h 0.560354 l 0.458439,2.62303 h 0.01011 c 0.02261,-0.27126 0.02507,-0.53264 0.06653,-0.80154 l 0.277674,-1.81901 h 0.751192 l -0.751192,3.79648 h -0.611828 l -0.365524,-2.00504 c -0.01766,-0.23115 -0.06916,-0.46229 -0.100564,-0.69342 h -0.01005 c -0.03387,0.23115 -0.05398,0.46229 -0.107975,0.69342 l -0.414554,2.00504 h -0.614351 l -0.72618,-3.79648 h 0.72618"
         id="path232"
         inkscape:connector-curvature="0"
         style="fill:#808285;stroke-width:0.01986649" />
      <polyline
         transform="matrix(0.01986649,0,0,0.01986649,152.56734,136.76661)"
         points="-5543.583,1008.574 -5543.583,1043.734 -5579.756,1043.734 -5579.756,1085.719    -5548.011,1085.719 -5548.011,1121.129 -5579.756,1121.129 -5579.756,1164.133 -5542.952,1164.133 -5542.952,1199.799    -5615.357,1199.799 -5615.357,1008.574 -5543.583,1008.574  "
         id="polyline234"
         style="fill:#808285" />
      <path
         d="m 43.914427,160.6024 v -1.75375 h 0.0075 l 0.625556,1.75375 h 0.746225 l -0.625556,-1.72866 c 0.355471,-0.20095 0.509993,-0.56778 0.509993,-0.97985 0,-1.04023 -0.805169,-1.09045 -1.263787,-1.09045 h -0.704784 v 3.79896 h 0.704804 m 0,-3.17838 h 0.09544 c 0.360537,-0.0177 0.4761,0.19847 0.4761,0.46985 0,0.31403 -0.124305,0.54515 -0.445903,0.54515 l -0.123153,-0.007 v -1.00757 h -0.0025 z"
         id="path236"
         inkscape:connector-curvature="0"
         style="fill:#808285;stroke-width:0.01986649" />
      <path
         d="m 308.04589,142.25085 -0.29156,-8.51245 c 0,-7.71602 -5.19835,-12.4836 -11.96211,-12.61802 V -7.8429787 c 0,-6.8327813 -5.54023,-12.3665923 -12.3743,-12.3665923 H 24.898262 c -6.822709,0 -12.366711,5.53383 -12.366711,12.3665923 V 121.10027 C 5.7565619,121.23596 0.5643554,126.0224 0.5643554,133.7384 l -0.2927327,8.51245 c -0.00743,0.96981 0.2362325,1.50253 1.0729494,1.50253 h 1.3970315 c -0.093075,0.3416 -0.1672362,0.69586 -0.316652,1.04011 -0.2185712,0.5327 -0.5426532,1.01001 -0.6256951,1.60304 -0.06405,0.56775 -0.8994355,5.59292 -0.8994355,12.89425 L 0.888557,276.26431 c -0.00759,10.09536 7.9508074,18.40688 18.046202,18.83906 22.746059,0.99491 45.500759,1.97985 68.258042,1.49992 0.526342,-0.007 1.203531,-0.0276 1.905712,-0.14578 1.880721,-0.31399 3.756356,-0.63561 5.631852,-0.98234 0.714856,-0.14065 2.158296,-0.21096 2.158296,-0.21096 H 211.43892 c 0,0 1.4497,0.0703 2.16573,0.21096 1.87184,0.34673 3.74878,0.66837 5.62559,0.98234 0.71106,0.11819 1.39191,0.13833 1.90949,0.14578 22.7611,0.47993 45.50703,-0.50501 68.24799,-1.49992 10.09039,-0.43218 18.04501,-8.7437 18.04501,-18.83906 V 159.29078 c 0,-7.30133 -0.84165,-12.3265 -0.91452,-12.89425 -0.0804,-0.59305 -0.40706,-1.07034 -0.62811,-1.60304 -0.13325,-0.34673 -0.2211,-0.69851 -0.30658,-1.04011 h 1.39697 c 0.83165,0 1.08042,-0.53272 1.0654,-1.50253 z"
         id="path238"
         inkscape:connector-curvature="0"
         style="fill:none;stroke:#231f20;stroke-width:0.54286772" />
      <path
         d="m 23.022687,202.50641 c 0,-2.34168 0.554037,-4.55777 1.511264,-6.54267 l -7.077795,-0.015 c -0.752503,0 -1.15317,0.23612 -1.384337,0.96728 -1.219862,3.87687 -1.219862,7.30889 0,11.17824 0.228525,0.7388 0.614332,1.01254 1.384337,1.01254 h 7.103045 c -0.972405,-1.99996 -1.536514,-4.23353 -1.536514,-6.60037"
         id="path240"
         inkscape:connector-curvature="0"
         style="fill:#313133;fill-opacity:1;stroke-width:0.01986649" />
      <path
         d="m 23.022687,202.50641 c 0,-2.34168 0.554037,-4.55777 1.511264,-6.54267 l -7.077795,-0.015 c -0.752503,0 -1.15317,0.23612 -1.384337,0.96728 -1.219862,3.87687 -1.219862,7.30889 0,11.17824 0.228525,0.7388 0.614332,1.01254 1.384337,1.01254 h 7.103045 c -0.972405,-1.99996 -1.536514,-4.23353 -1.536514,-6.60037 z"
         id="path242"
         inkscape:connector-curvature="0"
         style="fill:none;stroke:#231f20;stroke-width:0.34733179" />
      <path
         d="m 60.117775,196.91602 c -0.231127,-0.73118 -0.60424,-1.00496 -1.373073,-1.00496 h -7.1633 c 0.977352,1.98742 1.541461,4.22858 1.541461,6.59029 0,2.36679 -0.564109,4.603 -1.541461,6.60048 h 7.1633 c 0.768833,0 1.141946,-0.2739 1.373073,-1.01253 1.224828,-3.86439 1.224828,-7.29641 0,-11.17328"
         id="path244"
         inkscape:connector-curvature="0"
         style="fill:#313133;fill-opacity:1;stroke-width:0.01986649" />
      <path
         d="m 60.117775,196.91602 c -0.231127,-0.73118 -0.60424,-1.00496 -1.373073,-1.00496 h -7.1633 c 0.977352,1.98742 1.541461,4.22858 1.541461,6.59029 0,2.36679 -0.564109,4.603 -1.541461,6.60048 h 7.1633 c 0.768833,0 1.141946,-0.2739 1.373073,-1.01253 1.224828,-3.86439 1.224828,-7.29641 0,-11.17328 z"
         id="path246"
         inkscape:connector-curvature="0"
         style="fill:none;stroke:#231f20;stroke-width:0.34733179" />
      <path
         d="m 38.071533,187.45886 c 2.361808,0 4.580378,0.55773 6.579007,1.52515 l 0.0076,-7.12315 c 0,-0.74622 -0.24251,-1.14061 -0.969882,-1.37428 -3.876787,-1.22614 -7.306438,-1.22614 -11.182033,0 -0.727252,0.23367 -0.964816,0.62804 -0.964816,1.37428 l 0.0076,7.09792 c 1.978623,-0.95723 4.183347,-1.49992 6.522546,-1.49992"
         id="path248"
         inkscape:connector-curvature="0"
         style="fill:#313133;fill-opacity:1;stroke-width:0.01986649" />
      <path
         d="m 38.071533,187.45886 c 2.361808,0 4.580378,0.55773 6.579007,1.52515 l 0.0076,-7.12315 c 0,-0.74622 -0.24251,-1.14061 -0.969882,-1.37428 -3.876787,-1.22614 -7.306438,-1.22614 -11.182033,0 -0.727252,0.23367 -0.964816,0.62804 -0.964816,1.37428 l 0.0076,7.09792 c 1.978623,-0.95723 4.183347,-1.49992 6.522546,-1.49992 z"
         id="path250"
         inkscape:connector-curvature="0"
         style="fill:none;stroke:#231f20;stroke-width:0.34733179" />
      <path
         d="m 38.071533,217.55649 c -2.359205,0 -4.584192,-0.55773 -6.567802,-1.5326 v 7.12548 c 0,0.77382 0.272568,1.13568 1.002463,1.37941 3.875615,1.21608 7.301452,1.21608 11.182033,0 0.727392,-0.24373 1.006397,-0.60557 1.006397,-1.37941 v -7.14066 c -2.002582,0.98 -4.246224,1.54778 -6.623091,1.54778"
         id="path252"
         inkscape:connector-curvature="0"
         style="fill:#313133;fill-opacity:1;stroke-width:0.01986649" />
      <path
         d="m 218.61722,243.61149 v -92.9286 c 0,-1.48995 -1.13815,-2.16076 -2.15084,-2.16076 H 91.86234 c -1.01633,0 -2.143098,0.54267 -2.143098,2.16076 v 92.9286 c 0,1.6381 1.075254,2.15075 2.143098,2.15075 h 124.60404 c 1.05036,0 2.15084,-0.83423 2.15084,-2.15075 z m -180.545687,-26.055 c -2.359205,0 -4.584192,-0.55773 -6.567802,-1.5326 v 7.12548 c 0,0.77382 0.272568,1.13568 1.002463,1.37941 3.875615,1.21608 7.301452,1.21608 11.182033,0 0.727392,-0.24373 1.006397,-0.60557 1.006397,-1.37941 v -7.14066 c -2.002582,0.98 -4.246224,1.54778 -6.623091,1.54778 z"
         id="path254"
         inkscape:connector-curvature="0"
         style="fill:none;stroke:#231f20;stroke-width:0.34733179" />
      <path
         style="fill:#e1e7e7;fill-opacity:1;stroke-width:0.01986649"
         d="m 218.61722,244.64157 c 0,0.61811 -0.46487,1.12311 -1.04768,1.12311 H 90.804568 c -0.576645,0 -1.045196,-0.50252 -1.045196,-1.12311 v -95.04911 c 0,-0.62059 0.468551,-1.12312 1.045196,-1.12312 H 217.56954 c 0.58529,0 1.04768,0.50004 1.04768,1.12312 z"
         id="path256"
         inkscape:connector-curvature="0" />
      <path
         style="fill:#e1e7e7;fill-opacity:1;stroke-width:0.01986649"
         d="m 218.61722,105.03259 c 0,0.61809 -0.46487,1.12196 -1.04768,1.12196 H 90.804568 c -0.576645,0 -1.045196,-0.50125 -1.045196,-1.12196 V 9.9847525 c 0,-0.6206093 0.468551,-1.121821 1.045196,-1.121821 H 217.56954 c 0.58529,0 1.04768,0.5012117 1.04768,1.121821 z"
         id="path258"
         inkscape:connector-curvature="0" />
      <g
         id="g892"
         transform="matrix(0.14986275,0,0,0.14986275,99.22924,37.98082)">
        <path
           d="m 458.94346,98.49659 c 0,1.07926 -0.88502,2.05058 -1.9751,2.05058 h -37.79667 c -1.10087,0 -1.98589,-0.97132 -1.98589,-2.05058 V 71.19056 c 0,-1.07926 0.88502,-1.94271 1.98589,-1.94271 h 37.79667 c 1.09008,0 1.9751,0.86345 1.9751,1.94271 z M 457.30294,61.0453 h -38.47662 c -5.56913,0 -10.11293,4.533 -10.11293,10.14526 v 27.41389 c 0,5.5044 4.5438,10.14535 10.11293,10.14535 h 38.47662 c 5.57992,0 10.11293,-4.64095 10.11293,-10.14535 V 71.19056 c 0,-5.61226 -4.53301,-10.14526 -10.11293,-10.14526"
           style="fill:#929497;fill-rule:nonzero;stroke:none"
           id="path100608"
           inkscape:connector-curvature="0" />
        <path
           d="m 15.917269,20.03233 c 0,0 0,34.75306 0,35.29269 -0.464094,0 -8.353689,0 -8.828578,0 0,-0.53963 0,-47.16487 0,-47.7045 0.496468,0 7.317575,0 7.544221,0 l 35.756819,34.75307 c 0,0 0,-34.21344 0,-34.75307 0.485674,0 7.069332,0 7.069332,0 0,0 1.251975,0 1.640518,0 0,0.53963 0,47.16487 0,47.7045 -0.47488,0 -6.659201,0 -6.89665,0 L 15.917269,20.03233"
           style="fill:#221f1f;fill-rule:nonzero;stroke:none"
           id="path100618"
           inkscape:connector-curvature="0" />
        <path
           d="m 104.42969,20.03233 c 0,0 0,34.75306 0,35.29269 -0.47489,0 -8.342907,0 -8.828577,0 0,-0.53963 0,-47.16487 0,-47.7045 0.49647,0 7.306777,0 7.533417,0 l 35.75682,34.75307 c 0,0 0,-34.21344 0,-34.75307 0.48569,0 7.08013,0 7.08013,0 0,0 1.26277,0 1.64053,0 0,0.53963 0,47.16487 0,47.7045 -0.48569,0 -6.65921,0 -6.89666,0 L 104.42969,20.03233"
           style="fill:#221e1f;fill-rule:nonzero;stroke:none;stroke-width:0.05;stroke-linecap:butt;stroke-linejoin:miter;stroke-miterlimit:4;stroke-dasharray:none"
           id="path100622"
           inkscape:connector-curvature="0" />
        <path
           d="m 287.87629,20.03233 c 0,0 0,34.75306 0,35.29269 -0.48568,0 -8.3429,0 -8.82858,0 0,-0.53963 0,-47.16487 0,-47.7045 0.49648,0 7.31757,0 7.53343,0 l 35.75682,34.75307 c 0,0 0,-34.21344 0,-34.75307 0.48568,0 7.08013,0 7.08013,0 0,0 1.26277,0 1.64052,0 0,0.53963 0,47.16487 0,47.7045 -0.48569,0 -6.65921,0 -6.88586,0 L 287.87629,20.03233"
           style="fill:#221e1f;fill-rule:nonzero;stroke:none;stroke-width:0.05;stroke-linecap:butt;stroke-linejoin:miter;stroke-miterlimit:4;stroke-dasharray:none"
           id="path100626"
           inkscape:connector-curvature="0" />
        <path
           d="m 80.124113,7.62052 c 0,0 1.25198,0 1.62973,0 0,0.53963 0,47.16487 0,47.7045 -0.4641,0 -8.35369,0 -8.82858,0 0,-0.53963 0,-47.16487 0,-47.7045 0.48568,0 7.19885,0 7.19885,0"
           style="fill:#221e1f;fill-rule:nonzero;stroke:none;stroke-width:0.05;stroke-linecap:butt;stroke-linejoin:miter;stroke-miterlimit:4;stroke-dasharray:none"
           id="path100630"
           inkscape:connector-curvature="0" />
        <path
           d="m 207.73914,7.62052 c 0,0 1.23039,0 1.61893,0 0,0.43169 0,7.77086 0,8.20255 -0.51805,0 -21.28355,0 -21.28355,0 0,0 0,38.96232 0,39.50195 -0.47489,0 -8.69907,0 -9.17396,0 0,-0.53963 0,-39.50195 0,-39.50195 0,0 -20.7655,0 -21.28356,0 0,-0.43169 0,-7.77086 0,-8.20255 0.52885,0 50.12214,0 50.12214,0"
           style="fill:#221e1f;fill-rule:nonzero;stroke:none;stroke-width:0.05;stroke-linecap:butt;stroke-linejoin:miter;stroke-miterlimit:4;stroke-dasharray:none"
           id="path100634"
           inkscape:connector-curvature="0" />
        <path
           d="m 264.29385,7.62052 c 0,0 1.27355,0 1.6513,0 0,0.43169 0,7.77086 0,8.20255 -0.50726,0 -37.83984,0 -37.83984,0 v 10.68497 c 0,0 28.77382,0 29.2703,0 0,0.53963 0,7.66292 0,8.20263 -0.49648,0 -29.2703,0 -29.2703,0 v 12.4118 c 0,0 37.33258,0 37.83984,0 0,0.43169 0,7.66292 0,8.20255 -0.50726,0 -46.0748,0 -46.58207,0 0,-0.53963 0,-47.16487 0,-47.7045 0.50727,0 44.93077,0 44.93077,0"
           style="fill:#221e1f;fill-rule:nonzero;stroke:none;stroke-width:0.05;stroke-linecap:butt;stroke-linejoin:miter;stroke-miterlimit:4;stroke-dasharray:none"
           id="path100638"
           inkscape:connector-curvature="0" />
        <path
           d="m 380.14463,47.12247 h -27.11172 v -31.2994 h 27.11172 c 8.4832,0 11.49442,8.41843 11.49442,15.64966 0,7.12337 -3.01122,15.64974 -11.49442,15.64974 z m 14.48405,-32.4866 c -3.45372,-4.64095 -8.55876,-7.01535 -14.73228,-7.01535 0,0 -34.86101,0 -35.37907,0 0,0.53963 0,47.16487 0,47.7045 0.51806,0 35.37907,0 35.37907,0 6.17352,0 11.27856,-2.48235 14.73228,-7.01535 3.23786,-4.20926 4.95393,-10.0374 4.95393,-16.83694 0,-6.79946 -1.71607,-12.6276 -4.95393,-16.83686"
           style="fill:#221e1f;fill-rule:nonzero;stroke:none;stroke-width:0.05;stroke-linecap:butt;stroke-linejoin:miter;stroke-miterlimit:4;stroke-dasharray:none"
           id="path100642"
           inkscape:connector-curvature="0" />
        <path
           d="m 458.94346,45.17976 c 0,0.97131 -0.88502,1.94271 -1.9751,1.94271 h -37.79667 c -1.10087,0 -1.98589,-0.9714 -1.98589,-1.94271 V 17.76578 c 0,-1.07925 0.88502,-1.94271 1.98589,-1.94271 h 37.79667 c 1.09008,0 1.9751,0.86346 1.9751,1.94271 z M 457.30294,7.62052 h -38.47662 c -5.56913,0 -10.11293,4.53301 -10.11293,10.14526 v 27.41398 c 0,5.61226 4.5438,10.14526 10.11293,10.14526 h 38.47662 c 5.57992,0 10.11293,-4.533 10.11293,-10.14526 V 17.76578 c 0,-5.61225 -4.53301,-10.14526 -10.11293,-10.14526"
           style="fill:#221e1f;fill-rule:nonzero;stroke:none;stroke-width:0.05;stroke-linecap:butt;stroke-linejoin:miter;stroke-miterlimit:4;stroke-dasharray:none"
           id="path100646"
           inkscape:connector-curvature="0" />
        <path
           d="m 617.57723,88.56714 c 9.15236,3.66954 28.48239,6.58365 43.57084,6.58365 16.51311,0 23.34504,-5.61234 23.34504,-12.73563 0,-6.47571 -6.34627,-10.14534 -24.57542,-16.83686 -24.38113,-8.95814 -42.26491,-16.08143 -42.26491,-32.16286 0,-16.51303 21.52103,-26.33454 54.32058,-26.33454 17.61397,0 23.658,1.07925 34.83942,3.12991 l 0.0864,15.7576 c -10.98721,-2.05065 -20.72237,-5.61234 -35.8432,-5.61234 -16.21087,0 -23.11836,5.18057 -23.11836,10.46909 0,7.663 10.6418,11.33254 29.30272,18.02414 25.97842,9.28189 40.43009,16.40517 40.43009,32.05483 0,16.18938 -18.09962,27.84567 -58.9183,27.84567 -16.76139,0 -28.32053,-1.07926 -41.17485,-3.23786 v -16.9448"
           style="fill:#221e1f;fill-rule:nonzero;stroke:none;stroke-width:0.05;stroke-linecap:butt;stroke-linejoin:miter;stroke-miterlimit:4;stroke-dasharray:none"
           id="path100656"
           inkscape:connector-curvature="0" />
        <path
           d="m 530.69454,21.00364 h -19.42719 v 73.60752 h 19.42719 c 29.82072,0 48.63272,-12.84357 48.63272,-36.69586 0,-23.8522 -18.812,-36.91166 -48.63272,-36.91166 z m 52.1404,80.40698 c -9.60566,4.3172 -27.78087,7.12329 -43.66799,7.12329 H 478.44619 V 7.2967 h 60.72076 c 15.88712,0 34.06233,2.80617 43.68958,7.12328 23.38818,10.57703 31.00795,27.52192 31.00795,43.49532 0,15.97349 -7.55501,32.91829 -31.02954,43.49532"
           style="fill:#221e1f;fill-rule:nonzero;stroke:none;stroke-width:0.05;stroke-linecap:butt;stroke-linejoin:miter;stroke-miterlimit:4;stroke-dasharray:none"
           id="path100660"
           inkscape:connector-curvature="0" />
      </g>
    </g>
  </g>
</svg>
