<?xml version="1.0" encoding="UTF-8" standalone="no"?>
<svg
   xmlns:bx="https://www.boxy-svg.com/bx"
   xmlns:dc="http://purl.org/dc/elements/1.1/"
   xmlns:cc="http://creativecommons.org/ns#"
   xmlns:rdf="http://www.w3.org/1999/02/22-rdf-syntax-ns#"
   xmlns:svg="http://www.w3.org/2000/svg"
   xmlns="http://www.w3.org/2000/svg"
   xmlns:sodipodi="http://sodipodi.sourceforge.net/DTD/sodipodi-0.dtd"
   xmlns:inkscape="http://www.inkscape.org/namespaces/inkscape"
   width="165.13800048828125"
   height="384.9889831542969"
   viewBox="109.842 -107.426 165.138 384.989"
   version="1.1"
   id="svg77"
   sodipodi:docname="controller.svg"
   inkscape:version="0.92.5 (2060ec1f9f, 2020-04-08)">
  <metadata
     id="metadata83">
    <rdf:RDF>
      <cc:Work
         rdf:about="">
        <dc:format>image/svg+xml</dc:format>
        <dc:type
           rdf:resource="http://purl.org/dc/dcmitype/StillImage" />
      </cc:Work>
    </rdf:RDF>
  </metadata>
  <defs
     id="defs81" />
  <sodipodi:namedview
     pagecolor="#ffffff"
     bordercolor="#666666"
     borderopacity="1"
     objecttolerance="10"
     gridtolerance="10"
     guidetolerance="10"
     inkscape:pageopacity="0"
     inkscape:pageshadow="2"
     inkscape:window-width="3840"
     inkscape:window-height="2065"
     id="namedview79"
     showgrid="false"
     inkscape:zoom="3.0579226"
     inkscape:cx="90.794548"
     inkscape:cy="193.06659"
     inkscape:window-x="0"
     inkscape:window-y="0"
     inkscape:window-maximized="1"
     inkscape:current-layer="svg77" />
  <g
     id="g1048">
    <path
       bx:origin="0 0"
       style="fill:#bdbdbd"
       d="m 274.97952,154.52848 c 0,-0.991 -0.085,-2.134 -0.519,-3.111 -0.435,-0.978 -1.363,-1.795 -2.674,-1.795 v 0.641 c -0.252,-0.011 -0.63,0.021 -0.641,0.332 l 0.121,44.485 c -0.479,15.887 -5.099,29.69 -12.469,41.794 -0.258,0.514 0.278,0.736 0.488,0.727 0.857,-0.036 1.531,-0.086 2.068,-0.151 v 0.065 c 0.848,0 1.502,0.073 2.134,0 0.624,-0.073 1.257,-0.428 1.616,-1.077 0.004,-0.006 0.019,0.004 0.021,0 0.002,-0.006 -0.004,-0.015 0,-0.02 6.714,-11.945 9.855,-25.708 9.855,-40.34 z"
       id="path7"
       inkscape:connector-curvature="0" />
    <path
       bx:origin="0 1"
       style="fill:#bdbdbd"
       d="m 274.97952,15.710478 c 0,0.991 -0.085,2.134 -0.519,3.111 -0.435,0.978 -1.363,1.795 -2.674,1.795 v -0.641 c -0.252,0.011 -0.63,-0.021 -0.641,-0.332 l 0.121,-44.485 c -0.479,-15.887 -5.099,-29.69 -12.469,-41.794 -0.258,-0.514 0.278,-0.736 0.488,-0.727 0.857,0.036 1.531,0.086 2.068,0.151 v -0.065 c 0.848,0 1.502,-0.073 2.134,0 0.624,0.073 1.257,0.428 1.616,1.077 0.004,0.006 0.019,-0.004 0.021,0 0.002,0.006 -0.004,0.015 0,0.02 6.714,11.945 9.855,25.708 9.855,40.34 z"
       id="path-7"
       inkscape:connector-curvature="0" />
    <path
       bx:origin="0.5 0.5"
       style="fill:#cccccc"
       d="m 271.86852,-26.406516 v 89.45 16.098 h -0.837 -0.637 v 0.637 10.758 0.637 h 0.637 0.837 v 15.918996 89.449 c 0,44.754 -36.25,81.022 -81.002,81.022 -44.754,0 -81.022,-36.27 -81.022,-81.022 0,-17.66 5.652,-33.984 15.24,-47.297 v -0.019 l 1.295,-1.673 c 2.348,-2.94 3.745,-6.667 3.745,-10.719 l 0,-30.361 v -42.812996 -30.362 c 0,-4.051 -1.397,-7.778 -3.745,-10.717 l -1.295,-1.674 v -0.019 c -9.594,-13.305 -15.243,-29.626 -15.243,-47.292 0,-44.752 36.268,-81.021004 81.022,-81.021004 44.752,0 81.003,36.270004 81.003,81.021004 z"
       id="path-11"
       inkscape:connector-curvature="0" />
    <g
       id="g32"
       transform="rotate(90,191.91052,84.569004)">
      <g
         id="g18">
        <path
           id="path5"
           bx:origin="0.5 0.5"
           style="fill:#4c4c4c"
           d="m 145.366,123.432 c 0.053,-0.336 -0.087,-0.598 -0.42,-0.784 l -0.56,-0.319 c -0.787,-0.469 -1.16,-1.107 -1.12,-1.913 0.02,-0.372 0.117,-0.7 0.29,-0.983 0.173,-0.293 0.417,-0.519 0.73,-0.678 0.307,-0.16 0.643,-0.235 1.01,-0.226 0.493,0.009 0.89,0.199 1.19,0.571 0.3,0.363 0.447,0.855 0.44,1.475 h -1.16 c 0.007,-0.248 -0.033,-0.451 -0.12,-0.611 -0.087,-0.15 -0.23,-0.23 -0.43,-0.239 -0.2,0 -0.373,0.062 -0.52,0.186 -0.153,0.123 -0.243,0.296 -0.27,0.518 -0.04,0.302 0.13,0.549 0.51,0.744 0.38,0.196 0.657,0.359 0.83,0.492 0.547,0.434 0.803,1.019 0.77,1.754 -0.02,0.381 -0.113,0.718 -0.28,1.01 -0.167,0.283 -0.397,0.505 -0.69,0.664 -0.293,0.16 -0.627,0.235 -1,0.226 -0.267,-0.009 -0.513,-0.062 -0.74,-0.159 -0.233,-0.107 -0.433,-0.262 -0.6,-0.465 -0.327,-0.408 -0.483,-0.948 -0.47,-1.622 l 1.17,0.014 c -0.013,0.336 0.037,0.594 0.15,0.77 0.107,0.169 0.293,0.253 0.56,0.253 0.193,0 0.357,-0.057 0.49,-0.173 0.133,-0.123 0.213,-0.292 0.24,-0.505 z"
           inkscape:connector-curvature="0" />
        <path
           id="path8"
           bx:origin="0.5 0.5"
           style="fill:#4c4c4c"
           d="m 169.788,119.844 h -1.44 l -0.71,5.382 h -1.17 l 0.71,-5.382 h -1.43 l 0.17,-1.235 h 4.04 z"
           inkscape:connector-curvature="0" />
        <path
           id="path10"
           bx:origin="0.5 0.5"
           style="fill:#4c4c4c"
           d="m 164.477,122.967 c -0.034,0.469 -0.15,0.881 -0.35,1.236 -0.2,0.363 -0.46,0.642 -0.78,0.837 -0.327,0.195 -0.68,0.288 -1.06,0.279 -0.52,-0.017 -0.927,-0.239 -1.22,-0.664 -0.3,-0.435 -0.464,-1.019 -0.49,-1.754 -0.02,-0.488 0.02,-1.023 0.12,-1.608 0.1,-0.576 0.263,-1.076 0.49,-1.502 0.233,-0.434 0.503,-0.757 0.81,-0.97 0.313,-0.212 0.653,-0.315 1.02,-0.305 0.546,0.017 0.976,0.235 1.29,0.651 0.313,0.425 0.486,1.006 0.52,1.741 h -1.17 c 0.006,-0.408 -0.047,-0.695 -0.16,-0.864 -0.12,-0.177 -0.3,-0.27 -0.54,-0.279 -0.62,-0.027 -0.997,0.607 -1.13,1.9 -0.06,0.594 -0.09,1.014 -0.09,1.262 -0.014,0.744 0.193,1.13 0.62,1.156 0.273,0.01 0.493,-0.083 0.66,-0.279 0.166,-0.195 0.273,-0.465 0.32,-0.81 z"
           inkscape:connector-curvature="0" />
        <path
           id="path12"
           bx:origin="0.5 0.5"
           style="fill:#4c4c4c"
           d="m 159.332,122.422 h -1.83 l -0.2,1.582 h 2.16 l -0.16,1.222 h -3.33 l 0.86,-6.617 h 3.34 l -0.16,1.235 h -2.17 l -0.18,1.396 h 1.83 z"
           inkscape:connector-curvature="0" />
        <path
           id="path14"
           bx:origin="0.5 0.5"
           style="fill:#4c4c4c"
           d="m 153.087,124.004 h 2.02 l -0.16,1.222 h -3.19 l 0.86,-6.617 h 1.17 z"
           inkscape:connector-curvature="0" />
        <path
           id="path16"
           bx:origin="0.5 0.5"
           style="fill:#4c4c4c"
           d="m 150.782,122.422 h -1.83 l -0.2,1.582 h 2.16 l -0.16,1.222 h -3.33 l 0.86,-6.617 h 3.34 l -0.16,1.235 h -2.17 l -0.18,1.396 h 1.83 z"
           inkscape:connector-curvature="0" />
      </g>
      <g
         id="g30">
        <path
           id="path20"
           bx:origin="0.5 0.5"
           style="fill:#4c4c4c"
           d="m 189.002,123.432 c 0.053,-0.336 -0.087,-0.598 -0.42,-0.784 l -0.56,-0.319 c -0.787,-0.469 -1.16,-1.107 -1.12,-1.913 0.02,-0.372 0.117,-0.7 0.29,-0.983 0.173,-0.293 0.417,-0.519 0.73,-0.678 0.307,-0.16 0.643,-0.235 1.01,-0.226 0.493,0.009 0.89,0.199 1.19,0.571 0.3,0.363 0.447,0.855 0.44,1.475 h -1.16 c 0.007,-0.248 -0.033,-0.451 -0.12,-0.611 -0.087,-0.15 -0.23,-0.23 -0.43,-0.239 -0.2,0 -0.373,0.062 -0.52,0.186 -0.153,0.123 -0.243,0.296 -0.27,0.518 -0.04,0.302 0.13,0.549 0.51,0.744 0.38,0.196 0.657,0.359 0.83,0.492 0.547,0.434 0.803,1.019 0.77,1.754 -0.02,0.381 -0.113,0.718 -0.28,1.01 -0.167,0.283 -0.397,0.505 -0.69,0.664 -0.293,0.16 -0.627,0.235 -1,0.226 -0.267,-0.009 -0.513,-0.062 -0.74,-0.159 -0.233,-0.107 -0.433,-0.262 -0.6,-0.465 -0.327,-0.408 -0.483,-0.948 -0.47,-1.622 l 1.17,0.014 c -0.013,0.336 0.037,0.594 0.15,0.77 0.107,0.169 0.293,0.253 0.56,0.253 0.193,0 0.357,-0.057 0.49,-0.173 0.133,-0.123 0.213,-0.292 0.24,-0.505 z"
           inkscape:connector-curvature="0" />
        <path
           id="path22"
           bx:origin="0.5 0.5"
           style="fill:#4c4c4c"
           d="m 210.073,119.844 h -1.44 l -0.71,5.382 h -1.17 l 0.71,-5.382 h -1.43 l 0.17,-1.235 h 4.04 z"
           inkscape:connector-curvature="0" />
        <path
           id="path24"
           bx:origin="0 0"
           style="fill:#4c4c4c"
           d="m 202.25,121.665 h 0.68 c 0.186,0 0.35,-0.057 0.49,-0.173 0.14,-0.123 0.24,-0.292 0.3,-0.505 0.06,-0.203 0.076,-0.408 0.05,-0.611 -0.047,-0.336 -0.21,-0.514 -0.49,-0.532 h -0.79 z m -0.16,1.222 -0.3,2.339 h -1.17 l 0.86,-6.617 1.76,0.013 c 0.56,0 0.993,0.173 1.3,0.518 0.3,0.355 0.433,0.833 0.4,1.435 -0.02,0.479 -0.124,0.873 -0.31,1.183 -0.18,0.319 -0.434,0.567 -0.76,0.744 l 0.67,2.644 v 0.08 h -1.25 l -0.55,-2.339 z"
           inkscape:connector-curvature="0" />
        <path
           id="path26"
           bx:origin="0 0"
           style="fill:#4c4c4c"
           d="m 197.201,123.99 -0.44,1.236 h -1.29 l 2.64,-6.617 h 1.1 l 0.92,6.617 h -1.22 l -0.12,-1.236 z m 0.44,-1.235 h 1.03 l -0.22,-2.273 z"
           inkscape:connector-curvature="0" />
        <path
           id="path28"
           bx:origin="0.5 0.5"
           style="fill:#4c4c4c"
           d="m 195.548,119.844 h -1.44 l -0.71,5.382 h -1.17 l 0.71,-5.382 h -1.43 l 0.17,-1.235 h 4.04 z"
           inkscape:connector-curvature="0" />
      </g>
    </g>
    <path
       clip-path="url(#clipPath16)"
       bx:origin="0.5 0.5"
       d="m 191.79252,20.043484 c -25.403,0 -45.994,-20.559 -45.994,-45.92 0,-25.361 20.591,-45.92 45.994,-45.92 25.402,0 45.996,20.559 45.996,45.92 0,25.361 -20.594,45.92 -45.996,45.92"
       style="fill:#999999;fill-opacity:1;fill-rule:nonzero;stroke:#999999"
       id="path42"
       inkscape:connector-curvature="0" />
    <path
       clip-path="url(#clipPath16)"
       bx:origin="0.5 0.5"
       d="m 191.79352,18.623484 c -24.594,0 -44.53,-19.922 -44.53,-44.499 0,-24.577 19.936,-44.501 44.53,-44.501 24.593,0 44.53,19.924 44.53,44.501 0,24.577 -19.937,44.499 -44.53,44.499"
       style="fill:#cccccc;fill-opacity:1;fill-rule:nonzero;stroke:none"
       id="path46"
       inkscape:connector-curvature="0" />
    <path
       clip-path="url(#clipPath16)"
       bx:origin="0.5 0.5"
       d="m 191.70452,269.67948 c -40.332,0 -73.028,-32.697 -73.028,-73.029 0,-40.333 32.696,-73.029 73.028,-73.029 40.333,0 73.029,32.696 73.029,73.029 0,40.332 -32.696,73.029 -73.029,73.029"
       style="fill:#666666;fill-opacity:1;fill-rule:nonzero;stroke:none"
       id="path50"
       inkscape:connector-curvature="0" />
    <path
       clip-path="url(#clipPath16)"
       bx:origin="0.5 0.5"
       d="m 203.31952,6.107484 v -20.459 h 20.458 c 0.873,0 1.589,-0.715 1.589,-1.59 v -19.871 c 0,-0.875 -0.716,-1.59 -1.589,-1.59 h -20.458 v -20.459 c 0,-0.873 -0.716,-1.588 -1.59,-1.588 h -19.872 c -0.873,0 -1.589,0.715 -1.589,1.588 v 20.459 l -20.459,0 c -0.874,0 -1.589,0.715 -1.589,1.59 v 19.871 c 0,0.875 0.715,1.59 1.589,1.59 l 20.459,0 v 20.459 c 0,0.874 0.716,1.589 1.589,1.589 h 19.872 c 0.874,0 1.59,-0.715 1.59,-1.589"
       style="fill:#4c4c4c;fill-opacity:1;fill-rule:nonzero;stroke:none"
       id="path70"
       inkscape:connector-curvature="0" />
    <path
       clip-path="url(#clipPath16)"
       bx:origin="0.5 0.5"
       d="m 193.87852,-54.660516 c -1.146,-2.022 -3.023,-2.022 -4.17,0 l -4.442,7.834 c -1.148,2.022 -0.612,3.676 1.19,3.676 h 10.674 c 1.802,0 2.336,-1.654 1.191,-3.676 l -4.443,-7.834 c -1.146,-2.022 -3.023,-2.022 -4.17,0 l -4.442,7.834 c -1.148,2.022 -0.612,3.676 1.19,3.676 h 10.674 c 1.802,0 2.336,-1.654 1.191,-3.676 z"
       style="fill:#666666;fill-opacity:1;fill-rule:nonzero;stroke:none"
       id="path90"
       inkscape:connector-curvature="0" />
    <path
       clip-path="url(#clipPath16)"
       bx:origin="0.5 0.5"
       d="m 193.87852,2.808484 c -1.146,2.023 -3.023,2.023 -4.17,0 l -4.442,-7.834 c -1.148,-2.022 -0.612,-3.676 1.19,-3.676 h 10.674 c 1.802,0 2.336,1.654 1.191,3.676 l -4.443,7.834 c -1.146,2.023 -3.023,2.023 -4.17,0 l -4.442,-7.834 c -1.148,-2.022 -0.612,-3.676 1.19,-3.676 h 10.674 c 1.802,0 2.336,1.654 1.191,3.676 z"
       style="fill:#666666;fill-opacity:1;fill-rule:nonzero;stroke:none"
       id="path94"
       inkscape:connector-curvature="0" />
    <path
       clip-path="url(#clipPath16)"
       bx:origin="0.5 0.5"
       d="m 220.45352,-23.792516 c 2.022,-1.147 2.022,-3.024 0,-4.17 l -7.834,-4.442 c -2.022,-1.147 -3.676,-0.611 -3.676,1.19 v 10.674 c 0,1.802 1.654,2.336 3.676,1.191 l 7.834,-4.443 c 2.022,-1.147 2.022,-3.024 0,-4.17 l -7.834,-4.442 c -2.022,-1.147 -3.676,-0.611 -3.676,1.19 v 10.674 c 0,1.802 1.654,2.336 3.676,1.191 z"
       style="fill:#666666;fill-opacity:1;fill-rule:nonzero;stroke:none"
       id="path98"
       inkscape:connector-curvature="0" />
    <path
       clip-path="url(#clipPath16)"
       bx:origin="0.5 0.5"
       d="m 162.98452,-23.841516 c -2.023,-1.146 -2.023,-3.023 0,-4.17 l 7.833,-4.442 c 2.023,-1.146 3.677,-0.611 3.677,1.19 v 10.675 c 0,1.801 -1.654,2.336 -3.677,1.19 l -7.833,-4.443 c -2.023,-1.146 -2.023,-3.023 0,-4.17 l 7.833,-4.442 c 2.023,-1.146 3.677,-0.611 3.677,1.19 v 10.675 c 0,1.801 -1.654,2.336 -3.677,1.19 z"
       style="fill:#666666;fill-opacity:1;fill-rule:nonzero;stroke:none"
       id="path102"
       inkscape:connector-curvature="0" />
    <path
       clip-path="url(#clipPath16)"
       bx:origin="0.5 0.5"
       d="M 181.98994,61.222072 169.09797,44.776558 c -4.47789,-5.684717 3.62844,-12.78427 8.46943,-6.638819 l 12.89295,16.444496 c 4.52226,5.876973 -3.8847,12.599715 -8.47041,6.639837"
       style="fill:#666666;fill-opacity:1;fill-rule:nonzero;stroke:none"
       id="path-4"
       inkscape:connector-curvature="0" />
    <path
       clip-path="url(#clipPath16)"
       bx:origin="0.5 0.5"
       d="M 181.98993,102.56008 169.09796,86.114566 c -4.47789,-5.684717 3.62844,-12.78427 8.46943,-6.638819 l 12.89295,16.444496 c 4.52225,5.876977 -3.8847,12.599717 -8.47041,6.639837"
       style="fill:#666666;fill-opacity:1;fill-rule:nonzero;stroke:none"
       id="path-2"
       inkscape:connector-curvature="0" />
    <path
       id="path44"
       bx:origin="0 0"
       style="fill:#d8d8d8"
       d="m 244.49752,221.71948 0.03,-2.686 -4.034,3.388 -4.395,-3.613 0.017,2.527 2.836,2.382 -2.836,2.381 -0.017,2.527 4.395,-3.613 4.034,3.388 -0.03,-2.686 -2.429,-1.997 z"
       inkscape:connector-curvature="0" />
    <path
       id="path47"
       bx:origin="0 0"
       style="fill:#d8d8d8"
       d="m 214.69652,254.78748 -0.011,1.254 0.011,1.253 -8.311,3.797 -0.011,-2.041 2.085,-0.948 0.024,-4.112 -2.109,-0.959 0.011,-2.041 z m -4.541,2.545 2.841,-1.291 -2.796,-1.271 z"
       inkscape:connector-curvature="0" />
    <path
       id="path49"
       bx:origin="0 0"
       style="fill:#d8d8d8"
       d="m 174.14852,136.23948 0.002,-2.27 -4.674,3.762 h -3.836 v 1.984 h 3.858 l 4.652,3.744 -0.003,-2.27 -3.095,-2.475 z"
       inkscape:connector-curvature="0" />
    <path
       id="path51"
       bx:origin="0 0"
       style="fill:#cccccc"
       d="m 145.07052,167.72748 v 0.84 h 0.002 v 4.585 h 0.002 c -0.001,0.014 -0.001,0.028 -0.002,0.042 v 0.069 h -0.004 c -0.228,3.457 -3.921,3.68 -4.087,0.241 -0.16,4.193 -4.315,3.909 -4.488,-0.241 h -10e-4 v -0.018 c -0.001,-0.032 -0.002,-0.064 -0.003,-0.096 h 0.003 v -5.422 z m -6.996,5.507 c 0.221,1.32 1.718,1.404 1.99,0.029 h -0.002 v -3.331 h -1.988 z m 3.57,-0.032 c 0.539,1.425 1.707,0.82 1.848,0.061 h -0.002 v -3.331 h -1.846 z"
       inkscape:connector-curvature="0" />
    <path
       bx:origin="0.5 0.5"
       style="fill:#f4f4f4"
       d="m 206.07152,159.95648 c 0,-8.331 -6.771,-15.101 -15.102,-15.101 -8.331,0 -15.102,6.77 -15.102,15.101 0,8.332 6.771,15.102 15.102,15.102 8.331,0 15.102,-6.77 15.102,-15.102 z m -1.276,0 c 0,7.642 -6.185,13.826 -13.826,13.826 -7.641,0 -13.825,-6.184 -13.825,-13.826 0,-7.64 6.184,-13.824 13.825,-13.824 7.641,0 13.826,6.184 13.826,13.824 z"
       id="circle35"
       inkscape:connector-curvature="0" />
    <path
       bx:origin="0.5 0.5"
       style="fill:#f4f4f4"
       d="m 234.63852,196.62548 c 0,-8.331 -6.77,-15.082 -15.102,-15.082 -8.33,0 -15.101,6.751 -15.101,15.082 0,8.331 6.771,15.102 15.101,15.102 8.332,0 15.102,-6.771 15.102,-15.102 z m -1.277,0 c 0,7.641 -6.184,13.825 -13.824,13.825 -7.641,0 -13.825,-6.184 -13.825,-13.825 0,-7.64 6.184,-13.805 13.825,-13.805 7.64,0 13.824,6.164 13.824,13.805 z"
       id="circle37"
       inkscape:connector-curvature="0" />
    <path
       bx:origin="0.5 0.5"
       style="fill:#f4f4f4"
       d="m 178.18152,197.83748 c 0,-8.33 -6.771,-15.101 -15.103,-15.101 -8.331,0 -15.082,6.771 -15.082,15.101 0,8.333 6.751,15.082 15.082,15.082 8.331,0 15.103,-6.749 15.103,-15.082 z m -1.278,0 c 0,7.643 -6.184,13.805 -13.825,13.805 -7.641,0 -13.804,-6.162 -13.804,-13.805 0,-7.64 6.163,-13.824 13.804,-13.824 7.641,0 13.825,6.184 13.825,13.824 z"
       id="circle41"
       inkscape:connector-curvature="0" />
    <path
       bx:origin="0.5 0.5"
       style="fill:#f4f4f4"
       d="m 206.74752,234.50748 c 0,-8.331 -6.771,-15.103 -15.101,-15.103 -8.331,0 -15.101,6.772 -15.101,15.103 0,8.332 6.77,15.102 15.101,15.102 8.33,0 15.101,-6.772 15.101,-15.102 z m -1.276,0 c 0,7.64 -6.184,13.824 -13.824,13.824 -7.642,0 -13.825,-6.184 -13.825,-13.824 0,-7.64 6.184,-13.824 13.825,-13.824 7.64,0 13.824,6.184 13.824,13.824 z"
       id="circle43"
       inkscape:connector-curvature="0" />
    <path
       id="path57"
       bx:origin="0 0"
       style="fill:#d8d8d8"
       d="m 202.61352,248.41648 c -7.753,6.039 -18.918,4.662 -24.958,-3.092 l -28.567,-36.667 c -6.039,-7.754 -4.641,-18.919 3.112,-24.957 7.754,-6.038 18.918,-4.661 24.957,3.093 l 28.548,36.687 c 2.266,2.906 3.5,6.279 3.731,9.697 0.386,5.692 -1.976,11.466 -6.823,15.239 z"
       inkscape:connector-curvature="0" />
    <path
       bx:origin="0.5 0.5"
       style="fill:#ba2318;fill-opacity:1"
       d="m 206.73852,234.50648 c 0,8.342 -6.751,15.093 -15.094,15.093 -8.34,0 -15.09,-6.751 -15.09,-15.093 0,-8.341 6.75,-15.092 15.09,-15.092 8.343,0 15.094,6.751 15.094,15.092 z"
       id="path-5"
       inkscape:connector-curvature="0" />
    <path
       id="path60"
       bx:origin="0 0"
       style="fill:#d8d8d8"
       d="m 230.41952,210.66348 c -7.753,6.039 -18.918,4.662 -24.957,-3.093 l -28.567,-36.666 c -6.039,-7.754 -4.642,-18.919 3.112,-24.958 7.754,-6.038 18.918,-4.66 24.956,3.094 l 28.548,36.687 c 2.266,2.906 3.5,6.278 3.732,9.696 0.386,5.693 -1.977,11.467 -6.824,15.24 z"
       inkscape:connector-curvature="0" />
    <path
       bx:origin="0.5 0.5"
       style="fill:#0a2a8d;fill-opacity:1"
       d="m 234.62952,196.63648 c 0,8.341 -6.751,15.092 -15.094,15.092 -8.341,0 -15.091,-6.751 -15.091,-15.092 0,-8.341 6.75,-15.093 15.091,-15.093 8.343,0 15.094,6.752 15.094,15.093 z"
       id="path-6"
       inkscape:connector-curvature="0" />
    <path
       bx:origin="0.5 0.5"
       style="fill:#fed01b;fill-opacity:1"
       d="m 178.18052,197.82748 c 0,8.342 -6.751,15.093 -15.093,15.093 -8.341,0 -15.09,-6.751 -15.09,-15.093 0,-8.341 6.749,-15.092 15.09,-15.092 8.342,0 15.093,6.751 15.093,15.092 z"
       id="path-1"
       inkscape:connector-curvature="0" />
    <path
       bx:origin="0.5 0.5"
       style="fill:#007544;fill-opacity:1"
       d="m 206.06152,159.95648 c 0,8.342 -6.751,15.093 -15.093,15.093 -8.341,0 -15.091,-6.751 -15.091,-15.093 0,-8.341 6.75,-15.092 15.091,-15.092 8.342,0 15.093,6.751 15.093,15.092 z"
       id="path-10"
       inkscape:connector-curvature="0" />
    <path
       clip-path="url(#clipPath16)"
       bx:origin="0.5 0.5"
       d="m 191.79352,-17.511516 c -4.621,0 -8.365,-3.745 -8.365,-8.366 0,-4.619 3.744,-8.364 8.365,-8.364 4.619,0 8.365,3.745 8.365,8.364 0,4.621 -3.746,8.366 -8.365,8.366"
       style="fill:#666666;fill-opacity:0.5;fill-rule:nonzero;stroke:none"
       id="path-18"
       inkscape:connector-curvature="0" />
    <g
       id="g75"
       transform="rotate(90,190.40702,86.262508)">
      <path
         clip-path="url(#clipPath16)"
         bx:origin="0.5 0.5"
         d="m 163.348,35.415 -0.342,0.939 h 0.26 z m -9.644,-1.119 c -0.028,0 -0.048,0.015 -0.067,0.033 l -0.212,1.12 v 0.007 c 0,0.044 0.027,0.076 0.068,0.076 h 0.193 c 0.05,0 0.17,-0.1 0.181,-0.149 l 0.178,-0.924 c 0.006,-0.054 -0.081,-0.163 -0.131,-0.163 z m 39.054,-0.445 h 1.091 l -0.085,0.46 h -0.273 l -0.571,3.264 h -0.522 l 0.571,-3.264 h -0.292 z m -4.841,0 h 0.459 l 0.241,1.944 0.36,-1.944 h 0.521 l -0.683,3.724 h -0.458 l -0.176,-2.16 -0.426,2.16 h -0.538 z m -4.724,0 h 0.963 l -0.066,0.46 h -0.522 l -0.214,1.152 h 0.508 l -0.067,0.397 h -0.519 l -0.214,1.253 h 0.525 l -0.084,0.462 h -1.027 z m -5.915,0 h 0.604 l 0.096,2.158 0.93,-2.144 h 0.586 l -0.619,3.71 h -0.457 l 0.296,-1.962 -0.816,1.962 h -0.324 l -0.1,-2.01 -0.359,2.01 h -0.522 z m -5.392,0 h 0.457 l 0.242,1.944 0.36,-1.944 h 0.521 l -0.683,3.724 h -0.472 l -0.166,-2.16 -0.422,2.16 h -0.537 z m -4.205,0 h 0.474 l -0.7,3.724 h -0.458 z m -4.333,0 h 0.62 l -0.196,3.724 h -0.619 l 0.081,-0.856 h -0.375 l -0.31,0.856 h -0.553 z m -5.425,0 h 1.09 l -0.065,0.46 h -0.275 l -0.587,3.264 h -0.522 l 0.571,-3.264 h -0.294 z m -4.658,0 h 1.039 c 0.195,0 0.318,0.172 0.28,0.378 l -0.246,1.319 c -0.025,0.142 -0.274,0.259 -0.406,0.312 h 0.032 0.015 0.019 v 0.017 h 0.014 0.017 0.016 0.016 l 0.016,0.017 h 0.017 0.017 0.015 v 0.016 h 0.019 0.014 v 0.017 h 0.018 c 0.021,0.041 0.03,0.157 0.03,0.182 0,0.02 -0.262,1.466 -0.262,1.466 h -0.469 c 0,0 0.253,-1.298 0.26,-1.351 0.003,-0.057 -0.006,-0.13 -0.018,-0.181 -0.003,-0.04 -0.005,-0.108 -0.046,-0.149 h -0.326 l -0.312,1.681 h -0.47 z m -4.597,0 h 0.978 l -0.081,0.46 h -0.506 l -0.228,1.152 h 0.506 l -0.065,0.397 h -0.509 l -0.207,1.253 h 0.503 l -0.063,0.462 h -1.044 z m -4.739,0 h 1.076 l -0.069,0.46 h -0.274 l -0.589,3.264 h -0.523 l 0.573,-3.264 h -0.294 z m -4.89,0 h 0.455 l 0.246,1.944 0.359,-1.944 h 0.535 l -0.699,3.724 h -0.455 l -0.178,-2.16 -0.428,2.16 h -0.535 z m -4.498,0 h 0.963 l -0.065,0.46 h -0.522 l -0.212,1.152 h 0.506 l -0.065,0.397 h -0.521 l -0.197,1.253 h 0.505 l -0.082,0.462 h -1.041 z m 87.512,-0.133 h 0.602 l 0.098,2.142 0.928,-2.125 0.588,-0.017 -0.62,3.709 h -0.456 l 0.294,-1.964 -0.813,1.964 h -0.329 l -0.097,-2.012 -0.359,2.012 h -0.536 z m -4.026,0 h 0.979 l -0.082,0.445 h -0.505 l -0.227,1.17 h 0.519 l -0.08,0.378 h -0.505 l -0.212,1.254 h 0.505 l -0.067,0.462 h -1.039 z m -4.269,0 h 1.092 l -0.079,0.445 h -0.279 l -0.568,3.264 h -0.539 l 0.571,-3.264 h -0.277 z m -3.796,0 h 0.018 0.015 0.016 0.017 0.016 0.717 c 0.192,0 0.33,0.158 0.294,0.362 l -0.18,0.923 h -0.44 l 0.099,-0.608 c 0.023,-0.14 -0.059,-0.248 -0.196,-0.248 -0.136,0 -0.272,0.108 -0.294,0.248 l -0.082,0.443 c -0.016,0.026 0.024,0.153 0.049,0.165 0.058,0.038 0.637,1 0.637,1.074 0.017,0.034 0.017,0.05 0.017,0.064 -0.023,0.12 -0.164,0.942 -0.164,0.942 -0.036,0.186 -0.218,0.344 -0.405,0.344 h -0.702 c -0.191,0 -0.314,-0.158 -0.278,-0.344 l 0.161,-0.942 h 0.475 l -0.115,0.676 c -0.022,0.139 0.064,0.266 0.198,0.266 0.135,0 0.263,-0.127 0.29,-0.266 l 0.1,-0.544 c -0.092,-0.228 -0.665,-1.057 -0.702,-1.253 -0.023,-0.023 -0.036,-0.14 -0.034,-0.229 0.005,-0.1 0.132,-0.711 0.132,-0.711 l 0.016,-0.016 v -0.016 -0.016 l 0.019,-0.033 v -0.018 l 0.014,-0.016 v -0.017 l 0.016,-0.016 v -0.015 l 0.016,-0.016 0.015,-0.017 v -0.019 h 0.017 l 0.018,-0.014 0.016,-0.017 0.017,-0.016 0.016,-0.016 0.016,-0.018 0.018,-0.015 h 0.015 l 0.015,-0.018 h 0.016 l 0.017,-0.016 h 0.017 0.034 z m -5.327,0 h 0.587 l 0.081,1.402 0.751,-1.402 h 0.586 l -1.206,2.142 -0.294,1.567 h -0.522 l 0.263,-1.682 z m -3.747,0 h 0.017 0.016 0.013 0.02 0.014 0.718 c 0.193,0 0.33,0.158 0.293,0.362 l -0.18,0.923 h -0.438 l 0.098,-0.608 c 0.022,-0.14 -0.06,-0.248 -0.197,-0.248 -0.136,0 -0.271,0.108 -0.294,0.248 l -0.08,0.443 c -0.014,0.026 0.025,0.153 0.046,0.165 0.063,0.038 0.639,1 0.639,1.074 0.012,0.034 0.02,0.05 0.014,0.064 -0.014,0.12 -0.179,0.942 -0.179,0.942 -0.034,0.186 -0.213,0.344 -0.407,0.344 h -0.681 c -0.194,0 -0.315,-0.158 -0.28,-0.344 l 0.165,-0.942 h 0.47 l -0.115,0.676 c -0.021,0.139 0.061,0.266 0.199,0.266 0.131,0 0.27,-0.127 0.292,-0.266 l 0.096,-0.544 c -0.086,-0.228 -0.664,-1.057 -0.7,-1.253 -0.024,-0.023 -0.036,-0.14 -0.033,-0.229 0.007,-0.1 0.132,-0.711 0.132,-0.711 h 0.014 v -0.016 -0.016 -0.016 l 0.019,-0.033 v -0.018 l 0.014,-0.016 v -0.017 l 0.019,-0.016 v -0.015 l 0.013,-0.016 0.02,-0.017 v -0.019 h 0.015 l 0.015,-0.014 0.017,-0.017 0.016,-0.016 v -0.016 h 0.019 l 0.013,-0.018 0.019,-0.015 h 0.015 l 0.017,-0.018 h 0.016 l 0.015,-0.016 h 0.018 0.032 z m -68.365,4.911 h 93.002 v -5.487 h -93.002 z m 33.106,-21.685 h 0.015 0.019 0.015 0.018 0.945 c 0.221,0 0.694,0.513 0.648,0.741 l -0.861,4.12 c -0.039,0.214 -0.569,0.722 -0.784,0.722 h -0.893 c -0.185,0 -0.315,-0.121 -0.327,-0.295 0,-0.028 -0.003,-0.067 0,-0.098 l 0.96,-5.059 0.018,-0.017 0.014,-0.015 0.034,-0.018 h 0.017 l 0.016,-0.015 0.014,-0.018 h 0.017 l 0.016,-0.016 h 0.018 l 0.033,-0.016 h 0.015 0.018 0.015 z m -12.985,0 h 1.009 c 0.225,0 0.693,0.513 0.651,0.741 l -0.861,4.136 c -0.042,0.212 -0.326,0.706 -0.536,0.706 h -1.222 -0.02 -0.013 l -0.019,-0.015 h -0.016 -0.017 -0.015 -0.016 v -0.018 h -0.017 -0.016 l -0.017,-0.015 h -0.015 l -0.017,-0.015 -0.017,-0.017 h -0.018 v -0.016 l -0.013,-0.017 -0.019,-0.017 V 22.38 l -0.013,-0.014 -0.017,-0.019 v -0.015 -0.016 l -0.017,-0.017 v -0.017 -0.016 l -0.017,-0.017 v -0.017 c 0,-0.028 -0.004,-0.067 0,-0.098 l 0.976,-5.059 c 0.09,-0.075 0.2,-0.131 0.312,-0.131 m 71.235,-0.068 h 0.063 c 0.614,0 1.019,0.501 0.912,1.119 l -1.956,10.961 c -0.105,0.621 -0.671,1.138 -1.285,1.138 -0.616,0 -0.872,-0.516 -0.767,-1.138 l 1.94,-10.961 0.015,-0.048 0.02,-0.047 0.013,-0.067 0.018,-0.049 0.014,-0.066 0.017,-0.048 0.015,-0.051 0.034,-0.049 0.017,-0.048 0.031,-0.053 0.018,-0.048 0.03,-0.049 0.035,-0.033 0.032,-0.05 0.033,-0.049 0.048,-0.033 0.034,-0.034 0.031,-0.031 0.049,-0.032 0.049,-0.035 0.032,-0.032 0.048,-0.033 0.051,-0.018 0.049,-0.032 0.033,-0.016 0.063,-0.017 0.05,-0.018 h 0.05 l 0.048,-0.014 h 0.066 z m -8.393,0 h 0.959 c 0.619,0 1.037,0.501 0.932,1.119 l -2.053,10.961 c -0.108,0.622 -0.706,1.138 -1.32,1.138 h -0.946 z m 7.169,-1.928 c -0.894,0 -1.748,0.743 -1.908,1.665 l -2.328,13.529 c -0.152,0.865 0.414,1.548 1.274,1.548 h 3.435 c 0.862,0 1.699,-0.683 1.857,-1.548 l 2.524,-13.529 c 0.174,-0.922 -0.409,-1.665 -1.3,-1.665 z m -8.944,0 -3.147,16.742 h 4.76 c 0.864,0 1.695,-0.683 1.857,-1.548 l 2.526,-13.529 c 0.17,-0.924 -0.411,-1.665 -1.304,-1.665 z m -8.295,0 -3.144,16.742 h 2.412 l 1.939,-9.703 0.766,9.703 h 2.086 l 3.144,-16.742 h -2.411 l -1.612,8.753 -1.079,-8.753 z m -5.294,0 -3.26,16.742 h 4.693 l 0.325,-2.074 h -2.312 l 0.96,-5.653 h 2.315 l 0.325,-1.746 h -2.313 l 1.011,-5.192 h 2.312 l 0.325,-2.077 z m -5.737,0 -0.389,2.077 h 1.302 l -2.575,14.665 h 2.38 l 2.623,-14.665 h 1.254 l 0.326,-2.077 z m -8.078,0 -3.146,16.742 h 2.411 l 1.937,-9.703 0.767,9.703 h 2.086 l 3.144,-16.742 h -2.411 l -1.612,8.753 -1.074,-8.753 z m -3.178,0 -3.143,16.742 h 2.081 l 3.147,-16.742 z m -8.279,0 -3.144,16.742 h 2.397 l 1.936,-9.703 0.766,9.703 h 2.088 l 3.143,-16.742 h -2.395 l -1.627,8.753 -1.076,-8.753 z m -11.161,0 -3.128,16.742 h 2.088 l 1.416,-7.577 h 1.483 c 0.195,0.182 0.216,0.522 0.246,0.691 0.037,0.246 0.078,0.561 0.048,0.806 -0.027,0.246 -1.141,6.08 -1.141,6.08 h 2.086 c 0,0 1.174,-6.356 1.174,-6.458 0.003,-0.104 0,-0.429 -0.115,-0.608 -0.077,-0.117 -0.207,-0.382 -0.36,-0.479 -0.289,-0.188 -0.617,-0.314 -0.617,-0.314 h -0.147 c 0.594,-0.238 1.721,-0.629 1.839,-1.27 l 1.141,-5.948 c 0.174,-0.924 -0.408,-1.665 -1.304,-1.665 z m -5.603,0 -3.26,16.742 h 4.694 l 0.327,-2.074 h -2.314 l 0.944,-5.653 h 2.313 l 0.324,-1.746 h -2.311 l 1.025,-5.192 h 2.315 l 0.325,-2.077 z m -7.446,0 -3.144,16.742 h 2.085 l 1.435,-7.577 h 2.656 c 0.862,0 1.682,-0.692 1.841,-1.552 l 1.14,-5.948 c 0.168,-0.924 -0.412,-1.665 -1.307,-1.665 h -2.621 z m -7.495,0 -2.606,15.194 c -0.152,0.865 0.427,1.548 1.287,1.548 h 3.11 c 0.862,0 1.699,-0.683 1.859,-1.548 l 2.786,-15.194 h -1.957 l -2.655,14.768 c -0.036,0.212 -0.245,0.395 -0.456,0.395 h -1.546 c -0.217,0 -0.361,-0.182 -0.328,-0.395 l 2.591,-14.768 z m -5.997,0 c -0.891,0 -1.762,0.743 -1.923,1.665 v 0.017 0.016 0.018 l -0.014,0.014 v 0.035 0.015 l -0.017,0.034 v 0.032 l -0.015,0.034 v 0.048 l -0.019,0.033 v 0.051 l -0.014,0.05 -0.018,0.048 -0.018,0.099 -0.03,0.116 -0.014,0.115 -0.035,0.115 -0.017,0.133 -0.033,0.13 -0.029,0.149 -0.035,0.133 -0.05,0.278 -0.031,0.148 -0.032,0.134 -0.017,0.131 -0.033,0.132 -0.034,0.132 -0.015,0.131 -0.013,0.116 -0.035,0.1 -0.018,0.114 v 0.048 l -0.014,0.035 v 0.046 0.034 l -0.019,0.053 v 0.031 0.032 l -0.015,0.034 v 0.017 0.016 c -0.016,0.403 0.037,0.954 0.163,1.056 0.158,0.884 3.083,4.993 2.998,5.62 -0.08,0.627 -0.423,2.47 -0.423,2.47 -0.105,0.622 -0.528,1.12 -1.143,1.12 -0.612,0 -1.031,-0.495 -0.927,-1.12 l 0.554,-3.063 h -2.183 l -0.734,4.249 c -0.149,0.865 0.429,1.548 1.29,1.548 h 3.109 c 0.863,0 1.683,-0.683 1.841,-1.548 0,0 0.804,-3.971 0.799,-4.249 -0.003,-0.285 -0.08,-0.316 -0.08,-0.316 0,-0.323 -2.604,-4.667 -2.869,-4.831 -0.114,-0.065 -0.207,-0.494 -0.213,-0.755 -0.004,-0.26 0.343,-1.996 0.343,-1.996 0.108,-0.618 0.69,-1.119 1.305,-1.119 0.615,0 0.871,0.501 0.764,1.119 l -0.471,2.751 h 2.2 l 0.767,-4.133 c 0.172,-0.922 -0.412,-1.665 -1.307,-1.665 z"
         style="fill:#4c4c4c;fill-opacity:1;fill-rule:nonzero;stroke:none"
         id="path-3"
         inkscape:connector-curvature="0" />
      <g
         id="g104"
         transform="matrix(1.605718,0,0,-1.605718,113.09349,29.645523)">
        <path
           d="m 0,0 c 0,-0.841 -1.525,-1.523 -3.407,-1.523 -1.882,0 -3.408,0.682 -3.408,1.523 0,0.841 1.526,1.523 3.408,1.523 C -1.525,1.523 0,0.841 0,0"
           style="fill:#4c4c4c;fill-opacity:1;fill-rule:nonzero;stroke:none"
           id="path106"
           inkscape:connector-curvature="0" />
      </g>
      <g
         id="g108"
         transform="matrix(1.605718,0,0,-1.605718,122.88773,33.697067)">
        <path
           d="m 0,0 c 0,-0.841 -1.525,-1.523 -3.407,-1.523 -1.882,0 -3.408,0.682 -3.408,1.523 0,0.841 1.526,1.523 3.408,1.523 C -1.525,1.523 0,0.841 0,0"
           style="fill:#4c4c4c;fill-opacity:1;fill-rule:nonzero;stroke:none"
           id="path110"
           inkscape:connector-curvature="0" />
      </g>
      <g
         id="g112"
         transform="matrix(1.605718,0,0,-1.605718,123.54625,31.09185)">
        <path
           d="M 0,0 C -0.41,1.706 -1.897,3.592 -3.817,2.772 -2.254,6.378 0.697,5.805 1.721,4.575 2.519,3.618 2.5,0.343 0,0"
           style="fill:#4c4c4c;fill-opacity:1;fill-rule:nonzero;stroke:none"
           id="path114"
           inkscape:connector-curvature="0" />
      </g>
      <g
         id="g116"
         transform="matrix(1.605718,0,0,-1.605718,113.90374,26.6623)">
        <path
           d="M 0,0 C -0.41,1.706 -1.897,3.591 -3.817,2.772 -2.254,6.378 0.697,5.805 1.721,4.575 2.519,3.618 2.5,0.343 0,0"
           style="fill:#4c4c4c;fill-opacity:1;fill-rule:nonzero;stroke:none"
           id="path118"
           inkscape:connector-curvature="0" />
      </g>
    </g>
  </g>
</svg>
