<?xml version="1.0" encoding="UTF-8" standalone="no"?>
<svg
   xmlns:bx="https://www.boxy-svg.com/bx"
   xmlns:dc="http://purl.org/dc/elements/1.1/"
   xmlns:cc="http://creativecommons.org/ns#"
   xmlns:rdf="http://www.w3.org/1999/02/22-rdf-syntax-ns#"
   xmlns:svg="http://www.w3.org/2000/svg"
   xmlns="http://www.w3.org/2000/svg"
   xmlns:sodipodi="http://sodipodi.sourceforge.net/DTD/sodipodi-0.dtd"
   xmlns:inkscape="http://www.inkscape.org/namespaces/inkscape"
   width="165.13800048828125"
   height="384.9889831542969"
   viewBox="109.842 -107.426 165.138 384.989"
   version="1.1"
   id="svg77"
   sodipodi:docname="controller.svg"
   inkscape:version="0.92.5 (2060ec1f9f, 2020-04-08)">
  <metadata
     id="metadata83">
    <rdf:RDF>
      <cc:Work
         rdf:about="">
        <dc:format>image/svg+xml</dc:format>
        <dc:type
           rdf:resource="http://purl.org/dc/dcmitype/StillImage" />
      </cc:Work>
    </rdf:RDF>
  </metadata>
  <defs
     id="defs81" />
  <sodipodi:namedview
     pagecolor="#ffffff"
     bordercolor="#666666"
     borderopacity="1"
     objecttolerance="10"
     gridtolerance="10"
     guidetolerance="10"
     inkscape:pageopacity="0"
     inkscape:pageshadow="2"
     inkscape:window-width="3840"
     inkscape:window-height="2065"
     id="namedview79"
     showgrid="false"
     inkscape:zoom="3.8135486"
     inkscape:cx="17.525333"
     inkscape:cy="188.78882"
     inkscape:window-x="0"
     inkscape:window-y="0"
     inkscape:window-maximized="1"
     inkscape:current-layer="svg77" />
  <path
     inkscape:connector-curvature="0"
     id="path7"
     d="m 274.97952,154.52848 c 0,-0.991 -0.085,-2.134 -0.519,-3.111 -0.435,-0.978 -1.363,-1.795 -2.674,-1.795 v 0.641 c -0.252,-0.011 -0.63,0.021 -0.641,0.332 l 0.121,44.485 c -0.479,15.887 -5.099,29.69 -12.469,41.794 -0.258,0.514 0.278,0.736 0.488,0.727 0.857,-0.036 1.531,-0.086 2.068,-0.151 v 0.065 c 0.848,0 1.502,0.073 2.134,0 0.624,-0.073 1.257,-0.428 1.616,-1.077 0.004,-0.006 0.019,0.004 0.021,0 0.002,-0.006 -0.004,-0.015 0,-0.02 6.714,-11.945 9.855,-25.708 9.855,-40.34 z"
     style="fill:#bdbdbd"
     bx:origin="0 0" />
  <path
     inkscape:connector-curvature="0"
     id="path-7"
     d="m 274.97952,15.710478 c 0,0.991 -0.085,2.134 -0.519,3.111 -0.435,0.978 -1.363,1.795 -2.674,1.795 v -0.641 c -0.252,0.011 -0.63,-0.021 -0.641,-0.332 l 0.121,-44.485 c -0.479,-15.887 -5.099,-29.69 -12.469,-41.794 -0.258,-0.514 0.278,-0.736 0.488,-0.727 0.857,0.036 1.531,0.086 2.068,0.151 v -0.065 c 0.848,0 1.502,-0.073 2.134,0 0.624,0.073 1.257,0.428 1.616,1.077 0.004,0.006 0.019,-0.004 0.021,0 0.002,0.006 -0.004,0.015 0,0.02 6.714,11.945 9.855,25.708 9.855,40.34 z"
     style="fill:#bdbdbd"
     bx:origin="0 1" />
  <path
     inkscape:connector-curvature="0"
     id="path-11"
     d="m 271.86852,-26.406516 v 89.45 16.098 h -0.837 -0.637 v 0.637 10.758 0.637 h 0.637 0.837 v 15.918996 89.449 c 0,44.754 -36.25,81.022 -81.002,81.022 -44.754,0 -81.022,-36.27 -81.022,-81.022 0,-17.66 5.652,-33.984 15.24,-47.297 v -0.019 l 1.295,-1.673 c 2.348,-2.94 3.745,-6.667 3.745,-10.719 v -30.361 -42.812996 -30.362 c 0,-4.051 -1.397,-7.778 -3.745,-10.717 l -1.295,-1.674 v -0.019 c -9.594,-13.305 -15.243,-29.626 -15.243,-47.292 0,-44.752 36.268,-81.021004 81.022,-81.021004 44.752,0 81.003,36.270004 81.003,81.021004 z"
     style="fill:#cccccc"
     bx:origin="0.5 0.5" />
  <g
     transform="rotate(90,191.91052,84.569004)"
     id="g32">
    <g
       id="g18">
      <path
         inkscape:connector-curvature="0"
         d="m 145.366,123.432 c 0.053,-0.336 -0.087,-0.598 -0.42,-0.784 l -0.56,-0.319 c -0.787,-0.469 -1.16,-1.107 -1.12,-1.913 0.02,-0.372 0.117,-0.7 0.29,-0.983 0.173,-0.293 0.417,-0.519 0.73,-0.678 0.307,-0.16 0.643,-0.235 1.01,-0.226 0.493,0.009 0.89,0.199 1.19,0.571 0.3,0.363 0.447,0.855 0.44,1.475 h -1.16 c 0.007,-0.248 -0.033,-0.451 -0.12,-0.611 -0.087,-0.15 -0.23,-0.23 -0.43,-0.239 -0.2,0 -0.373,0.062 -0.52,0.186 -0.153,0.123 -0.243,0.296 -0.27,0.518 -0.04,0.302 0.13,0.549 0.51,0.744 0.38,0.196 0.657,0.359 0.83,0.492 0.547,0.434 0.803,1.019 0.77,1.754 -0.02,0.381 -0.113,0.718 -0.28,1.01 -0.167,0.283 -0.397,0.505 -0.69,0.664 -0.293,0.16 -0.627,0.235 -1,0.226 -0.267,-0.009 -0.513,-0.062 -0.74,-0.159 -0.233,-0.107 -0.433,-0.262 -0.6,-0.465 -0.327,-0.408 -0.483,-0.948 -0.47,-1.622 l 1.17,0.014 c -0.013,0.336 0.037,0.594 0.15,0.77 0.107,0.169 0.293,0.253 0.56,0.253 0.193,0 0.357,-0.057 0.49,-0.173 0.133,-0.123 0.213,-0.292 0.24,-0.505 z"
         style="fill:#4c4c4c"
         bx:origin="0.5 0.5"
         id="path5" />
      <path
         inkscape:connector-curvature="0"
         d="m 169.788,119.844 h -1.44 l -0.71,5.382 h -1.17 l 0.71,-5.382 h -1.43 l 0.17,-1.235 h 4.04 z"
         style="fill:#4c4c4c"
         bx:origin="0.5 0.5"
         id="path8" />
      <path
         inkscape:connector-curvature="0"
         d="m 164.477,122.967 c -0.034,0.469 -0.15,0.881 -0.35,1.236 -0.2,0.363 -0.46,0.642 -0.78,0.837 -0.327,0.195 -0.68,0.288 -1.06,0.279 -0.52,-0.017 -0.927,-0.239 -1.22,-0.664 -0.3,-0.435 -0.464,-1.019 -0.49,-1.754 -0.02,-0.488 0.02,-1.023 0.12,-1.608 0.1,-0.576 0.263,-1.076 0.49,-1.502 0.233,-0.434 0.503,-0.757 0.81,-0.97 0.313,-0.212 0.653,-0.315 1.02,-0.305 0.546,0.017 0.976,0.235 1.29,0.651 0.313,0.425 0.486,1.006 0.52,1.741 h -1.17 c 0.006,-0.408 -0.047,-0.695 -0.16,-0.864 -0.12,-0.177 -0.3,-0.27 -0.54,-0.279 -0.62,-0.027 -0.997,0.607 -1.13,1.9 -0.06,0.594 -0.09,1.014 -0.09,1.262 -0.014,0.744 0.193,1.13 0.62,1.156 0.273,0.01 0.493,-0.083 0.66,-0.279 0.166,-0.195 0.273,-0.465 0.32,-0.81 z"
         style="fill:#4c4c4c"
         bx:origin="0.5 0.5"
         id="path10" />
      <path
         inkscape:connector-curvature="0"
         d="m 159.332,122.422 h -1.83 l -0.2,1.582 h 2.16 l -0.16,1.222 h -3.33 l 0.86,-6.617 h 3.34 l -0.16,1.235 h -2.17 l -0.18,1.396 h 1.83 z"
         style="fill:#4c4c4c"
         bx:origin="0.5 0.5"
         id="path12" />
      <path
         inkscape:connector-curvature="0"
         d="m 153.087,124.004 h 2.02 l -0.16,1.222 h -3.19 l 0.86,-6.617 h 1.17 z"
         style="fill:#4c4c4c"
         bx:origin="0.5 0.5"
         id="path14" />
      <path
         inkscape:connector-curvature="0"
         d="m 150.782,122.422 h -1.83 l -0.2,1.582 h 2.16 l -0.16,1.222 h -3.33 l 0.86,-6.617 h 3.34 l -0.16,1.235 h -2.17 l -0.18,1.396 h 1.83 z"
         style="fill:#4c4c4c"
         bx:origin="0.5 0.5"
         id="path16" />
    </g>
    <g
       id="g30">
      <path
         inkscape:connector-curvature="0"
         d="m 189.002,123.432 c 0.053,-0.336 -0.087,-0.598 -0.42,-0.784 l -0.56,-0.319 c -0.787,-0.469 -1.16,-1.107 -1.12,-1.913 0.02,-0.372 0.117,-0.7 0.29,-0.983 0.173,-0.293 0.417,-0.519 0.73,-0.678 0.307,-0.16 0.643,-0.235 1.01,-0.226 0.493,0.009 0.89,0.199 1.19,0.571 0.3,0.363 0.447,0.855 0.44,1.475 h -1.16 c 0.007,-0.248 -0.033,-0.451 -0.12,-0.611 -0.087,-0.15 -0.23,-0.23 -0.43,-0.239 -0.2,0 -0.373,0.062 -0.52,0.186 -0.153,0.123 -0.243,0.296 -0.27,0.518 -0.04,0.302 0.13,0.549 0.51,0.744 0.38,0.196 0.657,0.359 0.83,0.492 0.547,0.434 0.803,1.019 0.77,1.754 -0.02,0.381 -0.113,0.718 -0.28,1.01 -0.167,0.283 -0.397,0.505 -0.69,0.664 -0.293,0.16 -0.627,0.235 -1,0.226 -0.267,-0.009 -0.513,-0.062 -0.74,-0.159 -0.233,-0.107 -0.433,-0.262 -0.6,-0.465 -0.327,-0.408 -0.483,-0.948 -0.47,-1.622 l 1.17,0.014 c -0.013,0.336 0.037,0.594 0.15,0.77 0.107,0.169 0.293,0.253 0.56,0.253 0.193,0 0.357,-0.057 0.49,-0.173 0.133,-0.123 0.213,-0.292 0.24,-0.505 z"
         style="fill:#4c4c4c"
         bx:origin="0.5 0.5"
         id="path20" />
      <path
         inkscape:connector-curvature="0"
         d="m 210.073,119.844 h -1.44 l -0.71,5.382 h -1.17 l 0.71,-5.382 h -1.43 l 0.17,-1.235 h 4.04 z"
         style="fill:#4c4c4c"
         bx:origin="0.5 0.5"
         id="path22" />
      <path
         inkscape:connector-curvature="0"
         d="m 202.25,121.665 h 0.68 c 0.186,0 0.35,-0.057 0.49,-0.173 0.14,-0.123 0.24,-0.292 0.3,-0.505 0.06,-0.203 0.076,-0.408 0.05,-0.611 -0.047,-0.336 -0.21,-0.514 -0.49,-0.532 h -0.79 z m -0.16,1.222 -0.3,2.339 h -1.17 l 0.86,-6.617 1.76,0.013 c 0.56,0 0.993,0.173 1.3,0.518 0.3,0.355 0.433,0.833 0.4,1.435 -0.02,0.479 -0.124,0.873 -0.31,1.183 -0.18,0.319 -0.434,0.567 -0.76,0.744 l 0.67,2.644 v 0.08 h -1.25 l -0.55,-2.339 z"
         style="fill:#4c4c4c"
         bx:origin="0 0"
         id="path24" />
      <path
         inkscape:connector-curvature="0"
         d="m 197.201,123.99 -0.44,1.236 h -1.29 l 2.64,-6.617 h 1.1 l 0.92,6.617 h -1.22 l -0.12,-1.236 z m 0.44,-1.235 h 1.03 l -0.22,-2.273 z"
         style="fill:#4c4c4c"
         bx:origin="0 0"
         id="path26" />
      <path
         inkscape:connector-curvature="0"
         d="m 195.548,119.844 h -1.44 l -0.71,5.382 h -1.17 l 0.71,-5.382 h -1.43 l 0.17,-1.235 h 4.04 z"
         style="fill:#4c4c4c"
         bx:origin="0.5 0.5"
         id="path28" />
    </g>
  </g>
  <path
     inkscape:connector-curvature="0"
     id="path42"
     style="fill:#999999;fill-opacity:1;fill-rule:nonzero;stroke:#999999"
     d="m 191.79252,20.043484 c -25.403,0 -45.994,-20.559 -45.994,-45.92 0,-25.361 20.591,-45.92 45.994,-45.92 25.402,0 45.996,20.559 45.996,45.92 0,25.361 -20.594,45.92 -45.996,45.92"
     bx:origin="0.5 0.5"
     clip-path="url(#clipPath16)" />
  <path
     inkscape:connector-curvature="0"
     id="path46"
     style="fill:#cccccc;fill-opacity:1;fill-rule:nonzero;stroke:none"
     d="m 191.79352,18.623484 c -24.594,0 -44.53,-19.922 -44.53,-44.499 0,-24.577 19.936,-44.501 44.53,-44.501 24.593,0 44.53,19.924 44.53,44.501 0,24.577 -19.937,44.499 -44.53,44.499"
     bx:origin="0.5 0.5"
     clip-path="url(#clipPath16)" />
  <path
     inkscape:connector-curvature="0"
     id="path50"
     style="fill:#666666;fill-opacity:1;fill-rule:nonzero;stroke:none"
     d="m 191.70452,269.67948 c -40.332,0 -73.028,-32.697 -73.028,-73.029 0,-40.333 32.696,-73.029 73.028,-73.029 40.333,0 73.029,32.696 73.029,73.029 0,40.332 -32.696,73.029 -73.029,73.029"
     bx:origin="0.5 0.5"
     clip-path="url(#clipPath16)" />
  <path
     inkscape:connector-curvature="0"
     id="path70"
     style="fill:#4c4c4c;fill-opacity:1;fill-rule:nonzero;stroke:none"
     d="m 203.31952,6.107484 v -20.459 h 20.458 c 0.873,0 1.589,-0.715 1.589,-1.59 v -19.871 c 0,-0.875 -0.716,-1.59 -1.589,-1.59 h -20.458 v -20.459 c 0,-0.873 -0.716,-1.588 -1.59,-1.588 h -19.872 c -0.873,0 -1.589,0.715 -1.589,1.588 v 20.459 h -20.459 c -0.874,0 -1.589,0.715 -1.589,1.59 v 19.871 c 0,0.875 0.715,1.59 1.589,1.59 h 20.459 v 20.459 c 0,0.874 0.716,1.589 1.589,1.589 h 19.872 c 0.874,0 1.59,-0.715 1.59,-1.589"
     bx:origin="0.5 0.5"
     clip-path="url(#clipPath16)" />
  <path
     inkscape:connector-curvature="0"
     id="path90"
     style="fill:#666666;fill-opacity:1;fill-rule:nonzero;stroke:none"
     d="m 193.87852,-54.660516 c -1.146,-2.022 -3.023,-2.022 -4.17,0 l -4.442,7.834 c -1.148,2.022 -0.612,3.676 1.19,3.676 h 10.674 c 1.802,0 2.336,-1.654 1.191,-3.676 l -4.443,-7.834 c -1.146,-2.022 -3.023,-2.022 -4.17,0 l -4.442,7.834 c -1.148,2.022 -0.612,3.676 1.19,3.676 h 10.674 c 1.802,0 2.336,-1.654 1.191,-3.676 z"
     bx:origin="0.5 0.5"
     clip-path="url(#clipPath16)" />
  <path
     inkscape:connector-curvature="0"
     id="path94"
     style="fill:#666666;fill-opacity:1;fill-rule:nonzero;stroke:none"
     d="m 193.87852,2.808484 c -1.146,2.023 -3.023,2.023 -4.17,0 l -4.442,-7.834 c -1.148,-2.022 -0.612,-3.676 1.19,-3.676 h 10.674 c 1.802,0 2.336,1.654 1.191,3.676 l -4.443,7.834 c -1.146,2.023 -3.023,2.023 -4.17,0 l -4.442,-7.834 c -1.148,-2.022 -0.612,-3.676 1.19,-3.676 h 10.674 c 1.802,0 2.336,1.654 1.191,3.676 z"
     bx:origin="0.5 0.5"
     clip-path="url(#clipPath16)" />
  <path
     inkscape:connector-curvature="0"
     id="path98"
     style="fill:#666666;fill-opacity:1;fill-rule:nonzero;stroke:none"
     d="m 220.45352,-23.792516 c 2.022,-1.147 2.022,-3.024 0,-4.17 l -7.834,-4.442 c -2.022,-1.147 -3.676,-0.611 -3.676,1.19 v 10.674 c 0,1.802 1.654,2.336 3.676,1.191 l 7.834,-4.443 c 2.022,-1.147 2.022,-3.024 0,-4.17 l -7.834,-4.442 c -2.022,-1.147 -3.676,-0.611 -3.676,1.19 v 10.674 c 0,1.802 1.654,2.336 3.676,1.191 z"
     bx:origin="0.5 0.5"
     clip-path="url(#clipPath16)" />
  <path
     inkscape:connector-curvature="0"
     id="path102"
     style="fill:#666666;fill-opacity:1;fill-rule:nonzero;stroke:none"
     d="m 162.98452,-23.841516 c -2.023,-1.146 -2.023,-3.023 0,-4.17 l 7.833,-4.442 c 2.023,-1.146 3.677,-0.611 3.677,1.19 v 10.675 c 0,1.801 -1.654,2.336 -3.677,1.19 l -7.833,-4.443 c -2.023,-1.146 -2.023,-3.023 0,-4.17 l 7.833,-4.442 c 2.023,-1.146 3.677,-0.611 3.677,1.19 v 10.675 c 0,1.801 -1.654,2.336 -3.677,1.19 z"
     bx:origin="0.5 0.5"
     clip-path="url(#clipPath16)" />
  <path
     inkscape:connector-curvature="0"
     id="path-4"
     style="fill:#666666;fill-opacity:1;fill-rule:nonzero;stroke:none"
     d="M 181.98994,61.222072 169.09797,44.776558 c -4.47789,-5.684717 3.62844,-12.78427 8.46943,-6.638819 l 12.89295,16.444496 c 4.52226,5.876973 -3.8847,12.599715 -8.47041,6.639837"
     bx:origin="0.5 0.5"
     clip-path="url(#clipPath16)" />
  <path
     inkscape:connector-curvature="0"
     id="path-2"
     style="fill:#666666;fill-opacity:1;fill-rule:nonzero;stroke:none"
     d="M 181.98993,102.56008 169.09796,86.114566 c -4.47789,-5.684717 3.62844,-12.78427 8.46943,-6.638819 l 12.89295,16.444496 c 4.52225,5.876977 -3.8847,12.599717 -8.47041,6.639837"
     bx:origin="0.5 0.5"
     clip-path="url(#clipPath16)" />
  <path
     inkscape:connector-curvature="0"
     d="m 244.49752,221.71948 0.03,-2.686 -4.034,3.388 -4.395,-3.613 0.017,2.527 2.836,2.382 -2.836,2.381 -0.017,2.527 4.395,-3.613 4.034,3.388 -0.03,-2.686 -2.429,-1.997 z"
     style="fill:#d8d8d8"
     bx:origin="0 0"
     id="path44" />
  <path
     inkscape:connector-curvature="0"
     d="m 214.69652,254.78748 -0.011,1.254 0.011,1.253 -8.311,3.797 -0.011,-2.041 2.085,-0.948 0.024,-4.112 -2.109,-0.959 0.011,-2.041 z m -4.541,2.545 2.841,-1.291 -2.796,-1.271 z"
     style="fill:#d8d8d8"
     bx:origin="0 0"
     id="path47" />
  <path
     inkscape:connector-curvature="0"
     d="m 174.14852,136.23948 0.002,-2.27 -4.674,3.762 h -3.836 v 1.984 h 3.858 l 4.652,3.744 -0.003,-2.27 -3.095,-2.475 z"
     style="fill:#d8d8d8"
     bx:origin="0 0"
     id="path49" />
  <path
     inkscape:connector-curvature="0"
     d="m 145.07052,167.72748 v 0.84 h 0.002 v 4.585 h 0.002 c -0.001,0.014 -0.001,0.028 -0.002,0.042 v 0.069 h -0.004 c -0.228,3.457 -3.921,3.68 -4.087,0.241 -0.16,4.193 -4.315,3.909 -4.488,-0.241 h -10e-4 v -0.018 c -0.001,-0.032 -0.002,-0.064 -0.003,-0.096 h 0.003 v -5.422 z m -6.996,5.507 c 0.221,1.32 1.718,1.404 1.99,0.029 h -0.002 v -3.331 h -1.988 z m 3.57,-0.032 c 0.539,1.425 1.707,0.82 1.848,0.061 h -0.002 v -3.331 h -1.846 z"
     style="fill:#cccccc"
     bx:origin="0 0"
     id="path51" />
  <path
     inkscape:connector-curvature="0"
     id="circle35"
     d="m 206.07152,159.95648 c 0,-8.331 -6.771,-15.101 -15.102,-15.101 -8.331,0 -15.102,6.77 -15.102,15.101 0,8.332 6.771,15.102 15.102,15.102 8.331,0 15.102,-6.77 15.102,-15.102 z m -1.276,0 c 0,7.642 -6.185,13.826 -13.826,13.826 -7.641,0 -13.825,-6.184 -13.825,-13.826 0,-7.64 6.184,-13.824 13.825,-13.824 7.641,0 13.826,6.184 13.826,13.824 z"
     style="fill:#f4f4f4"
     bx:origin="0.5 0.5" />
  <path
     inkscape:connector-curvature="0"
     id="circle37"
     d="m 234.63852,196.62548 c 0,-8.331 -6.77,-15.082 -15.102,-15.082 -8.33,0 -15.101,6.751 -15.101,15.082 0,8.331 6.771,15.102 15.101,15.102 8.332,0 15.102,-6.771 15.102,-15.102 z m -1.277,0 c 0,7.641 -6.184,13.825 -13.824,13.825 -7.641,0 -13.825,-6.184 -13.825,-13.825 0,-7.64 6.184,-13.805 13.825,-13.805 7.64,0 13.824,6.164 13.824,13.805 z"
     style="fill:#f4f4f4"
     bx:origin="0.5 0.5" />
  <path
     inkscape:connector-curvature="0"
     id="circle41"
     d="m 178.18152,197.83748 c 0,-8.33 -6.771,-15.101 -15.103,-15.101 -8.331,0 -15.082,6.771 -15.082,15.101 0,8.333 6.751,15.082 15.082,15.082 8.331,0 15.103,-6.749 15.103,-15.082 z m -1.278,0 c 0,7.643 -6.184,13.805 -13.825,13.805 -7.641,0 -13.804,-6.162 -13.804,-13.805 0,-7.64 6.163,-13.824 13.804,-13.824 7.641,0 13.825,6.184 13.825,13.824 z"
     style="fill:#f4f4f4"
     bx:origin="0.5 0.5" />
  <path
     inkscape:connector-curvature="0"
     id="circle43"
     d="m 206.74752,234.50748 c 0,-8.331 -6.771,-15.103 -15.101,-15.103 -8.331,0 -15.101,6.772 -15.101,15.103 0,8.332 6.77,15.102 15.101,15.102 8.33,0 15.101,-6.772 15.101,-15.102 z m -1.276,0 c 0,7.64 -6.184,13.824 -13.824,13.824 -7.642,0 -13.825,-6.184 -13.825,-13.824 0,-7.64 6.184,-13.824 13.825,-13.824 7.64,0 13.824,6.184 13.824,13.824 z"
     style="fill:#f4f4f4"
     bx:origin="0.5 0.5" />
  <path
     inkscape:connector-curvature="0"
     d="m 202.61352,248.41648 c -7.753,6.039 -18.918,4.662 -24.958,-3.092 l -28.567,-36.667 c -6.039,-7.754 -4.641,-18.919 3.112,-24.957 7.754,-6.038 18.918,-4.661 24.957,3.093 l 28.548,36.687 c 2.266,2.906 3.5,6.279 3.731,9.697 0.386,5.692 -1.976,11.466 -6.823,15.239 z"
     style="fill:#d8d8d8"
     bx:origin="0 0"
     id="path57" />
  <path
     inkscape:connector-curvature="0"
     id="path-5"
     d="m 206.73852,234.50648 c 0,8.342 -6.751,15.093 -15.094,15.093 -8.34,0 -15.09,-6.751 -15.09,-15.093 0,-8.341 6.75,-15.092 15.09,-15.092 8.343,0 15.094,6.751 15.094,15.092 z"
     style="fill:#ba2318;fill-opacity:1"
     bx:origin="0.5 0.5" />
  <path
     inkscape:connector-curvature="0"
     d="m 230.41952,210.66348 c -7.753,6.039 -18.918,4.662 -24.957,-3.093 l -28.567,-36.666 c -6.039,-7.754 -4.642,-18.919 3.112,-24.958 7.754,-6.038 18.918,-4.66 24.956,3.094 l 28.548,36.687 c 2.266,2.906 3.5,6.278 3.732,9.696 0.386,5.693 -1.977,11.467 -6.824,15.24 z"
     style="fill:#d8d8d8"
     bx:origin="0 0"
     id="path60" />
  <path
     inkscape:connector-curvature="0"
     id="path-6"
     d="m 234.62952,196.63648 c 0,8.341 -6.751,15.092 -15.094,15.092 -8.341,0 -15.091,-6.751 -15.091,-15.092 0,-8.341 6.75,-15.093 15.091,-15.093 8.343,0 15.094,6.752 15.094,15.093 z"
     style="fill:#0a2a8d;fill-opacity:1"
     bx:origin="0.5 0.5" />
  <path
     inkscape:connector-curvature="0"
     id="path-1"
     d="m 178.18052,197.82748 c 0,8.342 -6.751,15.093 -15.093,15.093 -8.341,0 -15.09,-6.751 -15.09,-15.093 0,-8.341 6.749,-15.092 15.09,-15.092 8.342,0 15.093,6.751 15.093,15.092 z"
     style="fill:#fed01b;fill-opacity:1"
     bx:origin="0.5 0.5" />
  <path
     inkscape:connector-curvature="0"
     id="path-10"
     d="m 206.06152,159.95648 c 0,8.342 -6.751,15.093 -15.093,15.093 -8.341,0 -15.091,-6.751 -15.091,-15.093 0,-8.341 6.75,-15.092 15.091,-15.092 8.342,0 15.093,6.751 15.093,15.092 z"
     style="fill:#007544;fill-opacity:1"
     bx:origin="0.5 0.5" />
  <path
     inkscape:connector-curvature="0"
     id="path-18"
     style="fill:#666666;fill-opacity:0.5;fill-rule:nonzero;stroke:none"
     d="m 191.79352,-17.511516 c -4.621,0 -8.365,-3.745 -8.365,-8.366 0,-4.619 3.744,-8.364 8.365,-8.364 4.619,0 8.365,3.745 8.365,8.364 0,4.621 -3.746,8.366 -8.365,8.366"
     bx:origin="0.5 0.5"
     clip-path="url(#clipPath16)" />
  <g
     id="g104"
     transform="matrix(0,1.605718,1.605718,0,247.024,8.948978)">
    <path
       d="m 0,0 c 0,-0.841 -1.525,-1.523 -3.407,-1.523 -1.882,0 -3.408,0.682 -3.408,1.523 0,0.841 1.526,1.523 3.408,1.523 C -1.525,1.523 0,0.841 0,0"
       style="fill:#4c4c4c;fill-opacity:1;fill-rule:nonzero;stroke:none"
       id="path106"
       inkscape:connector-curvature="0" />
  </g>
  <g
     id="g108"
     transform="matrix(0,1.605718,1.605718,0,242.97246,18.743218)">
    <path
       d="m 0,0 c 0,-0.841 -1.525,-1.523 -3.407,-1.523 -1.882,0 -3.408,0.682 -3.408,1.523 0,0.841 1.526,1.523 3.408,1.523 C -1.525,1.523 0,0.841 0,0"
       style="fill:#4c4c4c;fill-opacity:1;fill-rule:nonzero;stroke:none"
       id="path110"
       inkscape:connector-curvature="0" />
  </g>
  <g
     id="g112"
     transform="matrix(0,1.605718,1.605718,0,245.57768,19.401738)">
    <path
       d="M 0,0 C -0.41,1.706 -1.897,3.592 -3.817,2.772 -2.254,6.378 0.697,5.805 1.721,4.575 2.519,3.618 2.5,0.343 0,0"
       style="fill:#4c4c4c;fill-opacity:1;fill-rule:nonzero;stroke:none"
       id="path114"
       inkscape:connector-curvature="0" />
  </g>
  <g
     id="g116"
     transform="matrix(0,1.605718,1.605718,0,250.00723,9.759228)">
    <path
       d="M 0,0 C -0.41,1.706 -1.897,3.591 -3.817,2.772 -2.254,6.378 0.697,5.805 1.721,4.575 2.519,3.618 2.5,0.343 0,0"
       style="fill:#4c4c4c;fill-opacity:1;fill-rule:nonzero;stroke:none"
       id="path118"
       inkscape:connector-curvature="0" />
  </g>
  <g
     id="g5021"
     transform="matrix(0,0.85554732,-0.85554732,0,590.97991,-20.239347)">
    <g
       style="fill:#4c4c4c;fill-opacity:1"
       transform="matrix(0.24632195,0,0,0.24632195,56.776876,387.60389)"
       id="g4865">
      <path
         style="fill:#4c4c4c;fill-opacity:1"
         inkscape:connector-curvature="0"
         id="path2"
         d="M 44.922,42.076 V 0 H 32.266 V 29.421 L 13.603,0 H 0 V 42.076 H 12.655 V 11.707 l 19.61,30.369 z" />
      <path
         style="fill:#4c4c4c;fill-opacity:1"
         inkscape:connector-curvature="0"
         id="path4"
         d="M 65.486,42.076 V 13.604 H 52.832 v 28.473 z" />
      <path
         style="fill:#4c4c4c;fill-opacity:1"
         inkscape:connector-curvature="0"
         id="path6"
         d="M 65.486,7.594 V 0 H 52.832 v 7.594 z" />
      <path
         style="fill:#4c4c4c;fill-opacity:1"
         inkscape:connector-curvature="0"
         id="path8-6"
         d="M 109.777,42.076 V 22.464 c 0,-4.114 -7.908,-9.808 -12.021,-9.808 h -3.797 c -2.846,0 -6.01,2.529 -8.857,3.795 V 13.604 H 72.447 V 42.077 H 85.101 V 22.464 c 0,-1.899 4.43,-4.114 6.329,-4.114 1.897,0 5.377,2.214 5.377,4.114 v 19.613 z" />
      <g
         style="fill:#4c4c4c;fill-opacity:1"
         id="_x33_162_1_">
        <path
           style="fill:#4c4c4c;fill-opacity:1"
           inkscape:connector-curvature="0"
           id="path10-7"
           d="M 214.811,42.077 V 22.463 c 0,-4.111 -7.908,-9.807 -12.025,-9.807 h -3.795 c -2.847,0 -6.009,2.53 -8.858,3.795 v -2.847 h -12.654 v 28.473 h 12.654 V 22.463 c 0,-1.897 4.432,-4.111 6.325,-4.111 1.896,0 5.381,2.214 5.381,4.111 v 19.614 z" />
      </g>
      <path
         style="fill:#4c4c4c;fill-opacity:1"
         inkscape:connector-curvature="0"
         id="path13"
         d="M 130.338,42.076 V 13.604 h 6.646 V 9.807 h -6.646 v -6.01 h -12.967 v 6.01 h -6.646 v 3.797 h 6.646 v 28.473 z" />
      <path
         style="fill:#4c4c4c;fill-opacity:1"
         inkscape:connector-curvature="0"
         id="path15"
         d="m 154.7,12.655 c -10.122,0 -18.663,6.959 -18.663,15.5 0,8.86 8.542,15.818 18.663,15.818 8.857,0 16.135,-5.062 18.033,-11.703 h -12.971 v 3.795 c 0,3.163 -2.213,4.112 -5.063,4.112 -2.849,0 -4.744,-0.949 -4.744,-4.112 v -7.909 h 23.412 C 173.368,19.615 165.139,12.655 154.7,12.655 Z m 0,2.848 c 2.85,0 5.063,1.898 5.063,5.062 v 2.848 h -9.807 v -2.849 c -10e-4,-3.163 1.895,-5.061 4.744,-5.061 z" />
      <path
         style="fill:#4c4c4c;fill-opacity:1"
         inkscape:connector-curvature="0"
         id="path17"
         d="m 279.349,12.655 c -10.442,0 -18.666,6.959 -18.666,15.5 0,8.86 8.224,15.818 18.666,15.818 10.118,0 18.663,-6.958 18.663,-15.818 0,-8.54 -8.545,-15.5 -18.663,-15.5 z m 0,2.848 c 2.846,0 4.746,1.898 4.746,5.062 v 15.503 c 0,3.163 -1.9,4.112 -4.746,4.112 -3.164,0 -5.063,-0.949 -5.063,-4.112 V 20.563 c 10e-4,-3.162 1.899,-5.06 5.063,-5.06 z" />
      <path
         style="fill:#4c4c4c;fill-opacity:1"
         inkscape:connector-curvature="0"
         id="path19"
         d="m 242.968,0 v 15.502 c 0,0 -3.801,-2.847 -8.861,-2.847 -7.909,0 -14.553,6.959 -14.553,14.551 0,7.91 6.644,15.819 14.553,15.819 5.062,0 8.861,-1.898 8.861,-1.898 v 0.949 h 12.651 V 0 Z m -4.749,17.401 c 2.848,0 4.749,2.214 4.749,5.063 v 11.705 c 0,2.849 -1.901,3.795 -4.749,3.795 -3.164,0 -5.063,-0.947 -5.063,-3.795 V 22.464 c 0.002,-2.849 1.899,-5.063 5.063,-5.063 z" />
    </g>
    <g
       style="fill:#4c4c4c;fill-opacity:1"
       id="g4879"
       transform="matrix(0.32630613,0,0,0.32630613,79.416228,495.22998)">
      <path
         d="m -68.754017,-262.21143 v -4.65321 h 14.805677 q 2.475446,0 2.475446,-2.1621 0,-2.11509 -2.475446,-2.11509 h -7.410672 q -3.901179,0 -5.969273,-1.73908 -2.052427,-1.75475 -2.052427,-5.02923 0,-3.27449 2.021092,-5.01357 2.03676,-1.75474 5.781264,-1.75474 h 16.654428 v 4.70021 h -14.743007 q -2.538116,0 -2.538116,2.0681 0,2.11509 2.538116,2.11509 h 7.567346 q 3.807174,0 5.796931,1.75475 2.005425,1.73908 2.005425,5.01356 0,3.32149 -2.005425,5.07623 -1.989757,1.73908 -5.796931,1.73908 z"
         style="font-style:normal;font-variant:normal;font-weight:normal;font-stretch:normal;font-size:32.08679962px;line-height:1.25;font-family:'Super FamiFont';-inkscape-font-specification:'Super FamiFont';fill:#4c4c4c;fill-opacity:1;stroke:none;stroke-width:0.80216902"
         id="path865"
         inkscape:connector-curvature="0" />
      <path
         d="m -32.151335,-262.21143 q -4.574876,0 -7.175661,-2.2091 -2.600786,-2.2091 -2.600786,-7.09732 v -13.1606 h 7.175661 v 13.2076 q 0,2.35011 1.206389,3.38416 1.206388,1.03404 3.149144,1.03404 h 6.047609 v -17.6258 h 7.175662 v 22.46702 z"
         style="font-style:normal;font-variant:normal;font-weight:normal;font-stretch:normal;font-size:32.08679962px;line-height:1.25;font-family:'Super FamiFont';-inkscape-font-specification:'Super FamiFont';fill:#4c4c4c;fill-opacity:1;stroke:none;stroke-width:0.80216902"
         id="path867"
         inkscape:connector-curvature="0" />
      <path
         d="m -13.272138,-262.21143 v -22.46702 H 1.5335383 q 5.0292298,0 7.3793372,2.00542 2.3657745,1.98976 2.3657745,5.45225 0,3.41549 -2.3344398,5.42092 -2.33444,1.98975 -7.4106719,1.98975 h -7.6300154 v 7.59868 z m 16.9991098,-14.99368 q 0,-2.82013 -3.46249153,-2.82013 H -6.0964771 v 5.60892 h 6.36095737 q 3.46249153,0 3.46249153,-2.78879 z"
         style="font-style:normal;font-variant:normal;font-weight:normal;font-stretch:normal;font-size:32.08679962px;line-height:1.25;font-family:'Super FamiFont';-inkscape-font-specification:'Super FamiFont';fill:#4c4c4c;fill-opacity:1;stroke:none;stroke-width:0.80216902"
         id="path869"
         inkscape:connector-curvature="0" />
      <path
         d="m 37.331657,-280.02524 h -9.259423 q -3.368487,0 -4.872556,1.03405 -1.488401,1.03404 -1.754747,3.10214 h 15.886726 v 4.60621 H 21.444931 q 0.109672,2.02109 1.598073,3.19615 1.504069,1.17505 5.02923,1.17505 h 9.259423 v 4.70021 H 27.163526 q -6.470629,0 -9.76078,-2.82012 -3.274483,-2.8358 -3.274483,-8.41339 0,-5.57759 3.274483,-8.39772 3.290151,-2.83579 9.76078,-2.83579 h 10.168131 z"
         style="font-style:normal;font-variant:normal;font-weight:normal;font-stretch:normal;font-size:32.08679962px;line-height:1.25;font-family:'Super FamiFont';-inkscape-font-specification:'Super FamiFont';fill:#4c4c4c;fill-opacity:1;stroke:none;stroke-width:0.80216902"
         id="path871"
         inkscape:connector-curvature="0" />
      <path
         sodipodi:nodetypes="ssccsscccccscsccccc"
         d="m 58.417184,-277.93096 c 0,-2.05764 -1.154164,-2.09428 -3.462491,-2.09428 h -7.301001 v 5.24343 h 7.301001 c 2.308327,0 3.462491,-1.04971 3.462491,-3.14915 z m -4.271563,7.75536 h -6.491929 v 7.96417 h -7.175661 v -22.46702 h 16.215741 c 3.143921,0 5.473139,0.7207 6.987653,2.1621 1.524959,1.43095 2.287438,2.29274 2.287438,4.56973 0,2.30833 -0.752035,4.17797 -2.256104,5.60892 -0.762479,0.73115 -1.733856,1.27429 -2.914133,1.62941 l 6.182513,8.49686 h -7.468444 z"
         style="font-style:normal;font-variant:normal;font-weight:normal;font-stretch:normal;font-size:32.08679962px;line-height:1.25;font-family:'Super FamiFont';-inkscape-font-specification:'Super FamiFont';fill:#4c4c4c;fill-opacity:1;stroke:none;stroke-width:0.80216902"
         id="path873"
         inkscape:connector-curvature="0" />
      <path
         d="m 80.596693,-273.44494 q 0,-5.57759 3.274483,-8.39772 3.29015,-2.83579 9.760779,-2.83579 h 10.168135 v 4.65321 h -9.259427 q -3.368487,0 -4.872556,1.03405 -1.488401,1.03404 -1.754747,3.10214 h 15.88673 v 4.60621 H 87.772354 v 9.07141 h -7.175661 z"
         style="font-style:normal;font-variant:normal;font-weight:normal;font-stretch:normal;font-size:32.08679962px;line-height:1.25;font-family:'Super FamiFont';-inkscape-font-specification:'Super FamiFont';fill:#4c4c4c;fill-opacity:1;stroke:none;stroke-width:0.80216902"
         id="path875"
         inkscape:connector-curvature="0" />
      <path
         d="m 113.99402,-262.21143 q -3.96385,0 -6.11028,-1.83308 -2.14643,-1.84875 -2.14643,-5.10757 0,-3.24314 2.14643,-5.07623 2.14643,-1.84875 6.11028,-1.84875 h 9.96445 v -0.8147 q 0,-1.70775 -0.8147,-2.39711 -0.79904,-0.68937 -2.77313,-0.68937 h -12.92559 v -4.70021 h 13.19194 q 5.56192,0 8.0217,2.11509 2.47544,2.1151 2.47544,6.90932 v 13.44261 z m 9.96445,-9.25942 h -8.03737 q -2.89846,0 -2.89846,2.31877 0,2.33444 2.89846,2.33444 h 8.03737 z"
         style="font-style:normal;font-variant:normal;font-weight:normal;font-stretch:normal;font-size:32.08679962px;line-height:1.25;font-family:'Super FamiFont';-inkscape-font-specification:'Super FamiFont';fill:#4c4c4c;fill-opacity:1;stroke:none;stroke-width:0.80216902"
         id="path877"
         inkscape:connector-curvature="0" />
      <path
         d="m 161.7012,-262.21143 v -13.44261 q 0,-2.2561 -1.12805,-3.21181 -1.12805,-0.97138 -3.74451,-0.97138 h -1.4884 v 17.6258 h -7.17566 v -17.6258 h -6.04761 v 17.6258 h -7.17566 v -22.46702 h 23.10939 q 5.67159,0 8.24104,2.2091 2.56945,2.2091 2.56945,7.09732 v 13.1606 z"
         style="font-style:normal;font-variant:normal;font-weight:normal;font-stretch:normal;font-size:32.08679962px;line-height:1.25;font-family:'Super FamiFont';-inkscape-font-specification:'Super FamiFont';fill:#4c4c4c;fill-opacity:1;stroke:none;stroke-width:0.80216902"
         id="path879"
         inkscape:connector-curvature="0" />
      <path
         d="m 178.15353,-284.67845 v 22.46702 h -7.17566 v -22.46702 z"
         style="font-style:normal;font-variant:normal;font-weight:normal;font-stretch:normal;font-size:32.08679962px;line-height:1.25;font-family:'Super FamiFont';-inkscape-font-specification:'Super FamiFont';fill:#4c4c4c;fill-opacity:1;stroke:none;stroke-width:0.80216902"
         id="path881"
         inkscape:connector-curvature="0" />
      <path
         d="m 204.67773,-279.93124 h -8.60139 q -3.91684,0 -5.67159,1.51974 -1.75475,1.51974 -1.75475,4.96656 0,3.44683 1.72341,4.96656 1.72342,1.51974 5.65593,1.51974 h 8.64839 v 4.74721 h -10.43447 q -6.32962,0 -9.54144,-2.82012 -3.21181,-2.8358 -3.21181,-8.41339 0,-5.56192 3.21181,-8.39772 3.21182,-2.83579 9.54144,-2.83579 h 10.43447 z"
         style="font-style:normal;font-variant:normal;font-weight:normal;font-stretch:normal;font-size:32.08679962px;line-height:1.25;font-family:'Super FamiFont';-inkscape-font-specification:'Super FamiFont';fill:#4c4c4c;fill-opacity:1;stroke:none;stroke-width:0.80216902"
         id="path883"
         inkscape:connector-curvature="0" />
      <path
         d="m 234.31301,-273.11085 q 0,2.91413 -0.97138,5.0449 -0.97137,2.11509 -2.80446,3.49382 -1.81741,1.36307 -4.43387,2.03676 -2.60078,0.65803 -5.92227,0.65803 -3.32148,0 -5.93794,-0.65803 -2.60078,-0.67369 -4.4182,-2.03676 -1.81741,-1.37873 -2.80446,-3.49382 -0.97138,-2.13077 -0.97138,-5.0449 0,-2.91413 0.97138,-5.02923 0.98705,-2.13076 2.80446,-3.49383 1.81742,-1.37872 4.4182,-2.03676 2.61646,-0.67369 5.93794,-0.67369 3.32149,0 5.92227,0.67369 2.61646,0.65804 4.43387,2.03676 1.83309,1.36307 2.80446,3.49383 0.97138,2.1151 0.97138,5.02923 z m -14.13198,6.4863 q 6.95632,0 6.95632,-6.4863 0,-6.4863 -6.95632,-6.4863 -6.95632,0 -6.95632,6.4863 0,6.4863 6.95632,6.4863 z"
         style="font-style:normal;font-variant:normal;font-weight:normal;font-stretch:normal;font-size:32.08679962px;line-height:1.25;font-family:'Super FamiFont';-inkscape-font-specification:'Super FamiFont';fill:#4c4c4c;fill-opacity:1;stroke:none;stroke-width:0.80216902"
         id="path885"
         inkscape:connector-curvature="0" />
      <path
         d="m 264.1179,-262.21143 v -13.44261 q 0,-2.2561 -1.12805,-3.21181 -1.12805,-0.97138 -3.7445,-0.97138 h -1.4884 v 17.6258 h -7.17567 v -17.6258 h -6.04761 v 17.6258 h -7.17566 v -22.46702 h 23.10939 q 5.6716,0 8.24105,2.2091 2.56945,2.2091 2.56945,7.09732 v 13.1606 z"
         style="font-style:normal;font-variant:normal;font-weight:normal;font-stretch:normal;font-size:32.08679962px;line-height:1.25;font-family:'Super FamiFont';-inkscape-font-specification:'Super FamiFont';fill:#4c4c4c;fill-opacity:1;stroke:none;stroke-width:0.80216902"
         id="path887"
         inkscape:connector-curvature="0" />
    </g>
  </g>
</svg>
