<?xml version="1.0" encoding="UTF-8" standalone="no"?>
<svg
   width="194"
   height="346"
   version="1.1"
   viewBox="0 0 194 346"
   id="svg2"
   sodipodi:docname="controller.svg"
   inkscape:version="1.1.2 (0a00cf5339, 2022-02-04)"
   xmlns:inkscape="http://www.inkscape.org/namespaces/inkscape"
   xmlns:sodipodi="http://sodipodi.sourceforge.net/DTD/sodipodi-0.dtd"
   xmlns:xlink="http://www.w3.org/1999/xlink"
   xmlns="http://www.w3.org/2000/svg"
   xmlns:svg="http://www.w3.org/2000/svg"
   xmlns:rdf="http://www.w3.org/1999/02/22-rdf-syntax-ns#"
   xmlns:cc="http://creativecommons.org/ns#"
   xmlns:dc="http://purl.org/dc/elements/1.1/">
  <metadata
     id="metadata8">
    <rdf:RDF>
      <cc:Work
         rdf:about="">
        <dc:format>image/svg+xml</dc:format>
        <dc:type
           rdf:resource="http://purl.org/dc/dcmitype/StillImage" />
      </cc:Work>
    </rdf:RDF>
  </metadata>
  <defs
     id="defs6">
    <radialGradient
       cx="0"
       cy="0"
       r="1"
       fx="0"
       fy="0"
       id="radialGradient1723"
       gradientUnits="userSpaceOnUse"
       gradientTransform="matrix(-59.413574,-151.80127,-183.85619,71.964798,430.58789,518.58398)"
       spreadMethod="pad">
      <stop
         id="stop1715"
         style="stop-color:#242424;stop-opacity:1"
         offset="0" />
      <stop
         id="stop1721"
         style="stop-color:#141414;stop-opacity:1"
         offset="1" />
    </radialGradient>
    <radialGradient
       cx="0"
       cy="0"
       r="1"
       fx="0"
       fy="0"
       id="radialGradient157720"
       gradientUnits="userSpaceOnUse"
       gradientTransform="matrix(-59.413574,-151.80127,-183.85619,71.964798,430.58789,518.58398)"
       spreadMethod="pad">
      <stop
         id="stop157712"
         style="stop-color:#1f1f1f;stop-opacity:1"
         offset="0" />
      <stop
         id="stop157718"
         style="stop-color:#3b3b3b;stop-opacity:1"
         offset="1" />
    </radialGradient>
    <radialGradient
       cx="0"
       cy="0"
       r="1"
       fx="0"
       fy="0"
       id="radialGradient156310"
       gradientUnits="userSpaceOnUse"
       gradientTransform="matrix(-59.413574,-151.80127,-183.85619,71.964798,430.58789,518.58398)"
       spreadMethod="pad">
      <stop
         id="stop156302"
         style="stop-color:#404040;stop-opacity:1"
         offset="0" />
      <stop
         id="stop156308"
         style="stop-color:#242424;stop-opacity:1"
         offset="1" />
    </radialGradient>
    <radialGradient
       cx="0"
       cy="0"
       r="1"
       fx="0"
       fy="0"
       id="radialGradient143066"
       gradientUnits="userSpaceOnUse"
       gradientTransform="matrix(-59.413574,-151.80127,-183.85619,71.964798,430.58789,518.58398)"
       spreadMethod="pad">
      <stop
         id="stop143058"
         style="stop-color:#171717;stop-opacity:1"
         offset="0" />
      <stop
         id="stop143064"
         style="stop-color:#3b3b3b;stop-opacity:1"
         offset="1" />
    </radialGradient>
    <radialGradient
       cx="0"
       cy="0"
       r="1"
       fx="0"
       fy="0"
       id="radialGradient142062"
       gradientUnits="userSpaceOnUse"
       gradientTransform="matrix(-59.413574,-151.80127,-183.85619,71.964798,430.58789,518.58398)"
       spreadMethod="pad">
      <stop
         id="stop142054"
         style="stop-color:#363636;stop-opacity:1"
         offset="0" />
      <stop
         id="stop142060"
         style="stop-color:#1c1c1c;stop-opacity:1"
         offset="1" />
    </radialGradient>
    <radialGradient
       cx="0"
       cy="0"
       r="1"
       fx="0"
       fy="0"
       id="radialGradient132393"
       gradientUnits="userSpaceOnUse"
       gradientTransform="matrix(-59.413574,-151.80127,-183.85619,71.964798,430.58789,518.58398)"
       spreadMethod="pad">
      <stop
         id="stop132385"
         style="stop-color:#3e3e3e;stop-opacity:1"
         offset="0" />
      <stop
         id="stop132391"
         style="stop-color:#000000;stop-opacity:1"
         offset="1" />
    </radialGradient>
    <radialGradient
       cx="0"
       cy="0"
       r="1"
       fx="0"
       fy="0"
       id="radialGradient121389"
       gradientUnits="userSpaceOnUse"
       gradientTransform="matrix(-59.413574,-151.80127,-183.85619,71.964798,430.58789,518.58398)"
       spreadMethod="pad">
      <stop
         id="stop121381"
         style="stop-color:#242424;stop-opacity:1"
         offset="0" />
      <stop
         id="stop121383"
         style="stop-color:#000000;stop-opacity:1"
         offset="0.95506299" />
    </radialGradient>
    <radialGradient
       cx="0"
       cy="0"
       r="1"
       fx="0"
       fy="0"
       id="radialGradient96648"
       gradientUnits="userSpaceOnUse"
       gradientTransform="matrix(-59.413574,-151.80127,-183.85619,71.964798,430.58789,518.58398)"
       spreadMethod="pad">
      <stop
         id="stop96640"
         style="stop-color:#171717;stop-opacity:1"
         offset="0" />
      <stop
         id="stop96646"
         style="stop-color:#454545;stop-opacity:1"
         offset="1" />
    </radialGradient>
    <inkscape:path-effect
       effect="bspline"
       id="path-effect14317"
       is_visible="true"
       lpeversion="1"
       weight="33.333333"
       steps="2"
       helper_size="0"
       apply_no_weight="true"
       apply_with_weight="true"
       only_selected="false" />
    <inkscape:path-effect
       effect="bspline"
       id="path-effect2411"
       is_visible="true"
       lpeversion="1"
       weight="33.333333"
       steps="2"
       helper_size="0"
       apply_no_weight="true"
       apply_with_weight="true"
       only_selected="false" />
    <clipPath
       id="clipPath5332">
      <path
         d="M 242.805,695.386 H 579.33 V 553.03 H 242.805 Z"
         id="path5334"
         inkscape:connector-curvature="0" />
    </clipPath>
    <radialGradient
       cx="0"
       cy="0"
       r="1"
       fx="0"
       fy="0"
       id="radialGradient6072"
       xlink:href="#radialGradient5340"
       gradientUnits="userSpaceOnUse"
       gradientTransform="matrix(207.42525,-21.509659,-19.788208,-190.87936,415.48047,501.28809)"
       spreadMethod="pad" />
    <radialGradient
       cx="0"
       cy="0"
       r="1"
       fx="0"
       fy="0"
       id="radialGradient5340"
       gradientUnits="userSpaceOnUse"
       gradientTransform="matrix(207.42525,-21.509659,-19.788208,-190.87936,415.48047,501.28809)"
       spreadMethod="pad">
      <stop
         id="stop5342"
         style="stop-color:#ffffff;stop-opacity:1"
         offset="0" />
      <stop
         id="stop5344"
         style="stop-color:#000000;stop-opacity:1"
         offset="0.95506299" />
      <stop
         id="stop5346"
         style="stop-color:#000000;stop-opacity:1"
         offset="0.95506299" />
      <stop
         id="stop5348"
         style="stop-color:#000000;stop-opacity:1"
         offset="1" />
    </radialGradient>
    <clipPath
       id="clipPath5368">
      <path
         d="M 481.117,609.926 H 625.518 V 355.03 H 481.117 Z"
         id="path5370"
         inkscape:connector-curvature="0" />
    </clipPath>
    <radialGradient
       cx="0"
       cy="0"
       r="1"
       fx="0"
       fy="0"
       id="radialGradient6074"
       xlink:href="#radialGradient5376"
       gradientUnits="userSpaceOnUse"
       gradientTransform="matrix(-59.413574,-151.80127,-183.85619,71.964798,430.58789,518.58398)"
       spreadMethod="pad" />
    <radialGradient
       cx="0"
       cy="0"
       r="1"
       fx="0"
       fy="0"
       id="radialGradient5376"
       gradientUnits="userSpaceOnUse"
       gradientTransform="matrix(-59.413574,-151.80127,-183.85619,71.964798,430.58789,518.58398)"
       spreadMethod="pad">
      <stop
         id="stop5378"
         style="stop-color:#ffffff;stop-opacity:1"
         offset="0" />
      <stop
         id="stop5380"
         style="stop-color:#000000;stop-opacity:1"
         offset="0.95506299" />
      <stop
         id="stop5382"
         style="stop-color:#000000;stop-opacity:1"
         offset="0.95506299" />
      <stop
         id="stop5384"
         style="stop-color:#000000;stop-opacity:1"
         offset="1" />
    </radialGradient>
    <linearGradient
       x1="0"
       y1="0"
       x2="1"
       y2="0"
       id="linearGradient6076"
       xlink:href="#linearGradient5412"
       gradientUnits="userSpaceOnUse"
       gradientTransform="matrix(112.95387,139.48642,139.48642,-112.95386,242.33008,465.07959)"
       spreadMethod="pad" />
    <linearGradient
       x1="0"
       y1="0"
       x2="1"
       y2="0"
       id="linearGradient5412"
       gradientUnits="userSpaceOnUse"
       gradientTransform="matrix(112.95387,139.48642,139.48642,-112.95386,242.33008,465.07959)"
       spreadMethod="pad">
      <stop
         id="stop5414"
         style="stop-color:#ffff00;stop-opacity:1"
         offset="0" />
      <stop
         id="stop5416"
         style="stop-color:#9dff00;stop-opacity:1"
         offset="0.5" />
      <stop
         id="stop5418"
         style="stop-color:#458c41;stop-opacity:1"
         offset="1" />
    </linearGradient>
    <linearGradient
       x1="0"
       y1="0"
       x2="1"
       y2="0"
       id="linearGradient6078"
       xlink:href="#linearGradient5434"
       gradientUnits="userSpaceOnUse"
       gradientTransform="matrix(138.34399,-205.10341,-205.10341,-138.34399,228.25391,725.86377)"
       spreadMethod="pad" />
    <linearGradient
       x1="0"
       y1="0"
       x2="1"
       y2="0"
       id="linearGradient5434"
       gradientUnits="userSpaceOnUse"
       gradientTransform="matrix(138.34399,-205.10341,-205.10341,-138.34399,228.25391,725.86377)"
       spreadMethod="pad">
      <stop
         id="stop5436"
         style="stop-color:#4a7d62;stop-opacity:1"
         offset="0" />
      <stop
         id="stop5438"
         style="stop-color:#000000;stop-opacity:1"
         offset="1" />
    </linearGradient>
    <linearGradient
       x1="0"
       y1="0"
       x2="1"
       y2="0"
       id="linearGradient6080"
       xlink:href="#linearGradient5454"
       gradientUnits="userSpaceOnUse"
       gradientTransform="matrix(221.12239,149.14896,149.14896,-221.12239,150.16309,295.60059)"
       spreadMethod="pad" />
    <linearGradient
       x1="0"
       y1="0"
       x2="1"
       y2="0"
       id="linearGradient5454"
       gradientUnits="userSpaceOnUse"
       gradientTransform="matrix(221.12239,149.14896,149.14896,-221.12239,150.16309,295.60059)"
       spreadMethod="pad">
      <stop
         id="stop5456"
         style="stop-color:#ffff00;stop-opacity:1"
         offset="0" />
      <stop
         id="stop5458"
         style="stop-color:#9dff00;stop-opacity:1"
         offset="0.421341" />
      <stop
         id="stop5460"
         style="stop-color:#9dff00;stop-opacity:1"
         offset="0.421341" />
      <stop
         id="stop5462"
         style="stop-color:#5c5c5c;stop-opacity:1"
         offset="1" />
    </linearGradient>
    <linearGradient
       x1="0"
       y1="0"
       x2="1"
       y2="0"
       id="linearGradient6082"
       xlink:href="#linearGradient5478"
       gradientUnits="userSpaceOnUse"
       gradientTransform="matrix(179.03551,310.09863,310.09863,-179.03551,150.04297,206.6123)"
       spreadMethod="pad" />
    <linearGradient
       x1="0"
       y1="0"
       x2="1"
       y2="0"
       id="linearGradient5478"
       gradientUnits="userSpaceOnUse"
       gradientTransform="matrix(179.03551,310.09863,310.09863,-179.03551,150.04297,206.6123)"
       spreadMethod="pad">
      <stop
         id="stop5480"
         style="stop-color:#4a7d62;stop-opacity:1"
         offset="0" />
      <stop
         id="stop5482"
         style="stop-color:#182920;stop-opacity:1"
         offset="1" />
    </linearGradient>
    <linearGradient
       x1="0"
       y1="0"
       x2="1"
       y2="0"
       id="linearGradient6084"
       xlink:href="#linearGradient5498"
       gradientUnits="userSpaceOnUse"
       gradientTransform="matrix(-123.55646,119.31706,119.31706,123.55647,588.98633,485.63184)"
       spreadMethod="pad" />
    <linearGradient
       x1="0"
       y1="0"
       x2="1"
       y2="0"
       id="linearGradient5498"
       gradientUnits="userSpaceOnUse"
       gradientTransform="matrix(-123.55646,119.31706,119.31706,123.55647,588.98633,485.63184)"
       spreadMethod="pad">
      <stop
         id="stop5500"
         style="stop-color:#ffff00;stop-opacity:1"
         offset="0" />
      <stop
         id="stop5502"
         style="stop-color:#9dff00;stop-opacity:1"
         offset="0.47752401" />
      <stop
         id="stop5504"
         style="stop-color:#4a4a4a;stop-opacity:1"
         offset="1" />
    </linearGradient>
    <linearGradient
       x1="0"
       y1="0"
       x2="1"
       y2="0"
       id="linearGradient6086"
       xlink:href="#linearGradient5520"
       gradientUnits="userSpaceOnUse"
       gradientTransform="matrix(19.704803,160.48279,160.48279,-19.704803,528.9707,540.91943)"
       spreadMethod="pad" />
    <linearGradient
       x1="0"
       y1="0"
       x2="1"
       y2="0"
       id="linearGradient5520"
       gradientUnits="userSpaceOnUse"
       gradientTransform="matrix(19.704803,160.48279,160.48279,-19.704803,528.9707,540.91943)"
       spreadMethod="pad">
      <stop
         id="stop5522"
         style="stop-color:#000000;stop-opacity:1"
         offset="0" />
      <stop
         id="stop5524"
         style="stop-color:#45755c;stop-opacity:1"
         offset="0.87078899" />
      <stop
         id="stop5526"
         style="stop-color:#45755c;stop-opacity:1"
         offset="1" />
    </linearGradient>
    <linearGradient
       x1="0"
       y1="0"
       x2="1"
       y2="0"
       id="linearGradient6088"
       xlink:href="#linearGradient5542"
       gradientUnits="userSpaceOnUse"
       gradientTransform="matrix(57.405304,123.10608,123.10608,-57.405304,544.34863,308.62207)"
       spreadMethod="pad" />
    <linearGradient
       x1="0"
       y1="0"
       x2="1"
       y2="0"
       id="linearGradient5542"
       gradientUnits="userSpaceOnUse"
       gradientTransform="matrix(57.405304,123.10608,123.10608,-57.405304,544.34863,308.62207)"
       spreadMethod="pad">
      <stop
         id="stop5544"
         style="stop-color:#ffff00;stop-opacity:1"
         offset="0" />
      <stop
         id="stop5546"
         style="stop-color:#aeff00;stop-opacity:1"
         offset="0.41572601" />
      <stop
         id="stop5548"
         style="stop-color:#575757;stop-opacity:1"
         offset="1" />
    </linearGradient>
    <linearGradient
       x1="0"
       y1="0"
       x2="1"
       y2="0"
       id="linearGradient6090"
       xlink:href="#linearGradient5564"
       gradientUnits="userSpaceOnUse"
       gradientTransform="matrix(-55.596222,315.30197,315.30197,55.596237,625.08789,206.5918)"
       spreadMethod="pad" />
    <linearGradient
       x1="0"
       y1="0"
       x2="1"
       y2="0"
       id="linearGradient5564"
       gradientUnits="userSpaceOnUse"
       gradientTransform="matrix(-55.596222,315.30197,315.30197,55.596237,625.08789,206.5918)"
       spreadMethod="pad">
      <stop
         id="stop5566"
         style="stop-color:#4a7d62;stop-opacity:1"
         offset="0" />
      <stop
         id="stop5568"
         style="stop-color:#000000;stop-opacity:1"
         offset="0.83146697" />
      <stop
         id="stop5570"
         style="stop-color:#000000;stop-opacity:1"
         offset="0.83146697" />
      <stop
         id="stop5572"
         style="stop-color:#000000;stop-opacity:1"
         offset="1" />
    </linearGradient>
    <inkscape:path-effect
       effect="bspline"
       id="path-effect4978-13-2"
       is_visible="true"
       weight="33.333333"
       steps="2"
       helper_size="0"
       apply_no_weight="true"
       apply_with_weight="true"
       only_selected="false"
       lpeversion="0" />
    <radialGradient
       spreadMethod="pad"
       gradientTransform="matrix(207.42525,-21.509659,-19.788208,-190.87936,415.48047,501.28809)"
       gradientUnits="userSpaceOnUse"
       id="radialGradient7936-4"
       fy="0"
       fx="0"
       r="1"
       cy="0"
       cx="0">
      <stop
         offset="0"
         style="stop-color:#525252;stop-opacity:1"
         id="stop7928-9" />
      <stop
         offset="1"
         style="stop-color:#e7e7e7;stop-opacity:1"
         id="stop7934-0" />
    </radialGradient>
    <inkscape:path-effect
       effect="bspline"
       id="path-effect4965-9"
       is_visible="true"
       weight="33.333333"
       steps="2"
       helper_size="0"
       apply_no_weight="true"
       apply_with_weight="true"
       only_selected="false"
       lpeversion="0" />
    <inkscape:path-effect
       effect="bspline"
       id="path-effect4969-01"
       is_visible="true"
       weight="33.333333"
       steps="2"
       helper_size="0"
       apply_no_weight="true"
       apply_with_weight="true"
       only_selected="false"
       lpeversion="0" />
    <inkscape:path-effect
       effect="bspline"
       id="path-effect4978-2"
       is_visible="true"
       weight="33.333333"
       steps="2"
       helper_size="0"
       apply_no_weight="true"
       apply_with_weight="true"
       only_selected="false"
       lpeversion="0" />
    <radialGradient
       spreadMethod="pad"
       gradientTransform="matrix(207.42525,-21.509659,-19.788208,-190.87936,415.48047,501.28809)"
       gradientUnits="userSpaceOnUse"
       id="radialGradient1193"
       fy="0"
       fx="0"
       r="1"
       cy="0"
       cx="0">
      <stop
         offset="0"
         style="stop-color:#525252;stop-opacity:1"
         id="stop1189" />
      <stop
         offset="1"
         style="stop-color:#e7e7e7;stop-opacity:1"
         id="stop1191" />
    </radialGradient>
    <inkscape:path-effect
       effect="bspline"
       id="path-effect4969-3-3"
       is_visible="true"
       weight="33.333333"
       steps="2"
       helper_size="0"
       apply_no_weight="true"
       apply_with_weight="true"
       only_selected="false"
       lpeversion="0" />
    <inkscape:path-effect
       effect="bspline"
       id="path-effect4965-1-5"
       is_visible="true"
       weight="33.333333"
       steps="2"
       helper_size="0"
       apply_no_weight="true"
       apply_with_weight="true"
       only_selected="false"
       lpeversion="0" />
    <radialGradient
       spreadMethod="pad"
       gradientTransform="matrix(207.42525,-21.509659,-19.788208,-190.87936,415.48047,501.28809)"
       gradientUnits="userSpaceOnUse"
       id="radialGradient7748-7"
       fy="0"
       fx="0"
       r="1"
       cy="0"
       cx="0">
      <stop
         offset="0"
         style="stop-color:#e3e3e3;stop-opacity:1"
         id="stop7740-8" />
      <stop
         offset="1"
         style="stop-color:#b1b1b1;stop-opacity:1"
         id="stop7746-2" />
    </radialGradient>
    <linearGradient
       id="a"
       gradientUnits="userSpaceOnUse"
       x1="-51.125"
       y1="460.01099"
       x2="-50.125"
       y2="460.01099"
       gradientTransform="matrix(0,-101.4695,-101.4695,0,46930.332,-5086.16)">
      <stop
         offset="0"
         id="stop10" />
      <stop
         offset=".315"
         id="stop12" />
      <stop
         offset=".407"
         stop-color="#0e0301"
         id="stop14" />
      <stop
         offset=".522"
         stop-color="#1a0502"
         id="stop16" />
      <stop
         offset=".562"
         stop-color="#410c05"
         id="stop18" />
      <stop
         offset=".612"
         stop-color="#6b1408"
         id="stop20" />
      <stop
         offset=".665"
         stop-color="#901a0a"
         id="stop22" />
      <stop
         offset=".72"
         stop-color="#ae200c"
         id="stop24" />
      <stop
         offset=".778"
         stop-color="#c5240e"
         id="stop26" />
      <stop
         offset=".84"
         stop-color="#d5270f"
         id="stop28" />
      <stop
         offset=".909"
         stop-color="#df2810"
         id="stop30" />
      <stop
         offset="1"
         stop-color="#e22910"
         id="stop32" />
    </linearGradient>
    <radialGradient
       id="b-7"
       cx="-51.125"
       cy="460.01099"
       r="1"
       gradientTransform="matrix(22.1781,0,0,-22.1781,1176.283,10242.426)"
       gradientUnits="userSpaceOnUse">
      <stop
         offset="0"
         stop-color="#fff"
         id="stop47-9" />
      <stop
         offset=".04"
         stop-color="#fff"
         id="stop49-3" />
      <stop
         offset=".074"
         stop-color="#fff"
         id="stop51-7" />
      <stop
         offset=".279"
         stop-color="#fff"
         id="stop53-8" />
      <stop
         offset=".339"
         stop-color="#fafbfe"
         id="stop55-7" />
      <stop
         offset=".411"
         stop-color="#ebf0fb"
         id="stop57-4" />
      <stop
         offset=".492"
         stop-color="#d2ddf6"
         id="stop59-19" />
      <stop
         offset=".577"
         stop-color="#afc3ee"
         id="stop61-09" />
      <stop
         offset=".666"
         stop-color="#82a2e5"
         id="stop63-88" />
      <stop
         offset=".702"
         stop-color="#6e93e1"
         id="stop65-58" />
      <stop
         offset=".82"
         stop-color="#3f72c3"
         id="stop67-4" />
      <stop
         offset=".939"
         stop-color="#1654a9"
         id="stop69-3" />
      <stop
         offset="1"
         stop-color="#06499f"
         id="stop71-7" />
    </radialGradient>
    <inkscape:path-effect
       effect="bspline"
       id="path-effect4978-13-2-3"
       is_visible="true"
       weight="33.333333"
       steps="2"
       helper_size="0"
       apply_no_weight="true"
       apply_with_weight="true"
       only_selected="false"
       lpeversion="0" />
    <radialGradient
       spreadMethod="pad"
       gradientTransform="matrix(207.42525,-21.509659,-19.788208,-190.87936,415.48047,501.28809)"
       gradientUnits="userSpaceOnUse"
       id="radialGradient7936-4-0"
       fy="0"
       fx="0"
       r="1"
       cy="0"
       cx="0">
      <stop
         offset="0"
         style="stop-color:#525252;stop-opacity:1"
         id="stop7928-9-7" />
      <stop
         offset="1"
         style="stop-color:#e7e7e7;stop-opacity:1"
         id="stop7934-0-8" />
    </radialGradient>
    <inkscape:path-effect
       effect="bspline"
       id="path-effect4965-9-6"
       is_visible="true"
       weight="33.333333"
       steps="2"
       helper_size="0"
       apply_no_weight="true"
       apply_with_weight="true"
       only_selected="false"
       lpeversion="0" />
    <inkscape:path-effect
       effect="bspline"
       id="path-effect4969-01-8"
       is_visible="true"
       weight="33.333333"
       steps="2"
       helper_size="0"
       apply_no_weight="true"
       apply_with_weight="true"
       only_selected="false"
       lpeversion="0" />
    <inkscape:path-effect
       effect="bspline"
       id="path-effect4978-2-8"
       is_visible="true"
       weight="33.333333"
       steps="2"
       helper_size="0"
       apply_no_weight="true"
       apply_with_weight="true"
       only_selected="false"
       lpeversion="0" />
    <radialGradient
       spreadMethod="pad"
       gradientTransform="matrix(207.42525,-21.509659,-19.788208,-190.87936,415.48047,501.28809)"
       gradientUnits="userSpaceOnUse"
       id="radialGradient1692"
       fy="0"
       fx="0"
       r="1"
       cy="0"
       cx="0">
      <stop
         offset="0"
         style="stop-color:#525252;stop-opacity:1"
         id="stop1688" />
      <stop
         offset="1"
         style="stop-color:#e7e7e7;stop-opacity:1"
         id="stop1690" />
    </radialGradient>
    <inkscape:path-effect
       effect="bspline"
       id="path-effect4969-3-3-4"
       is_visible="true"
       weight="33.333333"
       steps="2"
       helper_size="0"
       apply_no_weight="true"
       apply_with_weight="true"
       only_selected="false"
       lpeversion="0" />
    <inkscape:path-effect
       effect="bspline"
       id="path-effect4965-1-5-3"
       is_visible="true"
       weight="33.333333"
       steps="2"
       helper_size="0"
       apply_no_weight="true"
       apply_with_weight="true"
       only_selected="false"
       lpeversion="0" />
    <radialGradient
       spreadMethod="pad"
       gradientTransform="matrix(207.42525,-21.509659,-19.788208,-190.87936,415.48047,501.28809)"
       gradientUnits="userSpaceOnUse"
       id="radialGradient7748-7-1"
       fy="0"
       fx="0"
       r="1"
       cy="0"
       cx="0">
      <stop
         offset="0"
         style="stop-color:#e3e3e3;stop-opacity:1"
         id="stop7740-8-4" />
      <stop
         offset="1"
         style="stop-color:#b1b1b1;stop-opacity:1"
         id="stop7746-2-9" />
    </radialGradient>
    <radialGradient
       id="b-7-4"
       cx="-51.125"
       cy="460.01099"
       r="1"
       gradientTransform="matrix(22.1781,0,0,-22.1781,1176.283,10242.426)"
       gradientUnits="userSpaceOnUse">
      <stop
         offset="0"
         stop-color="#fff"
         id="stop47-9-8" />
      <stop
         offset=".04"
         stop-color="#fff"
         id="stop49-3-7" />
      <stop
         offset=".074"
         stop-color="#fff"
         id="stop51-7-1" />
      <stop
         offset=".279"
         stop-color="#fff"
         id="stop53-8-7" />
      <stop
         offset=".339"
         stop-color="#fafbfe"
         id="stop55-7-2" />
      <stop
         offset=".411"
         stop-color="#ebf0fb"
         id="stop57-4-7" />
      <stop
         offset=".492"
         stop-color="#d2ddf6"
         id="stop59-19-2" />
      <stop
         offset=".577"
         stop-color="#afc3ee"
         id="stop61-09-2" />
      <stop
         offset=".666"
         stop-color="#82a2e5"
         id="stop63-88-6" />
      <stop
         offset=".702"
         stop-color="#6e93e1"
         id="stop65-58-1" />
      <stop
         offset=".82"
         stop-color="#3f72c3"
         id="stop67-4-0" />
      <stop
         offset=".939"
         stop-color="#1654a9"
         id="stop69-3-6" />
      <stop
         offset="1"
         stop-color="#06499f"
         id="stop71-7-1" />
    </radialGradient>
  </defs>
  <sodipodi:namedview
     pagecolor="#ffffff"
     bordercolor="#666666"
     borderopacity="1"
     objecttolerance="10"
     gridtolerance="10"
     guidetolerance="10"
     inkscape:pageopacity="0"
     inkscape:pageshadow="2"
     inkscape:window-width="3840"
     inkscape:window-height="2065"
     id="namedview4"
     showgrid="false"
     fit-margin-right="-0.2"
     fit-margin-top="0"
     fit-margin-left="0"
     fit-margin-bottom="0"
     inkscape:zoom="2.0000001"
     inkscape:cx="40.249998"
     inkscape:cy="552.24997"
     inkscape:window-x="0"
     inkscape:window-y="0"
     inkscape:window-maximized="1"
     inkscape:current-layer="svg2"
     inkscape:pagecheckerboard="0"
     inkscape:snap-global="false" />
  <g
     id="g1704">
    <path
       id="path259853"
       style="fill:#bd3786;fill-opacity:1;stroke:none;stroke-width:1px;stroke-linecap:butt;stroke-linejoin:miter;stroke-opacity:1"
       d="m 193.90538,247.3207 c -0.0995,-1.5242 -0.15999,-3.04653 -0.25744,-4.57273 -0.0818,-1.08487 -0.12272,-2.21448 -0.24219,-3.25586 -0.17066,-0.64093 -0.54014,-1.18433 -0.8086,-1.77735 -0.13923,-0.2604 -0.22427,-0.4326 -0.38778,-0.6093 -0.11855,-0.1281 -0.263,-0.29868 -0.41867,-0.31448 -0.1603,-0.02 -0.42584,-0.0515 -0.49477,-0.0601 0.15922,2.2268 0.25578,4.54287 0.21908,6.69829 -0.0452,2.65428 -0.12955,5.22243 -0.44815,8.33029 -0.31861,3.10786 -0.98763,6.71931 -1.7417,10.11488 -0.75407,3.39557 -1.82924,6.64327 -3.07695,9.89706 -1.24771,3.25379 -2.62526,6.45431 -4.27594,9.60714 -1.65067,3.15283 -3.56,6.20729 -5.25241,8.67216 -1.69241,2.46488 -3.16235,4.32829 -5.154,6.50464 -1.99166,2.17636 -4.33825,4.56149 -6.95891,6.94925 -1.46771,1.33727 -3.29506,2.5971 -4.5136,3.79756 0.16191,0.0473 0.437,0.30674 0.81743,0.26674 0.38021,-0.0826 0.44489,-0.14058 0.73716,-0.26233 0.92821,-0.58099 1.89686,-1.15303 2.77929,-1.80013 1.30658,-1.02141 2.62306,-1.98896 3.93164,-3.01237 1.50589,-1.3089 3.01165,-2.61879 4.51953,-3.92969 1.37421,-1.40403 2.75075,-2.80881 4.12696,-4.21484 0.68597,-0.80342 1.37257,-1.60864 2.06054,-2.41406 0.82683,-0.62516 1.6536,-1.2498 2.48243,-1.87696 1.00586,-0.99222 2.01362,-1.98625 3.02148,-2.98047 0.85617,-1.04396 1.78958,-2.03275 2.57227,-3.13476 1.12091,-1.57822 2.14346,-3.23382 3.02539,-4.95703 0.51645,-1.00909 0.87792,-2.08897 1.31836,-3.13477 0.44768,-1.39815 0.99867,-2.76959 1.3457,-4.19726 0.35693,-1.46841 0.60518,-2.96668 0.75195,-4.4707 0.12456,-1.27634 0.0705,-2.56249 0.10742,-3.8457 -0.005,-1.7667 -0.009,-3.53404 -0.0117,-5.30274 0.0143,-0.84123 0.0306,-1.68413 0.0469,-2.52735 0.0559,-1.31825 0.11198,-2.63678 0.16993,-3.95703 0.0144,-1.40761 0.009,-4.23 0.009,-4.23 z"
       sodipodi:nodetypes="ccccaccssssssssccccccccccaacaaccccc" />
    <path
       id="path259853-9"
       style="fill:#bd3786;fill-opacity:1;stroke:none;stroke-width:1px;stroke-linecap:butt;stroke-linejoin:miter;stroke-opacity:1"
       d="m 193.82609,98.63509 c -0.0995,1.5242 -0.15999,3.04653 -0.25744,4.57273 -0.0818,1.08487 -0.12272,2.21448 -0.24219,3.25586 -0.17066,0.64093 -0.54014,1.18433 -0.8086,1.77735 -0.13923,0.2604 -0.22427,0.4326 -0.38779,0.6093 -0.11854,0.1281 -0.26299,0.29868 -0.41866,0.31448 -0.1603,0.02 -0.42584,0.0515 -0.49477,0.0601 0.15922,-2.2268 0.25578,-4.54287 0.21908,-6.69829 -0.0452,-2.65428 -0.12956,-5.22243 -0.44816,-8.33029 -0.31861,-3.10786 -0.98762,-6.719306 -1.74169,-10.114876 -0.75407,-3.39557 -1.82925,-6.64327 -3.07696,-9.89706 -1.24771,-3.25379 -2.62525,-6.45431 -4.27593,-9.60714 -1.65067,-3.15283 -3.56,-6.20729 -5.25241,-8.67216 -1.69241,-2.46488 -3.16235,-4.32829 -5.154,-6.50464 -1.99166,-2.17636 -4.33825,-4.56149 -6.95891,-6.94925 -1.46771,-1.33727 -3.29506,-2.5971 -4.5136,-3.79756 0.16191,-0.0473 0.437,-0.30674 0.81743,-0.26674 0.38021,0.0826 0.44489,0.14058 0.73716,0.26233 0.92821,0.58099 1.89686,1.15303 2.77928,1.80013 1.30658,1.02141 2.62307,1.98896 3.93165,3.01237 1.50589,1.3089 3.01165,2.61879 4.51953,3.92969 1.37421,1.40403 2.75075,2.80881 4.12696,4.21484 0.68597,0.80342 1.37257,1.60864 2.06054,2.41406 0.82683,0.62516 1.6536,1.2498 2.48243,1.87696 1.00585,0.99222 2.01362,1.98625 3.02148,2.98047 0.85617,1.04396 1.78958,2.03275 2.57227,3.13476 1.12091,1.57822 2.14346,3.23382 3.02539,4.95703 0.51645,1.00909 0.87792,2.08897 1.31836,3.13477 0.44768,1.39815 0.99867,2.76959 1.3457,4.19726 0.35693,1.46841 0.60518,2.96668 0.75195,4.4707 0.12456,1.27634 0.0705,2.56249 0.10742,3.8457 -0.005,1.7667 -0.009,3.53404 -0.0117,5.30274 0.0143,0.84123 0.0306,1.684126 0.0469,2.527346 0.0559,1.31825 0.11198,2.63678 0.16993,3.95703 0.0144,1.40761 0.009,4.23 0.009,4.23 z"
       sodipodi:nodetypes="ccccaccssssssssccccccccccaacaaccccc" />
    <path
       id="path2319"
       style="fill:#e7e6e9;fill-opacity:1;stroke:none;stroke-width:1px;stroke-linecap:butt;stroke-linejoin:miter;stroke-opacity:1"
       d="m 191.54079,102.7653 c -0.0452,-2.65429 -0.16382,-5.29839 -0.48242,-8.40625 -0.31861,-3.10786 -0.83773,-6.680598 -1.5918,-10.076168 -0.75407,-3.395581 -1.74252,-6.613401 -2.99023,-9.867191 -1.24771,-3.2538 -2.76339,-6.56397 -4.41407,-9.7168 -1.65067,-3.15283 -3.4404,-6.16013 -5.13281,-8.625 -1.69241,-2.46487 -3.23491,-4.32365 -5.22656,-6.5 -1.99166,-2.17635 -4.43793,-4.66888 -7.05859,-7.05664 -2.62067,-2.38776 -5.39486,-4.65587 -8.0293,-6.6582 -2.63444,-2.00234 -5.1104,-3.72498 -8.40235,-5.94727 -3.29194,-2.22228 -7.3999,-4.94492 -11.07812,-7.10351 -3.67823,-2.1586 -6.87071,-3.72481 -9.95313,-5.25977 -3.08241,-1.53496 -6.08009,-3.0511 -9.73242,-4.52148 -3.65233,-1.47039 -7.9866,-2.90857 -11.8164,-4.1836 -3.8298,-1.27503 -7.208669,-2.40552 -10.611329,-3.32031 -3.40266,-0.91479 -6.85466,-1.62319 -10.52735,-2.31445 -3.67268,-0.69127 -7.56698,-1.36546 -11.7871,-1.875 -4.22013,-0.50954 -8.76767,-0.85447 -13.32032,-1.06055 -4.55264,-0.20608 -9.11053,-0.27316 -12.98633,-0.10547 -3.87579,0.16769 -7.07353,0.57071 -10.17968,1.27344 -3.10615,0.70273 -6.12245,1.70462 -8.77344,2.88476 -2.65099,1.18014 -4.95985,2.55095 -7.10547,4.0293 -2.14562,1.47835 -4.14069,3.07053 -5.83398,4.71094 -1.6933,1.6404 -3.08504,3.32913 -4.4336,5.06054 -1.3485601,1.73142 -2.6532701,3.50556 -3.8417901,5.65235 -1.18853,2.14679 -2.26064,4.6677 -3.12891,7.1875 -0.86827,2.5198 -1.53237,5.03891 -2,7.33789 -0.46763001,2.29898 -0.73984001,4.37719 -0.89063001,6.58008 -0.15078,2.20289 -0.17923,4.53088 0.041,6.88281 0.22025,2.35193 0.68959,4.72739 1.41797001,7.2793 0.72838,2.5519 1.71587,5.27942 3.02734,7.96484 1.31147,2.68542 2.94638,5.32915 4.79297,8.08789 1.8465901,2.75874 3.9049101,5.63397 5.6269501,8.17188 1.72205,2.537911 3.12175,4.757901 4.61524,7.142569 1.49348,2.38468 3.08697,4.94261 5.01758,8.04297 1.93061,3.10037 4.19706,6.74412 6.14258,10.23242 1.94551,3.48831 3.56908,6.82227 5.01953,9.9043 1.45045,3.08203 2.72833,5.91138 3.92578,8.77735 1.19745,2.86597 2.31445,5.76831 3.33398,8.70703 1.01953,2.93872 1.94068,5.9126 2.71875,9.14258 0.77808,3.22997 1.41318,6.71575 1.92188,10.02734 0.50869,3.31159 0.90091,6.52539 1.16797,9.59766 0.24739,2.84598 0.37926,5.58371 0.42968,8.15624 -0.0505,2.572 -0.18236,5.30902 -0.42968,8.1543 -0.26706,3.07227 -0.65928,6.28607 -1.16797,9.59766 -0.5087,3.31159 -1.1438,6.79542 -1.92188,10.02539 -0.77807,3.22997 -1.69922,6.20581 -2.71875,9.14453 -1.01953,2.93872 -2.13653,5.83911 -3.33398,8.70508 -1.19745,2.86597 -2.47533,5.69727 -3.92578,8.7793 -1.45045,3.08202 -3.07402,6.41598 -5.01953,9.90429 -1.94552,3.48831 -4.21197,7.1301 -6.14258,10.23047 -1.93061,3.10037 -3.5241,5.6583 -5.01758,8.04297 -1.49349,2.38467 -2.89319,4.60662 -4.61524,7.14453 -1.72204,2.53791 -3.78036,5.41118 -5.6269501,8.16992 -1.84659,2.75874 -3.4815,5.40248 -4.79297,8.08789 -1.31147,2.68542 -2.29896,5.41294 -3.02734,7.96485 -0.72838001,2.5519 -1.19772001,4.92736 -1.41797001,7.27929 -0.22025,2.35194 -0.1918,4.67993 -0.041,6.88282 0.15079,2.20288 0.423,4.2811 0.89063001,6.58007 0.46763,2.29898 1.13173,4.82005 2,7.33985 0.86827,2.5198 1.94038,5.03875 3.12891,7.18555 1.18852,2.14679 2.49323,3.92093 3.8417901,5.65234 1.34856,1.73141 2.7403,3.42014 4.4336,5.06055 1.69329,1.6404 3.68836,3.23258 5.83398,4.71093 2.14562,1.47836 4.45448,2.84916 7.10547,4.0293 2.65099,1.18014 5.66729,2.18399 8.77344,2.88672 3.10615,0.70273 6.30389,1.10379 10.17968,1.27148 3.8758,0.16769 8.43369,0.10257 12.98633,-0.10351 4.55265,-0.20608 9.10019,-0.55296 13.32032,-1.0625 4.22012,-0.50954 8.11442,-1.18178 11.7871,-1.87305 3.67269,-0.69127 7.12469,-1.40162 10.52735,-2.31641 3.40266,-0.91478 6.781529,-2.04333 10.611329,-3.31835 3.8298,-1.27503 8.16407,-2.71321 11.8164,-4.1836 3.65233,-1.47038 6.65001,-2.98652 9.73242,-4.52148 3.08242,-1.53496 6.2749,-3.10313 9.95313,-5.26172 3.67822,-2.1586 7.78618,-4.88123 11.07812,-7.10352 3.29195,-2.22228 5.76791,-3.94493 8.40235,-5.94726 2.63444,-2.00234 5.40863,-4.2685 8.0293,-6.65625 2.62066,-2.38776 5.06693,-4.88224 7.05859,-7.0586 1.99165,-2.17635 3.53415,-4.03512 5.22656,-6.5 1.69241,-2.46487 3.48214,-5.47217 5.13281,-8.625 1.65068,-3.15283 3.16636,-6.463 4.41407,-9.71679 1.24771,-3.2538 2.23616,-6.47162 2.99023,-9.86719 0.75407,-3.39557 1.27319,-6.96831 1.5918,-10.07617 0.3186,-3.10786 0.43718,-5.75197 0.48242,-8.40625 0.0452,-2.65429 0.0173,-5.31863 -0.26953,-8.10157 -0.28686,-2.78293 -0.8334,-5.68228 -1.66797,-9.07226 -0.83457,-3.38998 -1.95653,-7.26963 -2.91016,-10.7168 -0.95363,-3.44717 -1.73897,-6.46319 -2.5625,-9.93554 -0.82353,-3.47236 -1.68564,-7.40012 -2.31054,-11.26172 -0.62491,-3.86161 -1.01217,-7.65611 -1.25782,-11.49219 -0.24565,-3.83608 -0.34849,-7.71473 -0.40039,-9.6543 0.0519,-1.93957 0.15474,-5.81822 0.40039,-9.65429 0.24565,-3.83608 0.63291,-7.62864 1.25782,-11.49024 0.6249,-3.8616 1.48701,-7.79132 2.31054,-11.26367 0.82353,-3.47236 1.60887,-6.48838 2.5625,-9.93555 0.95363,-3.44717 2.07559,-7.32486 2.91016,-10.71484 0.83457,-3.38998 1.38111,-6.29129 1.66797,-9.07422 0.28686,-2.78293 0.31477,-5.44728 0.26953,-8.10156 z" />
    <ellipse
       style="fill:#cececf;fill-opacity:1;stroke:none;stroke-width:3.69121;stroke-linejoin:round;stroke-miterlimit:4;stroke-dasharray:none;stroke-opacity:1"
       id="path25693-4-8-1"
       cx="-128.36734"
       cy="-254.73145"
       rx="50.645828"
       ry="44.542076"
       transform="matrix(0.69959442,-0.71454016,-0.73300565,-0.68022255,0,0)" />
    <ellipse
       style="fill:#c3c2c7;fill-opacity:1;stroke:none;stroke-width:3.57221;stroke-linejoin:round;stroke-miterlimit:4;stroke-dasharray:none;stroke-opacity:1"
       id="path25693-4-8"
       cx="128.32497"
       cy="-13.893024"
       rx="49.044464"
       ry="43.078392"
       transform="rotate(46.372737)" />
    <path
       id="path2307"
       style="color:#000000;fill:#666666;fill-opacity:1;-inkscape-stroke:none"
       d="m 173.16166,171.77887 h -0.002 c -0.0835,-3.99874 -0.16663,-7.99845 -0.29688,-12.40625 -0.1307,-4.42306 -0.30734,-9.2571 -0.55859,-13.71484 -0.25125,-4.45774 -0.5762,-8.53611 -0.9375,-12.65039 -0.3613,-4.1143 -0.76033,-8.27033 -1.20117,-12.01954 -0.44084,-3.7492 -0.92199,-7.08399 -1.47852,-11.13671 -0.55652,-4.05273 -1.18974,-8.83149 -1.80859,-12.78516 -0.61885,-3.95367 -1.2237,-7.07356 -1.86914,-10.34961 -0.64545,-3.276048 -1.33332,-6.719901 -2.06836,-9.876953 -0.73505,-3.157044 -1.51695,-6.028965 -2.47656,-8.798828 -0.95962,-2.769845 -2.09508,-5.434663 -3.4375,-8.115235 -1.34242,-2.680555 -2.89185,-5.379703 -4.66016,-8.05664 -1.7683,-2.676921 -3.75097,-5.323349 -5.40625,-7.384766 -1.65527,-2.061403 -2.99178,-3.543783 -4.58008,-5.095703 -1.58828,-1.551902 -3.43057,-3.17717 -5.51367,-4.861328 -2.08309,-1.684151 -4.40874,-3.429256 -6.99024,-5.205078 -2.58148,-1.775817 -5.42344,-3.588068 -8.33789,-5.074219 -2.91443,-1.48614 -5.88278,-2.636694 -9.13672,-3.734375 -3.25393,-1.097677 -6.81138,-2.147192 -10.63281,-2.958984 -3.821399,-0.811791 -7.895289,-1.383642 -11.416019,-1.632813 -3.52071,-0.249168 -6.4817,-0.175859 -9.00195,0.05469 -2.52023,0.23054 -4.6057,0.618549 -6.92969,1.142578 -2.32398,0.524027 -4.90878,1.188374 -7.38671,2.027344 -2.47793,0.838965 -4.84439,1.85073 -7.03711,3.068359 -2.19272,1.217625 -4.19233,2.629978 -6.04883,3.9375 -1.8565,1.307523 -3.59996,2.532316 -5.3711,4.033203 -1.77113,1.500883 -3.55414,3.264868 -5.34765,5.169922 -1.79351,1.905053 -3.60794,3.961578 -5.19531,6.144531 -1.58737,2.182957 -2.93171,4.471045 -4.2461,6.759766 -1.31438,2.288722 -2.60757,4.594582 -3.85742,6.996093 -1.24987,2.401517 -2.45839,4.900101 -3.57617,7.566407 -1.11778,2.666312 -2.14042,5.49006 -3.06446,8.183593 -0.92402,2.69354 -1.75069,5.261801 -2.3496,7.34961 -0.59892,2.087818 -0.96685,3.687682 -1.24805,4.816406 -0.2812,1.128721 -0.4817,1.810264 -0.66016,2.566406 -0.17845,0.756105 -0.33604,1.56166 -0.46484,1.939454 -0.12869,0.377472 -0.11779,0.308151 -0.27539,0.414062 l 0.55664,0.830078 c 0.15762,-0.105921 0.48541,-0.390173 0.66601,-0.919922 0.1805,-0.529427 0.31935,-1.309121 0.49024,-2.033203 0.17088,-0.724044 0.37109,-1.410061 0.65625,-2.554687 0.28516,-1.144622 0.64865,-2.720961 1.24023,-4.783204 0.59159,-2.062251 1.41387,-4.618646 2.33399,-7.300781 0.92012,-2.682136 1.93843,-5.486367 3.04297,-8.121093 1.10454,-2.634732 2.30042,-5.108495 3.54101,-7.492188 1.24058,-2.383697 2.52507,-4.676383 3.83594,-6.958984 1.31087,-2.282603 2.63956,-4.538503 4.18945,-6.669922 1.54991,-2.131423 3.33541,-4.158432 5.11328,-6.046875 1.77787,-1.888443 3.53685,-3.628758 5.26563,-5.09375 1.72878,-1.464991 3.4437,-2.668629 5.30078,-3.976563 1.85709,-1.307935 3.82781,-2.697409 5.95898,-3.880859 2.13117,-1.183445 4.4432,-2.173408 6.87305,-2.996094 2.42983,-0.822681 4.98119,-1.480926 7.2832,-2 2.30201,-0.519072 4.3336,-0.895227 6.80274,-1.121094 2.46912,-0.225867 5.37254,-0.300073 8.83984,-0.05469 3.4673,0.245389 7.504,0.811699 11.277349,1.613281 3.77334,0.801578 7.29368,1.840827 10.52148,2.929688 3.22778,1.088857 6.14609,2.221457 9.00195,3.677734 2.85585,1.456264 5.66603,3.246402 8.22657,5.007813 2.56053,1.761405 4.865,3.490509 6.92773,5.158203 2.06273,1.667684 3.88203,3.273257 5.44336,4.798828 1.56132,1.525555 2.86257,2.966678 4.5,5.005859 1.63742,2.039169 3.60356,4.669263 5.34961,7.3125 1.74604,2.643224 3.2768,5.30782 4.60156,7.953125 1.32476,2.645289 2.44207,5.267459 3.38672,7.994141 0.94465,2.726663 1.71738,5.562353 2.44727,8.697265 0.72989,3.134904 1.41744,6.569629 2.0625,9.84375 0.64506,3.274122 1.24543,6.375782 1.86133,10.310552 0.61589,3.93476 1.24763,8.71097 1.80468,12.76757 0.55706,4.05661 1.03953,7.3837 1.47852,11.11719 0.43899,3.73348 0.83644,7.8813 1.19727,11.99024 0.36082,4.10892 0.68509,8.1755 0.93554,12.61914 0.25045,4.44362 0.4261,9.26968 0.55664,13.6875 0.13016,4.40465 0.2153,8.40369 0.29883,12.40429 -0.0837,4.78324 -0.16864,9.56324 -0.29883,14.35743 -0.13059,4.80918 -0.30619,9.63449 -0.55664,14.07812 -0.25045,4.44363 -0.57472,8.51022 -0.93554,12.61914 -0.36083,4.10894 -0.75828,8.25675 -1.19727,11.99024 -0.43899,3.73348 -0.92146,7.06058 -1.47852,11.11718 -0.55705,4.05661 -1.18879,8.83282 -1.80468,12.76758 -0.6159,3.93477 -1.21627,7.03642 -1.86133,10.31055 -0.64506,3.27411 -1.33261,6.70885 -2.0625,9.84375 -0.72989,3.13491 -1.50262,5.9706 -2.44727,8.69726 -0.94465,2.72669 -2.06196,5.34886 -3.38672,7.99414 -1.32476,2.64531 -2.85552,5.30991 -4.60156,7.95313 -1.74605,2.64323 -3.71219,5.27137 -5.34961,7.31055 -1.63743,2.03917 -2.93868,3.48225 -4.5,5.00781 -1.56133,1.52556 -3.38063,3.13114 -5.44336,4.79883 -2.06273,1.66769 -4.3672,3.39679 -6.92773,5.1582 -2.56054,1.76141 -5.37072,3.54959 -8.22657,5.00586 -2.85586,1.45628 -5.77417,2.59083 -9.00195,3.67969 -3.2278,1.08886 -6.74814,2.12616 -10.52148,2.92773 -3.773349,0.80159 -7.810049,1.36985 -11.277349,1.61524 -3.4673,0.24539 -6.37072,0.17119 -8.83984,-0.0547 -2.46914,-0.22586 -4.50073,-0.60398 -6.80274,-1.12305 -2.30201,-0.51908 -4.85338,-1.17536 -7.2832,-1.99805 -2.42985,-0.82269 -4.74188,-1.81264 -6.87305,-2.99609 -2.13117,-1.18345 -4.10189,-2.57292 -5.95898,-3.88086 -1.85708,-1.30793 -3.572,-2.51352 -5.30078,-3.97851 -1.72878,-1.465 -3.48776,-3.20336 -5.26563,-5.0918 -1.77787,-1.88844 -3.56337,-3.91545 -5.11328,-6.04688 -1.54989,-2.13141 -2.87858,-4.38732 -4.18945,-6.66992 -1.31087,-2.2826 -2.59536,-4.57529 -3.83594,-6.95898 -1.24059,-2.3837 -2.43647,-4.85746 -3.54101,-7.49219 -1.10454,-2.63472 -2.12285,-5.44091 -3.04297,-8.12305 -0.92012,-2.68213 -1.7424,-5.23658 -2.33399,-7.29883 -0.59158,-2.06222 -0.95507,-3.63858 -1.24023,-4.7832 -0.28516,-1.14463 -0.48537,-1.83065 -0.65625,-2.55469 -0.17089,-0.72407 -0.30974,-1.50377 -0.49024,-2.0332 -0.1806,-0.52975 -0.50841,-0.814 -0.66601,-0.91992 l -0.55664,0.83008 c 0.15761,0.10592 0.1467,0.0346 0.27539,0.41211 0.1288,0.37779 0.28639,1.18335 0.46484,1.93945 0.17846,0.75614 0.37896,1.43768 0.66016,2.56641 0.2812,1.12872 0.64913,2.73054 1.24805,4.81836 0.59891,2.0878 1.42558,4.65411 2.3496,7.34765 0.92403,2.69354 1.94668,5.51924 3.06446,8.18555 1.11778,2.6663 2.3263,5.16489 3.57617,7.5664 1.24985,2.40151 2.54304,4.70738 3.85742,6.9961 1.31439,2.28871 2.65873,4.57681 4.2461,6.75976 1.58737,2.18296 3.4018,4.23948 5.19531,6.14454 1.79351,1.90505 3.57652,3.66903 5.34765,5.16992 1.77114,1.50088 3.5146,2.72568 5.3711,4.0332 1.8565,1.30752 3.85611,2.71987 6.04883,3.9375 2.19272,1.21763 4.55918,2.22939 7.03711,3.06836 2.47793,0.83897 5.06274,1.50331 7.38671,2.02734 2.32399,0.52403 4.40946,0.91009 6.92969,1.14063 2.52025,0.23055 5.48124,0.30585 9.00195,0.0566 3.52073,-0.24917 7.59462,-0.82102 11.416019,-1.63281 3.82143,-0.81179 7.37888,-1.86131 10.63281,-2.95899 3.25394,-1.09768 6.22229,-2.24823 9.13672,-3.73437 2.91445,-1.48615 5.75641,-3.29841 8.33789,-5.07422 2.5815,-1.77583 4.90715,-3.52093 6.99024,-5.20508 2.0831,-1.68416 3.92539,-3.30943 5.51367,-4.86133 1.5883,-1.55192 2.92481,-3.0343 4.58008,-5.0957 1.65528,-2.06142 3.63795,-4.7098 5.40625,-7.38672 1.76831,-2.67693 3.31774,-5.37609 4.66016,-8.05664 1.34242,-2.68057 2.47788,-5.34539 3.4375,-8.11523 0.95961,-2.76987 1.74151,-5.63984 2.47656,-8.79688 0.73504,-3.15705 1.42291,-6.60091 2.06836,-9.87695 0.64544,-3.27605 1.25029,-6.39595 1.86914,-10.34961 0.61885,-3.95367 1.25207,-8.73243 1.80859,-12.78516 0.55653,-4.05272 1.03768,-7.38946 1.47852,-11.13867 0.44084,-3.74921 0.83987,-7.90328 1.20117,-12.01758 0.3613,-4.11429 0.68625,-8.19265 0.9375,-12.65039 0.25125,-4.45774 0.42782,-9.29182 0.55859,-14.10742 0.13039,-4.80124 0.21515,-9.58523 0.29883,-14.36914 1.1e-4,-0.006 -1.1e-4,-0.013 0,-0.0195 1.4e-4,-0.008 -1.4e-4,-0.0156 0,-0.0234 z" />
    <circle
       style="fill:#464849;fill-opacity:1;stroke:#1f1f1f;stroke-width:2.59997;stroke-linejoin:round;stroke-miterlimit:4;stroke-dasharray:none;stroke-opacity:1"
       id="path7034"
       cx="82.744698"
       cy="-97.609886"
       r="34.076027"
       transform="rotate(90)" />
    <g
       style="fill:#5c5f61;fill-opacity:1"
       transform="matrix(1.479555,-0.07338421,-0.07338421,-1.479555,76.921241,66.860294)"
       id="g212-5-7-2">
      <path
         id="path214-9-9-8"
         style="fill:#5c5f61;fill-opacity:1;fill-rule:nonzero;stroke:none"
         d="M 0,0 -0.2,0.67 -1.05,3.53 -1.31,4.38 -0.47,4.06 2.3,2.94 2.94,2.68 2.42,2.22 0.52,0.46 Z"
         inkscape:connector-curvature="0" />
    </g>
    <g
       style="fill:#5c5f61;fill-opacity:1"
       transform="matrix(1.479555,-0.07338421,-0.07338421,-1.479555,74.811991,105.67631)"
       id="g216-4-6-9">
      <path
         id="path218-9-0-7"
         style="fill:#5c5f61;fill-opacity:1;fill-rule:nonzero;stroke:none"
         d="M 0,0 0.34,0.84 1.45,3.61 1.72,4.26 2.18,3.75 3.92,1.82 4.38,1.32 3.74,1.12 0.87,0.27 Z"
         inkscape:connector-curvature="0" />
    </g>
    <g
       style="fill:#5c5f61;fill-opacity:1"
       transform="matrix(1.479555,-0.07338421,-0.07338421,-1.479555,120.04196,105.52417)"
       id="g220-0-4-3">
      <path
         id="path222-9-1-6"
         style="fill:#5c5f61;fill-opacity:1;fill-rule:nonzero;stroke:none"
         d="m 0,0 -0.85,0.34 -2.77,1.12 -0.63,0.25 0.5,0.47 1.92,1.75 0.51,0.46 0.19,-0.66 0.87,-2.87 z"
         inkscape:connector-curvature="0" />
    </g>
    <g
       style="fill:#5c5f61;fill-opacity:1"
       transform="matrix(1.479555,-0.07338421,-0.07338421,-1.479555,117.64209,66.709337)"
       id="g224-1-0-1">
      <path
         id="path226-7-4-2"
         style="fill:#5c5f61;fill-opacity:1;fill-rule:nonzero;stroke:none"
         d="M 0,0 -0.46,0.51 -2.2,2.43 -2.67,2.93 -2.01,3.13 0.85,3.99 1.72,4.24 1.38,3.42 0.26,0.63 Z"
         inkscape:connector-curvature="0" />
    </g>
    <path
       inkscape:connector-curvature="0"
       d="m 90.936751,83.295991 c -0.17538,-3.536094 2.53847,-6.533325 6.0894,-6.709447 3.536089,-0.175386 6.562839,2.537118 6.738219,6.073212 0.17612,3.550931 -2.56735,6.549634 -6.103439,6.725014 -3.55094,0.17612 -6.54805,-2.537848 -6.72418,-6.088779 M 104.77709,114.1423 c 0.0123,-6.1e-4 0.0118,-0.0113 0.0304,-0.0122 0.21794,-0.0812 0.36324,-0.15168 0.44732,-0.24433 0.0655,-0.0937 0.14956,-0.25971 0.14666,-0.63054 l -0.0335,-10.84047 c -0.0112,-3.4998 1.03239,-6.39932 3.05275,-8.42768 2.02109,-2.01353 4.97763,-3.10941 8.61066,-3.12646 l 10.33591,-0.0381 c 0.50496,0.005 0.84483,-0.0115 0.96165,-0.0477 0.10183,-0.0354 0.0898,-0.015 0.13964,-0.18481 0.58962,-2.461743 0.92153,-5.044084 0.92334,-7.699118 -0.0118,-2.624606 -0.34789,-5.188699 -0.94161,-7.621393 l -5.2e-4,-0.01053 c -0.0383,-0.146846 -0.0445,-0.146535 -0.12843,-0.20171 -0.0718,-0.03612 -0.27306,-0.105067 -0.64237,-0.101815 l -10.54459,0.01836 c -3.76681,0.0089 -6.75211,-0.970317 -8.79531,-2.989934 -2.04313,-2.019632 -3.09687,-5.022697 -3.10716,-8.819192 l -0.0385,-10.350788 c 0.008,-0.45984 -0.0367,-0.740047 -0.0713,-0.812716 -0.0405,-0.06837 -0.0751,-0.09982 -0.22947,-0.151436 l -0.0309,0.0015 c -0.0123,6.1e-4 -5.2e-4,-0.01053 -0.0128,-0.0099 -2.44687,-0.590341 -4.982749,-0.880036 -7.607409,-0.868478 -2.50627,0.0057 -4.95356,0.305838 -7.29875,0.866645 l -0.0123,6.11e-4 c -0.32246,0.08637 -0.6196,0.35742 -0.6244,1.173023 l 0.0192,10.262777 c 0.0207,3.692139 -1.0331,6.681124 -3.12671,8.727894 -2.10838,2.047603 -5.18623,3.090208 -9.05596,3.11899 l -9.75754,0.0386 c -0.54887,-0.0032 -0.85782,0.05311 -0.98828,0.119393 -0.11515,0.06586 -0.15756,0.09828 -0.22296,0.292488 l 0.002,0.0303 c -0.57852,2.40187 -0.86895,4.908073 -0.84487,7.487643 0.008,2.550602 0.31068,5.012611 0.8705,7.387576 0.0722,0.2045 0.11801,0.2907 0.27153,0.38663 0.13744,0.0837 0.42395,0.17199 0.91274,0.16281 l 9.71463,-0.007 c 3.81047,-0.0262 6.90306,1.02213 9.06383,3.02114 2.14599,1.99965 3.30028,4.93842 3.29817,8.48342 l 0.0458,10.4987 c -0.005,0.51897 0.0705,0.79767 0.13507,0.89801 0.0422,0.1015 0.11214,0.17238 0.48843,0.27227 2.35582,0.55064 4.8169,0.82896 7.33802,0.82253 2.52113,-0.006 4.968339,-0.30658 7.313589,-0.86737"
       style="fill:#575a5c;fill-opacity:1;fill-rule:nonzero;stroke:#252427;stroke-width:0.541754;stroke-miterlimit:4;stroke-dasharray:none;stroke-opacity:1"
       id="path230-7-8-9" />
    <g
       style="fill:#a1a5ba;fill-opacity:1;stroke:#4d4d4d;stroke-width:0.913909;stroke-miterlimit:4;stroke-dasharray:none;stroke-opacity:1"
       transform="matrix(1.4655907,-0.14548132,-0.14548132,-1.4655907,106.38812,234.07556)"
       id="g184-4-9-4-1">
      <path
         id="path186-8-0-9-0"
         style="fill:#a1a5ba;fill-opacity:1;fill-rule:nonzero;stroke:#4d4d4d;stroke-width:0.913909;stroke-miterlimit:4;stroke-dasharray:none;stroke-opacity:1"
         d="m 0,0 c -4.54,0 -8.21,3.67 -8.21,8.21 0,4.54 3.67,8.21 8.21,8.21 4.54,0 8.21,-3.67 8.21,-8.21 C 8.21,3.67 4.53,0 0,0"
         inkscape:connector-curvature="0" />
    </g>
    <g
       style="fill:#a1a5ba;fill-opacity:1;stroke:#4d4d4d;stroke-width:0.913909;stroke-miterlimit:4;stroke-dasharray:none;stroke-opacity:1"
       transform="matrix(1.4655907,-0.14548132,-0.14548132,-1.4655907,125.54715,263.38743)"
       id="g184-4-9-4-1-6">
      <path
         id="path186-8-0-9-0-3"
         style="fill:#a1a5ba;fill-opacity:1;fill-rule:nonzero;stroke:#4d4d4d;stroke-width:0.913909;stroke-miterlimit:4;stroke-dasharray:none;stroke-opacity:1"
         d="m 0,0 c -4.54,0 -8.21,3.67 -8.21,8.21 0,4.54 3.67,8.21 8.21,8.21 4.54,0 8.21,-3.67 8.21,-8.21 C 8.21,3.67 4.53,0 0,0"
         inkscape:connector-curvature="0" />
    </g>
    <g
       style="fill:#a1a5ba;fill-opacity:1;stroke:#4d4d4d;stroke-width:0.913909;stroke-miterlimit:4;stroke-dasharray:none;stroke-opacity:1"
       transform="matrix(1.4655907,-0.14548132,-0.14548132,-1.4655907,137.57905,295.12387)"
       id="g184-4-9-4-1-6-9">
      <path
         id="path186-8-0-9-0-3-4"
         style="fill:#a1a5ba;fill-opacity:1;fill-rule:nonzero;stroke:#4d4d4d;stroke-width:0.913909;stroke-miterlimit:4;stroke-dasharray:none;stroke-opacity:1"
         d="m 0,0 c -4.54,0 -8.21,3.67 -8.21,8.21 0,4.54 3.67,8.21 8.21,8.21 4.54,0 8.21,-3.67 8.21,-8.21 C 8.21,3.67 4.53,0 0,0"
         inkscape:connector-curvature="0" />
    </g>
    <g
       style="fill:#3d3d3e;fill-opacity:1"
       transform="matrix(1.4655907,-0.14548132,-0.14548132,-1.4655907,103.72426,226.16133)"
       id="g292-5-7-0-6">
      <path
         id="path294-6-4-9-3"
         style="fill:#3d3d3e;fill-opacity:1;fill-rule:nonzero;stroke:none"
         d="M 0,0 0.876,2.409 -1.548,3.128 -2.271,4.589 1.253,3.499 2.544,6.972 3.267,5.511 2.349,3.138 4.815,2.383 5.52,0.958 1.967,2.056 0.705,-1.425 Z"
         inkscape:connector-curvature="0" />
    </g>
    <g
       style="fill:#3d3d3e;fill-opacity:1"
       transform="matrix(1.4655907,-0.14548132,-0.14548132,-1.4655907,124.19453,253.30194)"
       id="g296-1-9-1-2">
      <path
         id="path298-1-9-7-0"
         style="fill:#3d3d3e;fill-opacity:1;fill-rule:nonzero;stroke:none"
         d="m 0,0 -1.779,-0.88 -0.753,1.521 1.779,0.881 1.7,4.201 L 1.761,4.079 0.447,1.162 3.558,0.448 4.371,-1.196 Z"
         inkscape:connector-curvature="0" />
    </g>
    <g
       style="fill:#3d3d3e;fill-opacity:1"
       transform="matrix(1.4655907,-0.14548132,-0.14548132,-1.4655907,130.81946,281.41735)"
       id="g300-5-4-7-6">
      <path
         id="path302-9-5-1-1"
         style="fill:#3d3d3e;fill-opacity:1;fill-rule:nonzero;stroke:none"
         d="M 0,0 0.756,0.374 5.53,-1.204 4.048,1.792 4.901,2.215 7.296,-2.624 6.494,-3.021 1.778,-1.443 3.439,-4.8 2.585,-5.223 Z"
         inkscape:connector-curvature="0" />
    </g>
    <g
       id="g172-8-9-5-6"
       transform="matrix(1.3455768,0,0,-1.3455768,67.463651,250.07959)"
       style="fill:#4fa66a;fill-opacity:1;stroke:#4d4d4d;stroke-width:1.00031;stroke-miterlimit:4;stroke-dasharray:none;stroke-opacity:1">
      <path
         inkscape:connector-curvature="0"
         d="m 0,0 c -6.4,0 -11.57,5.16 -11.57,11.56 0,6.4 5.17,11.58 11.57,11.58 6.4,0 11.58,-5.18 11.58,-11.58 C 11.58,5.16 6.4,0 0,0"
         style="fill:#4fa66a;fill-opacity:1;fill-rule:nonzero;stroke:#4d4d4d;stroke-width:1.00031;stroke-miterlimit:4;stroke-dasharray:none;stroke-opacity:1"
         id="path174-4-3-9-9" />
    </g>
    <g
       id="g172-8-9-5-0-3"
       transform="matrix(1.3455768,0,0,-1.3455768,89.362791,283.60135)"
       style="fill:#fde862;fill-opacity:1;stroke:#4d4d4d;stroke-opacity:1">
      <path
         inkscape:connector-curvature="0"
         d="m 0,0 c -6.4,0 -11.57,5.16 -11.57,11.56 0,6.4 5.17,11.58 11.57,11.58 6.4,0 11.58,-5.18 11.58,-11.58 C 11.58,5.16 6.4,0 0,0"
         style="fill:#fde862;fill-opacity:1;fill-rule:nonzero;stroke:#4d4d4d;stroke-opacity:1"
         id="path174-4-3-9-3-7" />
    </g>
    <g
       id="g172-8-9-5-0-0-4"
       transform="matrix(1.3455768,0,0,-1.3455768,103.53274,320.65805)"
       style="fill:#2e5ccf;fill-opacity:1;stroke:#4d4d4d;stroke-opacity:1">
      <path
         inkscape:connector-curvature="0"
         d="m 0,0 c -6.4,0 -11.57,5.16 -11.57,11.56 0,6.4 5.17,11.58 11.57,11.58 6.4,0 11.58,-5.18 11.58,-11.58 C 11.58,5.16 6.4,0 0,0"
         style="fill:#2e5ccf;fill-opacity:1;fill-rule:nonzero;stroke:#4d4d4d;stroke-opacity:1"
         id="path174-4-3-9-3-9-5" />
    </g>
    <g
       id="g304-8-5-7-2"
       transform="matrix(1.3054767,0,0,-1.3054767,68.681241,236.18409)"
       style="fill:#343434;fill-opacity:1">
      <path
         inkscape:connector-curvature="0"
         d="M 0,0 1.272,1.879 1.008,2.43 -1.214,2.544 Z m -1.029,-2.906 -0.408,0.855 0.896,1.378 -1.548,3.242 -1.617,0.132 -0.425,0.893 5.666,-0.488 0.601,-1.259 z"
         style="fill:#343434;fill-opacity:1;fill-rule:nonzero;stroke:none"
         id="path306-1-7-7-5" />
    </g>
    <g
       id="g308-0-1-6-4"
       transform="matrix(1.2917261,0,0,-1.2917261,91.512501,269.8231)"
       style="fill:#343434;fill-opacity:1">
      <path
         inkscape:connector-curvature="0"
         d="M 0,0 -1.542,3.265 -0.413,3.798 1.129,0.533 C 1.286,0.2 1.173,-0.057 0.794,-0.236 0.419,-0.413 0.157,-0.333 0,0 M -1.891,-0.893 -2.133,-0.38 -3.424,2.377 -2.296,2.91 -0.98,0.123 -0.762,-0.36 c 0.157,-0.333 0.048,-0.588 -0.322,-0.763 -0.379,-0.179 -0.65,-0.103 -0.807,0.23 m 1.828,-0.074 C 0.162,-1.207 0.5,-1.241 0.948,-1.08 l 0.387,0.172 c 0.754,0.356 0.921,0.975 0.508,1.849 L -0.024,4.894 -0.769,4.552 -3.78,3.13 -4.53,2.766 -2.664,-1.187 c 0.413,-0.874 1,-1.137 1.75,-0.783 l 0.379,0.189 c 0.331,0.207 0.489,0.476 0.472,0.814"
         style="fill:#343434;fill-opacity:1;fill-rule:nonzero;stroke:none"
         id="path310-4-9-5-7" />
    </g>
    <g
       id="g312-4-8-4-4"
       transform="matrix(1.2917261,0,0,-1.2917261,106.26009,305.49017)"
       style="fill:#343434;fill-opacity:1">
      <path
         inkscape:connector-curvature="0"
         d="M 0,0 -0.791,1.919 C -1.315,3.207 -1.783,2.883 -2.809,2.462 -3.836,2.042 -4.394,1.947 -3.868,0.664 l 1.39,-3.396 -0.77,-0.315 -1.393,3.39 c -0.737,1.793 -0.028,2.248 1.512,2.879 1.54,0.631 2.369,0.813 3.104,-0.966 L 1.372,-1.155 0.608,-1.468 Z"
         style="fill:#343434;fill-opacity:1;fill-rule:nonzero;stroke:none"
         id="path314-7-2-8-4" />
    </g>
    <g
       id="g10316-1-3"
       transform="matrix(0,0.99388883,-0.99388883,0,-16.966679,-32.114237)"
       style="fill:#464849;fill-opacity:1">
      <g
         transform="matrix(0,-1.2499787,-1.2499787,0,231.61432,-151.61803)"
         id="g240-7-6-2-0"
         style="fill:#464849;fill-opacity:1">
        <path
           id="path242-7-2-7-7"
           style="fill:#464849;fill-opacity:1;fill-rule:nonzero;stroke:none"
           d="M 0,0 V 6.437 H 1.505 V 2.025 c 0.971,0.321 1.76,0.586 2.553,0.843 1.975,0.64 3.967,1.238 5.918,1.941 0.472,0.17 1.057,0.629 1.155,1.049 C 11.295,6.565 10.562,6.794 9.955,6.99 6.927,7.969 3.91,8.976 0.872,9.923 c -0.714,0.222 -0.954,0.547 -0.935,1.265 0.054,1.975 0.005,3.952 0.023,5.927 0.018,2.002 1.328,3.311 3.4,3.355 1.866,0.039 3.735,0.043 5.601,-10e-4 2.104,-0.048 3.385,-1.315 3.414,-3.338 0.025,-1.781 0.005,-3.562 0.005,-5.406 h -1.585 c 0,1.53 0,3.052 0,4.574 10e-4,2.147 -0.518,2.64 -2.782,2.641 -1.408,0 -2.817,0.006 -4.226,-0.002 C 2.28,18.929 1.546,18.243 1.531,16.825 1.519,15.673 1.528,14.522 1.528,13.311 h 4.914 v 2.931 H 7.971 V 11.676 H 1.498 C 1.488,11.593 1.478,11.51 1.468,11.427 4.444,10.461 7.42,9.493 10.397,8.53 12.099,7.979 12.791,6.965 12.539,5.33 12.4,4.42 11.869,3.746 10.968,3.448 7.394,2.265 3.807,1.118 0.224,-0.038 0.17,-0.055 0.098,-0.018 0,0"
           inkscape:connector-curvature="0" />
      </g>
      <g
         transform="matrix(0,-1.2499787,-1.2499787,0,181.19333,-151.57696)"
         id="g244-6-2-0-8"
         style="fill:#464849;fill-opacity:1">
        <path
           id="path246-7-4-9-6"
           style="fill:#464849;fill-opacity:1;fill-rule:nonzero;stroke:none"
           d="m 0,0 h 1.567 c 0,-1.717 -0.019,-3.401 0.006,-5.085 0.02,-1.409 1.043,-2.462 2.381,-2.512 1.308,-0.05 2.427,0.992 2.525,2.377 0.039,0.563 -0.015,1.133 0.045,1.692 0.093,0.862 0.905,1.49 1.844,1.489 0.951,-10e-4 1.801,-0.622 1.826,-1.491 0.054,-1.842 0.017,-3.685 0.017,-5.577 h -1.55 v 2.802 2.612 C 8.487,-3.692 8.313,-3.69 8.139,-3.688 8.116,-4.204 8.084,-4.72 8.072,-5.237 8.027,-7.183 6.893,-8.589 4.967,-9.074 2.615,-9.667 0.112,-7.979 0.015,-5.654 -0.061,-3.81 0,-1.96 0,0"
           inkscape:connector-curvature="0" />
      </g>
      <g
         transform="matrix(0,-1.2499787,-1.2499787,0,181.1741,-154.30404)"
         id="g248-3-7-3-8"
         style="fill:#464849;fill-opacity:1">
        <path
           id="path250-6-9-6-8"
           style="fill:#464849;fill-opacity:1;fill-rule:nonzero;stroke:none"
           d="m 0,0 h 1.619 v -5.433 c 0.151,0 0.303,-0.001 0.455,-0.001 0.022,0.554 0.055,1.107 0.065,1.662 0.027,1.555 0.771,2.712 2.203,3.394 1.459,0.694 2.92,0.587 4.261,-0.328 0.92,-0.627 1.543,-1.494 1.578,-2.586 0.061,-1.908 0.017,-3.82 0.017,-5.805 H 8.645 c 0,1.714 0.029,3.43 -0.008,5.145 C 8.6,-2.25 7.011,-1.145 5.41,-1.659 4.447,-1.968 3.8,-2.851 3.734,-3.983 3.702,-4.515 3.742,-5.052 3.688,-5.581 3.6,-6.439 2.792,-7.089 1.866,-7.099 0.941,-7.109 0.04,-6.46 0.016,-5.622 -0.036,-3.779 0,-1.935 0,0"
           inkscape:connector-curvature="0" />
      </g>
      <g
         transform="matrix(0,-1.2499787,-1.2499787,0,205.03499,-167.02602)"
         id="g252-5-3-0-4"
         style="fill:#464849;fill-opacity:1">
        <path
           id="path254-6-9-6-3"
           style="fill:#464849;fill-opacity:1;fill-rule:nonzero;stroke:none"
           d="m 0,0 h -1.532 c 0,1.698 0.002,3.38 0,5.061 -0.002,1.768 -0.627,2.384 -2.457,2.396 -1.473,0.009 -2.946,0.004 -4.419,-0.007 -1.7,-0.013 -2.385,-0.666 -2.389,-2.269 -0.005,-1.686 -10e-4,-3.372 -10e-4,-5.121 h -1.573 c 0,1.258 -0.002,2.497 0.001,3.735 0.002,0.784 -0.026,1.57 0.029,2.35 0.102,1.437 1.446,2.745 2.95,2.782 2.158,0.053 4.32,0.05 6.479,0.001 1.383,-0.032 2.806,-1.2 2.88,-2.521 C 0.087,4.292 0,2.166 0,0"
           inkscape:connector-curvature="0" />
      </g>
      <g
         transform="matrix(0,-1.2499787,-1.2499787,0,223.45175,-156.53295)"
         id="g256-3-2-2-1"
         style="fill:#464849;fill-opacity:1">
        <path
           id="path258-9-6-6-4"
           style="fill:#464849;fill-opacity:1;fill-rule:nonzero;stroke:none"
           d="m 0,0 v -1.294 c 0.624,0.202 1.153,0.373 1.682,0.543 C 1.678,-0.676 1.673,-0.602 1.668,-0.528 1.156,-0.366 0.645,-0.204 0,0 M -3.897,3.152 C -0.524,2.06 2.777,0.998 6.068,-0.089 6.301,-0.166 6.549,-0.407 6.628,-0.625 6.671,-0.745 6.413,-1.08 6.227,-1.143 3.589,-2.029 0.94,-2.886 -1.781,-3.774 v 3.687 c 0.391,0.041 0.739,0.077 1.087,0.114 0.019,0.052 0.039,0.105 0.058,0.158 -0.611,0.21 -1.22,0.426 -1.833,0.629 -1.626,0.541 -1.627,0.539 -1.428,2.338"
           inkscape:connector-curvature="0" />
      </g>
      <g
         transform="matrix(0,-1.2499787,-1.2499787,0,212.66088,-156.73114)"
         id="g260-4-8-1-9"
         style="fill:#464849;fill-opacity:1">
        <path
           id="path262-8-3-8-2"
           style="fill:#464849;fill-opacity:1;fill-rule:nonzero;stroke:none"
           d="M 0,0 C 0.138,0.472 0.22,0.752 0.318,1.088 H 1.71 v -2.392 h -3.646 c 0,1.223 -0.069,2.439 0.047,3.638 0.031,0.312 0.631,0.802 0.988,0.817 1.962,0.082 3.93,0.058 5.895,0.035 C 5.683,3.177 6.087,2.774 6.094,2.109 6.111,0.293 6.1,-1.524 6.1,-3.422 H 4.541 c 0,1.367 -0.038,2.708 0.014,4.045 C 4.588,1.444 4.288,1.761 3.423,1.708 2.509,1.653 1.589,1.705 0.672,1.694 -0.423,1.68 -0.686,1.175 0,0"
           inkscape:connector-curvature="0" />
      </g>
      <g
         transform="matrix(0,-1.2499787,-1.2499787,0,198.48451,-156.4009)"
         id="g264-1-0-7-0"
         style="fill:#464849;fill-opacity:1">
        <path
           id="path266-2-7-9-6"
           style="fill:#464849;fill-opacity:1;fill-rule:nonzero;stroke:none"
           d="m 0,0 c -0.315,-1.688 0.015,-3.436 -0.183,-5.186 h -1.486 c 0,2.002 -0.049,3.964 0.049,5.92 0.016,0.312 0.653,0.779 1.064,0.85 0.789,0.136 1.622,0.04 2.519,0.04 V -3.944 H 0.494 v 3.892 C 0.329,-0.034 0.165,-0.017 0,0"
           inkscape:connector-curvature="0" />
      </g>
      <g
         transform="matrix(0,-1.2499787,-1.2499787,0,205.0355,-164.33703)"
         id="g268-9-1-2-8"
         style="fill:#464849;fill-opacity:1">
        <path
           id="path270-3-7-0-9"
           style="fill:#464849;fill-opacity:1;fill-rule:nonzero;stroke:none"
           d="M 0,0 H -1.477 C -1.724,1.736 -1.319,3.517 -1.696,5.223 -1.831,5.217 -1.967,5.211 -2.102,5.206 V 1.294 h -1.543 v 5.553 c 0.905,0 1.85,0.078 2.766,-0.041 0.328,-0.043 0.828,-0.553 0.84,-0.865 C 0.038,3.978 0,2.011 0,0"
           inkscape:connector-curvature="0" />
      </g>
    </g>
    <path
       id="path30456-2"
       style="font-variation-settings:normal;vector-effect:none;fill:#c3c2c7;fill-opacity:1;stroke:none;stroke-width:2.79418;stroke-linecap:butt;stroke-linejoin:round;stroke-miterlimit:4;stroke-dasharray:none;stroke-dashoffset:0;stroke-opacity:1;-inkscape-stroke:none;stop-color:#000000"
       d="m 68.720251,151.80426 c -3.48366,0.01 -6.62419,4.79003 -8.05859,12.34375 -0.006,0.0315 -0.0583,0.11381 -0.1211,0.19531 -0.0672,0.0872 -0.16032,0.21592 -0.26757,0.33789 -1.58771,1.80552 -2.48415,4.17533 -2.48415,8.31251 0,4.13717 0.89644,6.50697 2.48415,8.31249 0.10725,0.12197 0.20037,0.25069 0.26757,0.33789 0.0627,0.0815 0.1151,0.16382 0.1211,0.19532 1.4344,7.55372 4.57493,12.33375 8.05859,12.34375 4.9038,-10e-4 8.87885,-9.48071 8.87885,-21.18946 0,-11.70874 -3.97505,-21.18818 -8.87885,-21.18945 z"
       sodipodi:nodetypes="cssccsccccc" />
    <ellipse
       style="fill:#bd3786;fill-opacity:1;stroke:none;stroke-width:1.9104;stroke-linejoin:round;stroke-miterlimit:4;stroke-dasharray:none;stroke-opacity:1"
       id="path30456-7"
       cx="172.97791"
       cy="-68.719872"
       rx="14.476892"
       ry="6.0712419"
       transform="rotate(90)" />
    <path
       sodipodi:nodetypes="cccc"
       inkscape:connector-curvature="0"
       id="rect5964"
       d="m 178.49771,258.46952 -2.88159,-3.45391 h 5.80283 z"
       style="vector-effect:none;fill:#999999;fill-opacity:1;stroke:none;stroke-width:0.360415;stroke-linecap:round;stroke-linejoin:miter;stroke-miterlimit:4;stroke-dasharray:none;stroke-dashoffset:0;stroke-opacity:1;paint-order:normal" />
    <path
       sodipodi:nodetypes="cccc"
       inkscape:connector-curvature="0"
       id="rect5964-4"
       d="m 178.49771,262.38468 -2.88159,-3.45391 h 5.80283 z"
       style="vector-effect:none;fill:#999999;fill-opacity:1;stroke:none;stroke-width:0.360415;stroke-linecap:round;stroke-linejoin:miter;stroke-miterlimit:4;stroke-dasharray:none;stroke-dashoffset:0;stroke-opacity:1;paint-order:normal" />
    <rect
       y="-264.8204"
       x="-181.3867"
       height="1.963455"
       width="5.7383127"
       id="rect5984"
       style="vector-effect:none;fill:#999999;fill-opacity:1;stroke:none;stroke-width:0.467007;stroke-linecap:round;stroke-linejoin:miter;stroke-miterlimit:4;stroke-dasharray:none;stroke-dashoffset:0;stroke-opacity:1;paint-order:normal"
       transform="scale(-1)" />
    <g
       id="g44109"
       transform="rotate(80.107751,102.52314,97.055356)"
       style="fill:#999999;fill-opacity:1">
      <path
         sodipodi:nodetypes="cccc"
         inkscape:connector-curvature="0"
         id="rect5964-4-7"
         d="m 288.99776,78.03092 -2.73333,2.280409 v -4.592205 z"
         style="vector-effect:none;fill:#999999;fill-opacity:1;stroke:none;stroke-width:0.285223;stroke-linecap:round;stroke-linejoin:miter;stroke-miterlimit:4;stroke-dasharray:none;stroke-dashoffset:0;stroke-opacity:1;paint-order:normal" />
      <rect
         y="-290.54861"
         x="75.744652"
         height="0.96757734"
         width="4.5411439"
         id="rect5984-7"
         style="vector-effect:none;fill:#999999;fill-opacity:1;stroke:none;stroke-width:0.29164;stroke-linecap:round;stroke-linejoin:miter;stroke-miterlimit:4;stroke-dasharray:none;stroke-dashoffset:0;stroke-opacity:1;paint-order:normal"
         transform="rotate(90)" />
      <rect
         y="-292.02615"
         x="75.744652"
         height="0.96757734"
         width="4.5411439"
         id="rect5984-7-1"
         style="vector-effect:none;fill:#999999;fill-opacity:1;stroke:none;stroke-width:0.29164;stroke-linecap:round;stroke-linejoin:miter;stroke-miterlimit:4;stroke-dasharray:none;stroke-dashoffset:0;stroke-opacity:1;paint-order:normal"
         transform="rotate(90)" />
    </g>
    <path
       sodipodi:nodetypes="cccc"
       inkscape:connector-curvature="0"
       id="rect5964-0"
       d="m 178.49771,87.7159 -2.88159,3.45391 h 5.80283 z"
       style="vector-effect:none;fill:#999999;fill-opacity:1;stroke:none;stroke-width:0.360415;stroke-linecap:round;stroke-linejoin:miter;stroke-miterlimit:4;stroke-dasharray:none;stroke-dashoffset:0;stroke-opacity:1;paint-order:normal" />
    <path
       sodipodi:nodetypes="cccc"
       inkscape:connector-curvature="0"
       id="rect5964-4-9"
       d="m 178.49771,83.80074 -2.88159,3.45391 h 5.80283 z"
       style="vector-effect:none;fill:#999999;fill-opacity:1;stroke:none;stroke-width:0.360415;stroke-linecap:round;stroke-linejoin:miter;stroke-miterlimit:4;stroke-dasharray:none;stroke-dashoffset:0;stroke-opacity:1;paint-order:normal" />
    <rect
       y="81.365013"
       x="-181.3867"
       height="1.963455"
       width="5.7383127"
       id="rect5984-1"
       style="vector-effect:none;fill:#999999;fill-opacity:1;stroke:none;stroke-width:0.467007;stroke-linecap:round;stroke-linejoin:miter;stroke-miterlimit:4;stroke-dasharray:none;stroke-dashoffset:0;stroke-opacity:1;paint-order:normal"
       transform="scale(-1,1)" />
    <rect
       style="font-variation-settings:normal;vector-effect:none;fill:#999999;fill-opacity:1;stroke:none;stroke-width:2.6589;stroke-linecap:butt;stroke-linejoin:round;stroke-miterlimit:4;stroke-dasharray:none;stroke-dashoffset:0;stroke-opacity:1;-inkscape-stroke:none;stop-color:#000000"
       id="rect45044"
       width="4.7833505"
       height="4.7833505"
       x="279.7453"
       y="-18.326145"
       transform="rotate(61.410401)" />
    <path
       id="path45678"
       style="font-variation-settings:normal;vector-effect:none;fill:#999999;fill-opacity:1;stroke:none;stroke-width:2.95623;stroke-linecap:butt;stroke-linejoin:round;stroke-miterlimit:4;stroke-dasharray:none;stroke-dashoffset:0;stroke-opacity:1;-inkscape-stroke:none;stop-color:#000000"
       d="m 121.52232,207.97039 a 3.7662656,3.7662656 0 0 0 -4.85538,0.80232 3.7662656,3.7662656 0 0 0 0.0927,4.92037 l 0.67843,-0.81518 a 2.7221594,2.7221594 0 0 1 0.0321,-3.43675 2.7221594,2.7221594 0 0 1 3.37381,-0.65559 z m 0.84219,0.70091 -0.67593,0.81218 a 2.7221594,2.7221594 0 0 1 -0.0331,3.441 2.7221594,2.7221594 0 0 1 -3.3778,0.65735 l -0.67592,0.81216 a 3.7662656,3.7662656 0 0 0 4.85538,-0.80232 3.7662656,3.7662656 0 0 0 -0.0927,-4.92037 z" />
    <path
       id="path46504-9"
       style="color:#000000;fill:#666666;fill-opacity:1;-inkscape-stroke:none"
       d="m 158.73197,166.99512 c -0.0502,-2.20947 -0.1142,-4.45889 -0.21289,-6.60938 -0.0987,-2.15047 -0.23247,-4.19645 -0.33008,-5.88867 -0.0976,-1.69222 -0.15957,-3.04142 -0.26172,-4.11914 -0.10213,-1.07767 -0.24478,-1.88952 -0.5039,-2.63476 -0.25906,-0.74507 -0.62435,-1.40146 -1.00196,-1.95899 -0.37752,-0.55741 -0.77533,-1.02697 -1.19921,-1.43945 -0.42306,-0.41168 -0.87442,-0.76797 -1.43946,-1.10156 -0.5654,-0.33382 -1.26557,-0.65267 -4.28515,-1.64649 -3.01957,-0.99381 -8.39742,-2.67882 -13.77539,-4.36523 l -0.0861,0.39329 c 5.37797,1.68642 10.54528,3.93452 13.54899,4.92311 3.00368,0.98859 3.59207,1.26081 4.08984,1.55469 0.49814,0.2941 0.87059,0.59168 1.24805,0.95899 0.37663,0.3665 0.7293,0.77971 1.07031,1.2832 0.34093,0.50337 0.66182,1.08536 0.88477,1.72656 0.22288,0.64102 0.35679,1.3634 0.45507,2.40039 0.0983,1.03694 0.15986,2.38372 0.25782,4.08203 0.098,1.69832 0.23195,3.73877 0.33008,5.87696 0.0981,2.13817 0.16081,4.38018 0.21093,6.58593 0.0458,2.01619 0.0795,3.99854 0.11328,5.98243 -0.0337,1.98452 -0.0674,3.96753 -0.11328,5.98437 -0.0501,2.20575 -0.1128,4.44777 -0.21093,6.58594 -0.0981,2.13819 -0.23212,4.17863 -0.33008,5.87695 -0.098,1.69831 -0.15954,3.04509 -0.25782,4.08203 -0.0983,1.03699 -0.23219,1.75937 -0.45507,2.40039 -0.22295,0.6412 -0.54384,1.2232 -0.88477,1.72656 -0.34101,0.50349 -0.69368,0.91671 -1.07031,1.28321 -0.37746,0.3673 -0.74991,0.66488 -1.24805,0.95898 -0.49777,0.29388 -1.08616,0.5661 -4.08984,1.55469 -3.00371,0.98859 -8.23282,3.15005 -13.61079,4.83647 l 0.1479,0.47994 c 5.37797,-1.68641 10.75582,-3.37143 13.77539,-4.36524 3.01958,-0.99382 3.71975,-1.31266 4.28515,-1.64648 0.56504,-0.33359 1.0164,-0.68989 1.43946,-1.10157 0.42388,-0.41247 0.82169,-0.88204 1.19922,-1.43945 0.3776,-0.55753 0.74289,-1.21391 1.00195,-1.95898 0.25912,-0.74524 0.40177,-1.5571 0.50391,-2.63477 0.10214,-1.07772 0.1641,-2.42692 0.26171,-4.11914 0.0976,-1.69222 0.23139,-3.7382 0.33008,-5.88867 0.0987,-2.15049 0.16268,-4.39991 0.21289,-6.60938 0.0418,-1.84121 0.0707,-3.64929 0.0707,-6.00488 0,-2.35559 -0.0289,-4.16366 -0.0707,-6.00488 z"
       sodipodi:nodetypes="sssssssssccssssssssscsssssssssccssssssssscss" />
    <g
       aria-label="START"
       transform="matrix(0,1.1401084,-0.8771096,0,230.96244,-11.12738)"
       id="text49632-7-6"
       style="font-weight:bold;font-size:6.57839px;line-height:1.25;font-family:Arial;-inkscape-font-specification:'Arial Bold';text-align:center;letter-spacing:0px;word-spacing:0px;baseline-shift:baseline;text-anchor:middle;vector-effect:none;fill:#9e9e9e;fill-opacity:1;stroke-width:0.822298;stop-color:#000000">
      <path
         d="m 150.9674,165.68095 0.92509,-0.0899 q 0.0835,0.46575 0.33727,0.68417 0.25697,0.21843 0.6906,0.21843 0.45933,0 0.69061,-0.19273 0.23448,-0.19594 0.23448,-0.45612 0,-0.16703 -0.0996,-0.28266 -0.0964,-0.11885 -0.34048,-0.20558 -0.16703,-0.0578 -0.76127,-0.20557 -0.76448,-0.18952 -1.07284,-0.46576 -0.43363,-0.38866 -0.43363,-0.94757 0,-0.35975 0.20236,-0.67133 0.20557,-0.31478 0.58781,-0.4786 0.38546,-0.16382 0.9283,-0.16382 0.88654,0 1.33303,0.38867 0.44969,0.38866 0.47217,1.03751 l -0.95078,0.0417 q -0.061,-0.36296 -0.26339,-0.52036 -0.19915,-0.1606 -0.60066,-0.1606 -0.41437,0 -0.64885,0.17024 -0.15097,0.10921 -0.15097,0.2923 0,0.16703 0.14133,0.28588 0.17988,0.15097 0.8737,0.31478 0.69381,0.16382 1.02466,0.34049 0.33406,0.17345 0.52036,0.4786 0.18951,0.30194 0.18951,0.74842 0,0.40473 -0.22484,0.75806 -0.22485,0.35333 -0.636,0.52678 -0.41115,0.17024 -1.02466,0.17024 -0.89297,0 -1.37157,-0.41115 -0.4786,-0.41436 -0.57176,-1.20453 z"
         style="baseline-shift:baseline;vector-effect:none;fill:#9e9e9e;fill-opacity:1;stop-color:#000000;stop-opacity:1"
         id="path68772" />
      <path
         d="m 156.65604,167.21312 v -3.91234 h -1.39726 v -0.79661 h 3.7421 v 0.79661 h -1.39406 v 3.91234 z"
         style="baseline-shift:baseline;vector-effect:none;fill:#9e9e9e;fill-opacity:1;stop-color:#000000;stop-opacity:1"
         id="path68774" />
      <path
         d="m 163.37255,167.21312 h -1.0343 l -0.41114,-1.06963 h -1.8823 l -0.38866,1.06963 h -1.0086 l 1.83411,-4.70895 h 1.00539 z m -1.75059,-1.86302 -0.64885,-1.74739 -0.636,1.74739 z"
         style="baseline-shift:baseline;vector-effect:none;fill:#9e9e9e;fill-opacity:1;stop-color:#000000;stop-opacity:1"
         id="path68776" />
      <path
         d="m 163.88007,167.21312 v -4.70895 h 2.00114 q 0.75484,0 1.09532,0.12849 0.3437,0.12527 0.54927,0.44969 0.20558,0.32443 0.20558,0.742 0,0.53 -0.31158,0.8769 -0.31157,0.3437 -0.93151,0.43364 0.30837,0.17988 0.50752,0.39509 0.20236,0.21521 0.54284,0.76448 l 0.57497,0.91866 h -1.13709 l -0.68739,-1.02466 q -0.36618,-0.54927 -0.50108,-0.6906 -0.13491,-0.14455 -0.28588,-0.19594 -0.15097,-0.0546 -0.47861,-0.0546 h -0.19272 v 1.96581 z m 0.95078,-2.71744 h 0.70345 q 0.68418,0 0.85442,-0.0578 0.17024,-0.0578 0.2666,-0.19915 0.0964,-0.14133 0.0964,-0.35333 0,-0.2377 -0.12849,-0.38224 -0.12527,-0.14776 -0.35654,-0.1863 -0.11564,-0.0161 -0.69382,-0.0161 h -0.74199 z"
         style="baseline-shift:baseline;vector-effect:none;fill:#9e9e9e;fill-opacity:1;stop-color:#000000;stop-opacity:1"
         id="path68778" />
      <path
         d="m 169.68755,167.21312 v -3.91234 h -1.39727 v -0.79661 h 3.74211 v 0.79661 h -1.39406 v 3.91234 z"
         style="baseline-shift:baseline;vector-effect:none;fill:#9e9e9e;fill-opacity:1;stop-color:#000000;stop-opacity:1"
         id="path68780" />
    </g>
  </g>
</svg>
