<?xml version="1.0" encoding="UTF-8" standalone="no"?>
<!-- Generator: Adobe Illustrator 19.0.0, SVG Export Plug-In . SVG Version: 6.00 Build 0)  -->

<svg
   version="1.1"
   id="svg2"
   inkscape:version="1.1.2 (0a00cf5339, 2022-02-04)"
   sodipodi:docname="controller.svg"
   x="0px"
   y="0px"
   viewBox="-382.3 255.5 334.49999 631"
   xml:space="preserve"
   width="334.5"
   height="631"
   xmlns:inkscape="http://www.inkscape.org/namespaces/inkscape"
   xmlns:sodipodi="http://sodipodi.sourceforge.net/DTD/sodipodi-0.dtd"
   xmlns:xlink="http://www.w3.org/1999/xlink"
   xmlns="http://www.w3.org/2000/svg"
   xmlns:svg="http://www.w3.org/2000/svg"
   xmlns:rdf="http://www.w3.org/1999/02/22-rdf-syntax-ns#"
   xmlns:cc="http://creativecommons.org/ns#"
   xmlns:dc="http://purl.org/dc/elements/1.1/"><defs
   id="defs223"><linearGradient
     inkscape:collect="always"
     id="linearGradient276042"><stop
       style="stop-color:#ffffff;stop-opacity:0.99976039"
       offset="0"
       id="stop276038" /><stop
       style="stop-color:#bababa;stop-opacity:1"
       offset="1"
       id="stop276040" /></linearGradient><linearGradient
     inkscape:collect="always"
     id="linearGradient258304"><stop
       style="stop-color:#959595;stop-opacity:1"
       offset="0"
       id="stop258300" /><stop
       style="stop-color:#ffffff;stop-opacity:1"
       offset="1"
       id="stop258302" /></linearGradient><linearGradient
     inkscape:collect="always"
     id="linearGradient126234"><stop
       style="stop-color:#adb9c9;stop-opacity:1"
       offset="0"
       id="stop126230" /><stop
       style="stop-color:#000000;stop-opacity:0.99877363"
       offset="1"
       id="stop126232" /></linearGradient><inkscape:path-effect
     effect="bspline"
     id="path-effect11716"
     is_visible="true"
     lpeversion="1"
     weight="33.333333"
     steps="2"
     helper_size="0"
     apply_no_weight="true"
     apply_with_weight="true"
     only_selected="false" /><linearGradient
     inkscape:collect="always"
     xlink:href="#linearGradient126234"
     id="linearGradient126236"
     x1="-62.653175"
     y1="300.93204"
     x2="-62.653175"
     y2="330.22128"
     gradientUnits="userSpaceOnUse"
     gradientTransform="translate(633.16481,-239.29979)" /><linearGradient
     inkscape:collect="always"
     xlink:href="#linearGradient258304"
     id="linearGradient258306"
     x1="96.876335"
     y1="582.74042"
     x2="106.63822"
     y2="594.51813"
     gradientUnits="userSpaceOnUse"
     gradientTransform="translate(633.16481,-239.29979)" /><linearGradient
     inkscape:collect="always"
     xlink:href="#linearGradient276042"
     id="linearGradient276044"
     x1="166.77264"
     y1="404.56451"
     x2="185.14194"
     y2="429.50037"
     gradientUnits="userSpaceOnUse"
     gradientTransform="translate(633.16481,-239.29979)" /><linearGradient
     inkscape:collect="always"
     xlink:href="#linearGradient276042"
     id="linearGradient280584"
     gradientUnits="userSpaceOnUse"
     x1="166.77264"
     y1="404.56451"
     x2="185.14194"
     y2="429.50037"
     gradientTransform="translate(605.95373,-214.57871)" /><linearGradient
     inkscape:collect="always"
     xlink:href="#linearGradient276042"
     id="linearGradient280607"
     gradientUnits="userSpaceOnUse"
     x1="166.77264"
     y1="404.56451"
     x2="185.14194"
     y2="429.50037"
     gradientTransform="translate(659.86881,-214.5787)" /><linearGradient
     inkscape:collect="always"
     xlink:href="#linearGradient276042"
     id="linearGradient280630"
     gradientUnits="userSpaceOnUse"
     x1="166.77264"
     y1="404.56451"
     x2="185.14194"
     y2="429.50037"
     gradientTransform="translate(633.16482,-189.85763)" /><linearGradient
     inkscape:collect="always"
     xlink:href="#linearGradient276042"
     id="linearGradient281274"
     gradientUnits="userSpaceOnUse"
     gradientTransform="matrix(0.69279229,0,0,0.69279229,658.99022,-22.99954)"
     x1="166.77264"
     y1="404.56451"
     x2="185.14194"
     y2="429.50037" /><linearGradient
     inkscape:collect="always"
     xlink:href="#linearGradient276042"
     id="linearGradient281310"
     gradientUnits="userSpaceOnUse"
     gradientTransform="matrix(0.69279229,0,0,0.69279229,658.99022,9.02109)"
     x1="166.77264"
     y1="404.56451"
     x2="185.14194"
     y2="429.50037" /><linearGradient
     inkscape:collect="always"
     xlink:href="#linearGradient276042"
     id="linearGradient291441"
     gradientUnits="userSpaceOnUse"
     gradientTransform="matrix(0.89050136,0,0,0.89050136,415.42797,-18.99482)"
     x1="166.77264"
     y1="404.56451"
     x2="185.14194"
     y2="429.50037" /><linearGradient
     inkscape:collect="always"
     xlink:href="#linearGradient276042"
     id="linearGradient293580"
     gradientUnits="userSpaceOnUse"
     gradientTransform="matrix(1.8066276,0,0,1.8066276,-2.85087,-622.32676)"
     x1="165.1041"
     y1="403.25632"
     x2="181.01881"
     y2="424.84808" /><linearGradient
     inkscape:collect="always"
     xlink:href="#linearGradient276042"
     id="linearGradient296782"
     gradientUnits="userSpaceOnUse"
     gradientTransform="matrix(1.8066276,0,0,1.8066276,517.69298,-622.32674)"
     x1="165.1041"
     y1="403.25632"
     x2="181.01881"
     y2="424.84808" /></defs>
<title
   id="title3021">Wii controller</title>
<sodipodi:namedview
   bordercolor="#666666"
   showgrid="false"
   pagecolor="#ffffff"
   borderopacity="1.0"
   id="base"
   inkscape:zoom="0.98994949"
   inkscape:cy="35.860415"
   inkscape:cx="404.56609"
   inkscape:document-units="px"
   inkscape:pageshadow="2"
   inkscape:window-width="3840"
   inkscape:window-height="2065"
   inkscape:window-x="0"
   inkscape:pageopacity="0.0"
   inkscape:window-y="0"
   inkscape:window-maximized="1"
   inkscape:current-layer="svg2"
   inkscape:pagecheckerboard="0"
   inkscape:snap-global="false">
	</sodipodi:namedview>

<metadata
   id="metadata1040"><rdf:RDF><cc:Work
       rdf:about=""><dc:title>Wii controller</dc:title></cc:Work></rdf:RDF></metadata><g
   id="g367552"><path
     id="rect1439-5-9-2"
     style="fill:#cdcdcd;fill-opacity:1;stroke:#7a7a7a;stroke-width:0.442;stroke-miterlimit:4;stroke-dasharray:none;stroke-opacity:1;stop-color:#000000"
     d="m -48.15745,808.99491 c -2.63686,18.31915 -7.96053,33.43146 -16.3224,44.65836 -9.19434,12.34461 -19.06448,19.22108 -30.08121,24.15608 -1.70937,0.76573 -3.38635,-2.31527 -3.38635,-2.31527 0,0 9.11419,-4.3596 17.92451,-11.01082 4.97689,-3.75722 9.84512,-8.8882 12.94751,-12.79277 7.29375,-9.17969 12.94546,-25.74104 15.6418,-42.71095 l 0.33838,-2.12963 c 0,0 3.16483,0.5675 2.93776,2.145 z"
     sodipodi:nodetypes="ssscssscs" /><path
     id="rect1439-5-9"
     style="fill:#cdcdcd;fill-opacity:1;stroke:#7a7a7a;stroke-width:0.442;stroke-miterlimit:4;stroke-dasharray:none;stroke-opacity:1;stop-color:#000000"
     d="m -48.157446,333.04087 c -2.63686,-18.31915 -7.960538,-33.43147 -16.322404,-44.65836 -9.194344,-12.34461 -19.064477,-19.22108 -30.081212,-24.15608 -1.70937,-0.76573 -3.386353,2.31527 -3.386353,2.31527 0,0 9.114196,4.3596 17.924515,11.01082 4.976888,3.75722 9.845121,8.8882 12.947515,12.79278 7.293748,9.17968 12.945457,25.74102 15.6418,42.71094 l 0.338376,2.12963 c 0,0 3.164828,-0.5675 2.937763,-2.145 z"
     sodipodi:nodetypes="ssscssscs" /><path
     id="rect1439"
     style="fill:#e8e8e8;fill-opacity:1;stroke-width:2.24141;stop-color:#000000"
     d="m -49.06139,356.2439 c 0,-22.83701 -6.88657,-53.26662 -17.73437,-66.90796 -21.1689,-26.62032 -58.68998,-33.5108 -73.00781,-33.53701 l -145.12891,-0.26572 c -18.9082,-0.0345 -49.79782,5.34079 -70.32617,26.23566 -19.36906,19.7149 -26.91602,56.93029 -26.91602,91.39301 v 197.83811 197.83812 c 0,34.4627 7.54696,71.6781 26.91602,91.39298 20.52835,20.8949 51.41797,26.27028 70.32617,26.23568 l 145.12891,-0.26572 c 14.31783,-0.0262 51.83891,-6.91671 73.00781,-33.53703 10.8478,-13.64132 17.73437,-44.07093 17.73437,-66.90796 V 570.99999 Z"
     sodipodi:nodetypes="ssccsscsssssscs" /><circle
     style="fill:#d6d6d6;fill-opacity:1;stroke:none;stroke-width:0.807286;stroke-linecap:square;stroke-miterlimit:4;stroke-dasharray:none;stroke-opacity:1;stop-color:#000000"
     id="path5752-4-5"
     cx="311.57935"
     cy="126.69624"
     r="33.868282"
     transform="rotate(90)" /><circle
     style="fill:#4d4d4d;fill-opacity:1;stroke:none;stroke-width:0.579048;stroke-linecap:square;stroke-miterlimit:4;stroke-dasharray:none;stroke-opacity:1;stop-color:#000000"
     id="path5752-2"
     cx="311.57935"
     cy="126.69624"
     r="24.292942"
     transform="rotate(90)" /><circle
     style="fill:url(#linearGradient293580);fill-opacity:1;stroke:none;stroke-width:1.76596;stroke-linecap:square;stroke-miterlimit:4;stroke-dasharray:none;stroke-opacity:1;stop-color:#000000"
     id="path16171-61-1"
     cx="311.57935"
     cy="126.69624"
     r="21.292"
     transform="rotate(90)" /><rect
     style="fill:#c4c4c4;fill-opacity:1;stroke:none;stroke-width:0.44996;stroke-linecap:square;stroke-miterlimit:4;stroke-dasharray:none;stroke-opacity:1;stop-color:#000000"
     id="rect3989-7"
     width="346.89771"
     height="198.97028"
     x="397.55112"
     y="116.7151"
     rx="5.0793638"
     ry="4.988852"
     transform="rotate(90)" /><rect
     style="fill:#262626;fill-opacity:1;stroke:#090909;stroke-width:2.25985;stroke-linecap:square;stroke-miterlimit:4;stroke-dasharray:none;stroke-opacity:1;stop-color:#000000"
     id="rect3465"
     width="338.05362"
     height="191.36552"
     x="401.97318"
     y="120.51747"
     transform="rotate(90)" /><rect
     style="fill:none;fill-opacity:1;stroke:#323232;stroke-width:0.567;stroke-linecap:square;stroke-miterlimit:4;stroke-dasharray:none;stroke-opacity:1;stop-color:#000000"
     id="rect3989"
     width="356.45081"
     height="208.17007"
     x="392.77457"
     y="112.11519"
     rx="5.219243"
     ry="5.219522"
     transform="rotate(90)" /><rect
     style="fill:url(#linearGradient126236);fill-opacity:1;stroke:#090909;stroke-width:0.779;stroke-linecap:square;stroke-miterlimit:4;stroke-dasharray:none;stroke-opacity:1;stop-color:#000000"
     id="rect4728"
     width="178.94502"
     height="21.426746"
     x="481.52747"
     y="67.03566"
     rx="10.738897"
     ry="10.713373"
     transform="rotate(90)" /><circle
     style="fill:#000100;fill-opacity:1;stroke:none;stroke-width:0.779728;stroke-linecap:square;stroke-miterlimit:4;stroke-dasharray:none;stroke-opacity:1;stop-color:#000000"
     id="path4850"
     cx="571"
     cy="77.903183"
     r="8.5936394"
     transform="rotate(90)" /><circle
     style="fill:#7e848e;fill-opacity:1;stroke:none;stroke-width:0.497121;stroke-linecap:square;stroke-miterlimit:4;stroke-dasharray:none;stroke-opacity:1;stop-color:#000000"
     id="path4850-5"
     cx="571"
     cy="77.903183"
     r="5.4789362"
     transform="rotate(90)" /><circle
     style="fill:#51555c;fill-opacity:1;stroke:none;stroke-width:0.335762;stroke-linecap:square;stroke-miterlimit:4;stroke-dasharray:none;stroke-opacity:1;stop-color:#000000"
     id="path4850-5-3"
     cx="571"
     cy="77.903183"
     r="3.7005453"
     transform="rotate(90)" /><circle
     style="fill:#b6bac0;fill-opacity:1;stroke:none;stroke-width:0.223136;stroke-linecap:square;stroke-miterlimit:4;stroke-dasharray:none;stroke-opacity:1;stop-color:#000000"
     id="path4850-5-3-5"
     cx="571"
     cy="77.903183"
     r="2.4592566"
     transform="rotate(90)" /><circle
     style="fill:#000000;fill-opacity:1;stroke:none;stroke-width:0.0728867;stroke-linecap:square;stroke-miterlimit:4;stroke-dasharray:none;stroke-opacity:1;stop-color:#000000"
     id="path4850-5-3-5-6"
     cx="571"
     cy="77.903183"
     r="0.80330843"
     transform="rotate(90)" /><circle
     style="fill:none;fill-opacity:1;stroke:#9e9e9e;stroke-width:0.849;stroke-linecap:square;stroke-miterlimit:4;stroke-dasharray:none;stroke-opacity:1;stop-color:#000000"
     id="path5752-2-9-1"
     cx="311.57935"
     cy="126.69624"
     r="14.634808"
     transform="rotate(90)" /><circle
     style="fill:#d6d6d6;fill-opacity:1;stroke:none;stroke-width:0.807286;stroke-linecap:square;stroke-miterlimit:4;stroke-dasharray:none;stroke-opacity:1;stop-color:#000000"
     id="path5752-4-5-9"
     cx="832.12317"
     cy="126.69624"
     r="33.868282"
     transform="rotate(90)" /><circle
     style="fill:#4d4d4d;fill-opacity:1;stroke:none;stroke-width:0.579048;stroke-linecap:square;stroke-miterlimit:4;stroke-dasharray:none;stroke-opacity:1;stop-color:#000000"
     id="path5752-2-0"
     cx="832.12317"
     cy="126.69624"
     r="24.292942"
     transform="rotate(90)" /><circle
     style="fill:url(#linearGradient296782);fill-opacity:1;stroke:none;stroke-width:1.76596;stroke-linecap:square;stroke-miterlimit:4;stroke-dasharray:none;stroke-opacity:1;stop-color:#000000"
     id="path16171-61-1-9"
     cx="832.12317"
     cy="126.69624"
     r="21.292"
     transform="rotate(90)" /><circle
     style="fill:none;fill-opacity:1;stroke:#9e9e9e;stroke-width:0.849;stroke-linecap:square;stroke-miterlimit:4;stroke-dasharray:none;stroke-opacity:1;stop-color:#000000"
     id="path5752-2-9-1-1"
     cx="832.12317"
     cy="126.69624"
     r="14.634808"
     transform="rotate(90)" /><path
     id="rect7157"
     style="fill:#4a4a4a;fill-opacity:1;stroke:none;stroke-width:0.837623;stroke-linecap:square;stroke-miterlimit:4;stroke-dasharray:none;stroke-opacity:1;stop-color:#000000"
     d="m -170.22278,329.02301 c 0,-1.266 -1.04568,-2.28515 -2.34375,-2.28515 h -16.98242 v -16.98242 c 0,-1.29807 -1.01915,-2.3418 -2.28515,-2.3418 h -16.36914 c -1.26601,0 -2.28516,1.04373 -2.28516,2.3418 v 16.98242 h -16.98242 c -1.29807,0 -2.34375,1.01915 -2.34375,2.28515 v 16.3711 c 0,1.266 1.04568,2.28515 2.34375,2.28515 h 16.98242 v 16.98243 c 0,1.29806 1.01915,2.34179 2.28516,2.34179 h 16.36914 c 1.266,0 2.28515,-1.04373 2.28515,-2.34179 v -16.98243 h 16.98242 c 1.29807,0 2.34375,-1.01915 2.34375,-2.28515 z" /><path
     id="rect6567"
     style="fill:#e3e3e3;fill-opacity:1;stroke:none;stroke-width:0.823148;stroke-linecap:square;stroke-miterlimit:4;stroke-dasharray:none;stroke-opacity:1;stop-color:#000000"
     d="m -171.40051,331.18317 c 0,-1.65938 -1.32859,-2.99609 -2.97852,-2.99609 h -16.61718 v -16.61719 c 0,-1.64993 -1.33672,-2.97852 -2.9961,-2.97852 h -12.05273 c -1.65938,0 -2.9961,1.32859 -2.9961,2.97852 v 16.61719 h -16.61718 c -1.64993,0 -2.97852,1.33671 -2.97852,2.99609 v 12.05273 c 0,1.65938 1.32859,2.99414 2.97852,2.99414 h 16.61718 v 16.61915 c 0,1.64992 1.33672,2.97656 2.9961,2.97656 h 12.05273 c 1.65938,0 2.9961,-1.32664 2.9961,-2.97656 v -16.61915 h 16.61718 c 1.64993,0 2.97852,-1.33476 2.97852,-2.99414 z" /><rect
     style="fill:#797979;fill-opacity:1;stroke:none;stroke-width:0.730031;stroke-linecap:square;stroke-miterlimit:4;stroke-dasharray:none;stroke-opacity:1;stop-color:#000000"
     id="rect8607"
     width="1.6424657"
     height="10.415046"
     x="336.3873"
     y="178.77977"
     rx="0.82123286"
     ry="0.87695462"
     transform="rotate(90)" /><rect
     style="fill:#797979;fill-opacity:1;stroke:none;stroke-width:0.730031;stroke-linecap:square;stroke-miterlimit:4;stroke-dasharray:none;stroke-opacity:1;stop-color:#000000"
     id="rect8607-8"
     width="1.6424657"
     height="10.415046"
     x="336.3873"
     y="210.84251"
     rx="0.82123286"
     ry="0.87695462"
     transform="rotate(90)" /><rect
     style="fill:#797979;fill-opacity:1;stroke:none;stroke-width:0.730031;stroke-linecap:square;stroke-miterlimit:4;stroke-dasharray:none;stroke-opacity:1;stop-color:#000000"
     id="rect8607-9"
     width="1.6424657"
     height="10.415046"
     x="199.19742"
     y="-358.44742"
     rx="0.82123286"
     ry="0.87695462"
     transform="scale(-1)" /><rect
     style="fill:#797979;fill-opacity:1;stroke:none;stroke-width:0.730031;stroke-linecap:square;stroke-miterlimit:4;stroke-dasharray:none;stroke-opacity:1;stop-color:#000000"
     id="rect8607-8-2"
     width="1.6424657"
     height="10.415046"
     x="199.19742"
     y="-326.38467"
     rx="0.82123286"
     ry="0.87695462"
     transform="scale(-1)" /><circle
     r="13.049929"
     cy="350.10913"
     cx="570.50885"
     id="path5072-5-0"
     style="vector-effect:none;fill:#6592fe;fill-opacity:1;stroke:#4b4b4b;stroke-width:0.552123;stroke-linecap:round;stroke-linejoin:round;stroke-miterlimit:4;stroke-dasharray:none;stroke-dashoffset:0;stroke-opacity:1;paint-order:normal"
     transform="rotate(90)" /><circle
     style="fill:url(#linearGradient291441);fill-opacity:1;stroke:none;stroke-width:0.870458;stroke-linecap:square;stroke-miterlimit:4;stroke-dasharray:none;stroke-opacity:1;stop-color:#000000"
     id="path16171-6-7"
     cx="570.41321"
     cy="350.20477"
     r="10.495"
     transform="rotate(90)" /><path
     id="rect6224-2-3"
     d="m -343.69825,570.45536 -5.77098,-6.17014 v 1.55275 h -5.88893 v 9.15035 h 5.88893 v 1.55278 z m -6.51079,-2.04137 v 3.99832 h -3.26209 v -3.99832 z"
     style="vector-effect:none;fill:#898d89;fill-opacity:1;stroke:none;stroke-width:1.22228;stroke-linecap:round;stroke-linejoin:round;stroke-miterlimit:4;stroke-dasharray:none;stroke-dashoffset:0;stroke-opacity:1;paint-order:normal"
     inkscape:connector-curvature="0" /><g
     id="g87932"
     transform="matrix(0,0.13107867,-0.13107867,0,-295.17497,306.98256)"
     style="fill:#898d89;fill-opacity:1"><g
       fill="#1f9ebb"
       id="g10"
       transform="translate(696.56735,359.37909)"
       style="fill:#898d89;fill-opacity:1"><path
         d="m 300.675,38.038 c 0,25.394 29.982,21.766 29.982,4.001 V 0 h -29.982 z"
         id="path6-2"
         style="fill:#898d89;fill-opacity:1" /><path
         d="m 259.329,64.712 c 0,12.537 8.643,20.006 21.34,20.006 h 72.021 c 10.723,0 19.366,-7.362 19.366,-18.032 V 14.031 c 0,-6.402 -4.748,-13.337 -10.67,-13.337 h -16.698 v 43.319 c 0,32.916 -57.35,32.65 -57.35,0.694 V 0 h -12.697 c -8.269,0 -15.365,5.228 -15.365,13.337 z"
         id="path8"
         style="fill:#898d89;fill-opacity:1" /></g><g
       fill="#898d89"
       id="g14"
       transform="translate(696.56735,359.37909)"
       style="fill:#898d89;fill-opacity:1"><path
         d="m 159.62,12.591 c 0,6.829 5.762,12.59 12.964,12.59 7.576,0 13.497,-5.602 13.497,-12.59 0,-7.042 -5.922,-12.59 -13.497,-12.59 -7.202,-0.054 -12.964,5.548 -12.964,12.59 z m 24.487,97.255 V 37.611 h -22.3 v 72.235 z M 204.86,12.591 c 0,6.829 5.922,12.59 13.177,12.59 7.362,0 13.337,-5.602 13.337,-12.59 0,-7.042 -5.922,-12.59 -13.337,-12.59 -7.255,-0.054 -13.177,5.548 -13.177,12.59 z m 24.487,97.255 V 37.611 h -22.353 v 72.235 z M 126.277,6.082 106.805,82.638 c 0,0 -14.938,-57.457 -17.498,-65.779 C 86.959,8.75 81.944,5.175 74.902,5.175 67.7,5.175 62.845,8.803 60.284,16.858 57.937,25.127 42.999,82.637 42.999,82.637 L 23.42,6.082 H 0 c 0,0 22.513,81.624 25.608,91.173 2.347,7.362 8.109,13.337 16.378,13.337 9.71,0 14.244,-7.042 16.218,-13.337 2.187,-6.509 16.752,-60.338 16.752,-60.338 0,0 14.617,53.883 16.591,60.339 2.187,6.295 6.669,13.337 16.218,13.337 8.482,0 14.031,-5.922 16.592,-13.337 3.041,-9.549 25.608,-91.173 25.608,-91.173 z"
         id="path12"
         style="fill:#898d89;fill-opacity:1" /></g></g><rect
     style="fill:#1f1f1f;fill-opacity:1;stroke:none;stroke-width:0.924871;stroke-linecap:square;stroke-miterlimit:4;stroke-dasharray:none;stroke-opacity:1;stop-color:#000000"
     id="rect10048"
     width="12.427588"
     height="4.8530626"
     x="356.00098"
     y="347.02539"
     rx="2.3208346"
     ry="2.3665364"
     transform="rotate(90)" /><rect
     style="fill:#1f1f1f;fill-opacity:1;stroke:none;stroke-width:0.924871;stroke-linecap:square;stroke-miterlimit:4;stroke-dasharray:none;stroke-opacity:1;stop-color:#000000"
     id="rect10048-0"
     width="12.427588"
     height="4.8530626"
     x="772.47638"
     y="347.02539"
     rx="2.3208346"
     ry="2.3665364"
     transform="rotate(90)" /><rect
     style="opacity:0.452447;fill:none;fill-opacity:1;stroke:#0e0e0e;stroke-width:1.26089;stroke-linecap:square;stroke-miterlimit:4;stroke-dasharray:none;stroke-opacity:1;stop-color:#000000"
     id="rect10463"
     width="24.997458"
     height="15.429059"
     x="325.02267"
     y="271.74289"
     rx="2.1475372"
     ry="2.1547194"
     transform="rotate(90)" /><path
     id="rect10463-7"
     style="color:#000000;opacity:0.452447;fill:#0e0e0e;stroke-width:1.00521;stroke-linecap:square;-inkscape-stroke:none"
     d="m -269.02052,326.19098 h -0.84863 v 22.59375 c 0,2.00169 -1.61659,3.59961 -3.63921,3.59961 h -12.70567 v 0.83985 h 12.70567 c 2.47816,0 4.48784,-1.98694 4.48784,-4.43946 z" /><circle
     style="fill:url(#linearGradient276044);fill-opacity:1;stroke:#4d4d4d;stroke-width:0.977492;stroke-linecap:square;stroke-miterlimit:4;stroke-dasharray:none;stroke-opacity:1;stop-color:#000000"
     id="path16171"
     cx="807.20746"
     cy="175.29759"
     r="11.785496"
     transform="rotate(90)" /><circle
     style="fill:url(#linearGradient280584);fill-opacity:1;stroke:#4d4d4d;stroke-width:0.977492;stroke-linecap:square;stroke-miterlimit:4;stroke-dasharray:none;stroke-opacity:1;stop-color:#000000"
     id="path16171-6"
     cx="779.99634"
     cy="200.01869"
     r="11.785496"
     transform="rotate(90)" /><circle
     style="fill:url(#linearGradient280607);fill-opacity:1;stroke:#4d4d4d;stroke-width:0.977492;stroke-linecap:square;stroke-miterlimit:4;stroke-dasharray:none;stroke-opacity:1;stop-color:#000000"
     id="path16171-2"
     cx="833.91144"
     cy="200.01869"
     r="11.785496"
     transform="rotate(90)" /><circle
     style="fill:url(#linearGradient280630);fill-opacity:1;stroke:#4d4d4d;stroke-width:0.977492;stroke-linecap:square;stroke-miterlimit:4;stroke-dasharray:none;stroke-opacity:1;stop-color:#000000"
     id="path16171-49"
     cx="807.20746"
     cy="224.73976"
     r="11.785496"
     transform="rotate(90)" /><circle
     style="fill:url(#linearGradient281274);fill-opacity:1;stroke:#4d4d4d;stroke-width:0.677199;stroke-linecap:square;stroke-miterlimit:4;stroke-dasharray:none;stroke-opacity:1;stop-color:#000000"
     id="path16171-49-4"
     cx="779.56561"
     cy="264.23029"
     r="8.1649008"
     transform="rotate(90)" /><circle
     style="fill:url(#linearGradient281310);fill-opacity:1;stroke:#4d4d4d;stroke-width:0.677199;stroke-linecap:square;stroke-miterlimit:4;stroke-dasharray:none;stroke-opacity:1;stop-color:#000000"
     id="path16171-49-4-1"
     cx="779.56561"
     cy="296.25098"
     r="8.1649008"
     transform="rotate(90)" /><g
     id="text5855-3"
     style="font-style:normal;font-variant:normal;font-weight:normal;font-stretch:normal;font-size:11.9569px;line-height:1.25;font-family:Digitalt;-inkscape-font-specification:Digitalt;text-align:center;letter-spacing:0px;word-spacing:0px;text-anchor:middle;fill:#4e4e4e;fill-opacity:1;stroke:none;stroke-width:0.298921"
     transform="matrix(0,0.94216066,-0.87755497,0,-79.52319,346.97651)"
     aria-label="X"><path
       inkscape:connector-curvature="0"
       id="path5976-6"
       style="font-style:normal;font-variant:normal;font-weight:normal;font-stretch:normal;font-family:AnjaliOldLipi;-inkscape-font-specification:AnjaliOldLipi;fill:#4e4e4e;fill-opacity:1;stroke-width:0.298921"
       d="m 491.6431,105.194 -2.65643,3.66062 3.07095,4.22693 -0.65389,0.47874 -2.91915,-4.01675 -2.91916,4.01675 -0.65389,-0.47874 3.07095,-4.22693 -2.65643,-3.66062 0.65389,-0.47874 2.50464,3.4446 2.50463,-3.4446 z" /></g><g
     id="text5855-2-1-4"
     style="font-style:normal;font-variant:normal;font-weight:normal;font-stretch:normal;font-size:11.9569px;line-height:1.25;font-family:Digitalt;-inkscape-font-specification:Digitalt;text-align:center;letter-spacing:0px;word-spacing:0px;text-anchor:middle;fill:#4e4e4e;fill-opacity:1;stroke:none;stroke-width:0.298921"
     transform="matrix(0,0.96688864,-0.89167965,0,-86.47211,324.06397)"
     aria-label="Y"><path
       inkscape:connector-curvature="0"
       id="path5970-2-5"
       style="font-style:normal;font-variant:normal;font-weight:normal;font-stretch:normal;font-family:AnjaliOldLipi;-inkscape-font-specification:AnjaliOldLipi;fill:#4e4e4e;fill-opacity:1;stroke-width:0.298921"
       d="m 468.71434,122.98765 2.82574,4.29115 2.83742,-4.28531 0.67724,0.44371 -3.11182,4.70567 v 3.5497 h -0.80568 v -3.55553 l -3.10014,-4.70568 z" /></g><g
     id="text5855-2-9-9-0"
     style="font-style:normal;font-variant:normal;font-weight:normal;font-stretch:normal;font-size:11.9569px;line-height:1.25;font-family:Digitalt;-inkscape-font-specification:Digitalt;text-align:center;letter-spacing:0px;word-spacing:0px;text-anchor:middle;fill:#4e4e4e;fill-opacity:1;stroke:none;stroke-width:0.298921"
     transform="matrix(0,0.98244364,-0.90688588,0,-84.53575,337.53588)"
     aria-label="A"><path
       inkscape:connector-curvature="0"
       id="path5973-3-3"
       style="font-style:normal;font-variant:normal;font-weight:normal;font-stretch:normal;font-family:AnjaliOldLipi;-inkscape-font-specification:AnjaliOldLipi;fill:#4e4e4e;fill-opacity:1;stroke-width:0.298921"
       d="m 504.74668,123.06062 h 0.78233 l 3.55553,8.55896 h -0.87574 l -1.07425,-2.59221 h -3.85328 l -1.01587,2.59221 h -0.85823 z m 0.40284,1.18518 q -0.39116,1.01003 -0.78233,1.9967 -0.38533,0.98084 -0.77066,1.97919 h 3.1994 z" /></g><g
     id="text5855-2-9-0-1"
     style="font-style:normal;font-variant:normal;font-weight:normal;font-stretch:normal;font-size:11.9569px;line-height:1.25;font-family:Digitalt;-inkscape-font-specification:Digitalt;text-align:center;letter-spacing:0px;word-spacing:0px;text-anchor:middle;fill:#4e4e4e;fill-opacity:1;stroke:none;stroke-width:0.298921"
     transform="matrix(0,0.89386883,-0.90630566,0,-92.70234,370.33487)"
     aria-label="B"><path
       inkscape:connector-curvature="0"
       id="path5967-9"
       style="font-style:normal;font-variant:normal;font-weight:normal;font-stretch:normal;font-family:AnjaliOldLipi;-inkscape-font-specification:AnjaliOldLipi;fill:#4e4e4e;fill-opacity:1;stroke-width:0.298921"
       d="m 488.52165,150.02298 -1.04505,0.006 h -1.80404 v -8.5648 h 3.23442 q 1.05674,0 1.77485,0.60718 0.71811,0.60719 0.71811,1.62305 0,1.01587 -1.01586,1.78069 0.65972,0.30943 1.04505,0.88742 0.38533,0.57799 0.38533,1.26691 0,1.12096 -0.99251,1.80404 -0.85823,0.58967 -1.86826,0.58967 z m -2.0434,-4.04595 v 3.24026 h 2.47544 q 0.73563,0 1.39536,-0.42619 0.65972,-0.4262 0.65972,-1.13847 0,-0.71228 -0.57215,-1.19686 -0.57215,-0.48458 -1.43622,-0.47874 z m 0,-0.80568 h 2.52215 q 0.5488,0.006 1.07424,-0.44372 0.52545,-0.44955 0.52545,-1.06841 0,-0.61886 -0.49042,-1.00419 -0.49041,-0.38532 -1.20269,-0.38532 h -2.42873 z" /></g><path
     id="rect17595"
     style="fill:#4e4e4e;fill-opacity:1;stroke:none;stroke-width:0.855091;stroke-linecap:square;stroke-miterlimit:4;stroke-dasharray:none;stroke-opacity:1;stop-color:#000000"
     d="m -261.2098,778.97577 h -2.43164 v -2.42969 h -1.17773 v 2.42969 h -2.43164 v 1.17968 h 2.43164 v 2.42969 h 1.17773 v -2.42969 h 2.43164 z" /><rect
     style="fill:#4e4e4e;fill-opacity:1;stroke:none;stroke-width:0.855091;stroke-linecap:square;stroke-miterlimit:4;stroke-dasharray:none;stroke-opacity:1;stop-color:#000000"
     id="rect17595-6"
     width="6.0398316"
     height="1.1786431"
     x="776.54572"
     y="295.66168"
     rx="0"
     ry="0"
     transform="rotate(90)" /><circle
     style="fill:url(#linearGradient258306);fill-opacity:1;stroke:none;stroke-width:0.84;stroke-linecap:square;stroke-miterlimit:4;stroke-dasharray:none;stroke-opacity:1;stop-color:#000000"
     id="path18974"
     cx="735.76312"
     cy="350.53601"
     r="8.8095331"
     transform="rotate(90)" /><circle
     style="fill:#e8e8e8;fill-opacity:1;stroke:#4d4d4d;stroke-width:0.662;stroke-linecap:square;stroke-miterlimit:4;stroke-dasharray:none;stroke-opacity:1;stop-color:#000000"
     id="path18974-6"
     cx="735.76312"
     cy="350.53601"
     r="7.0451641"
     transform="rotate(90)" /><g
     id="g1088"
     transform="matrix(0,0.50469274,-0.50469274,0,-235.62639,714.73406)"
     style="fill:#b44651;fill-opacity:1"><path
       style="fill:#b44651;fill-opacity:1;stroke-width:0.00170361"
       inkscape:connector-curvature="0"
       id="path4-1"
       d="m 40.805539,223.89253 v 3.97852 h 0.851201 0.85136 v -3.97869 -3.97853 h -0.85136 -0.851201 z" /><path
       style="fill:#b44651;fill-opacity:1;stroke-width:0.0015854"
       inkscape:connector-curvature="0"
       id="path6-5"
       d="m 38.571869,222.39878 c -1.374225,0.70138 -2.432163,1.76741 -3.097079,3.12942 -0.303921,0.61625 -0.466108,1.09456 -0.595794,1.73094 -0.08101,0.3973 -0.09322,0.57566 -0.0891,1.32968 0,0.97692 0.05676,1.33776 0.324373,2.14853 0.571536,1.72286 1.860625,3.19427 3.5226,4.02533 1.560668,0.77431 3.478051,0.904 5.188697,0.34451 1.390396,-0.44994 2.732278,-1.47553 3.575394,-2.73212 0.397301,-0.58787 0.762102,-1.4026 0.940459,-2.10383 0.283787,-1.13498 0.271579,-2.47671 -0.04059,-3.5673 -0.454058,-1.58905 -1.443189,-2.94298 -2.821378,-3.87948 -0.299957,-0.19865 -1.118816,-0.6405 -1.191745,-0.6405 -0.02029,0 -0.03646,0.41759 -0.03646,0.93237 v 0.92826 l 0.295836,0.20261 c 1.195867,0.81077 1.994433,2.03914 2.237633,3.4335 0.07705,0.45406 0.07705,1.28497 0,1.74315 -0.129686,0.74181 -0.405387,1.43098 -0.83503,2.07148 -0.271579,0.40935 -0.981045,1.11485 -1.394518,1.38643 -1.479654,0.96884 -3.255143,1.15116 -4.864483,0.49053 -1.653889,-0.67301 -2.878135,-2.20545 -3.161921,-3.94844 -0.07705,-0.4742 -0.07705,-1.29718 0,-1.74315 0.239236,-1.35805 1.041766,-2.61464 2.17279,-3.38895 l 0.360837,-0.24732 v -0.93238 c 0,-0.51081 -0.01617,-0.92825 -0.03646,-0.92825 -0.01617,1.6e-4 -0.222907,0.0974 -0.454058,0.21498 z" /></g><circle
     style="fill:#000000;fill-opacity:1;stroke:none;stroke-width:1.02875;stroke-linecap:square;stroke-miterlimit:4;stroke-dasharray:none;stroke-opacity:1;stop-color:#000000"
     id="path19408"
     cx="671.534"
     cy="350.14191"
     r="1.9395064"
     transform="rotate(90)" /><circle
     style="fill:#000000;fill-opacity:1;stroke:none;stroke-width:0.877278;stroke-linecap:square;stroke-miterlimit:4;stroke-dasharray:none;stroke-opacity:1;stop-color:#000000"
     id="path19534"
     cx="533.46277"
     cy="349.7453"
     r="1.0978609"
     transform="rotate(90)" /><rect
     style="fill:#e8e8e8;fill-opacity:1;stroke:#4d4d4d;stroke-width:0.851082;stroke-linecap:square;stroke-miterlimit:4;stroke-dasharray:none;stroke-opacity:1;stop-color:#000000"
     id="rect19884"
     width="14.803633"
     height="14.803633"
     x="696.13599"
     y="342.93976"
     rx="3.8029346"
     ry="3.8029346"
     transform="rotate(90)" /><g
     aria-label="MIC "
     id="text24753"
     style="font-weight:bold;font-size:5.5485px;font-family:Cantarell;-inkscape-font-specification:'Cantarell Bold';text-align:center;letter-spacing:0px;word-spacing:0px;text-anchor:middle;fill:#767676;fill-opacity:1;stroke-width:0.693562"
     transform="rotate(90,-196.93251,436.2323)"><path
       d="m -104.38888,609.84125 h 0.69356 v -2.5856 l 1.01538,1.99191 h 0.5493 l 1.03202,-2.06404 v 2.65773 h 0.69356 v -3.85066 h -0.69356 l -1.27061,2.49682 -1.31499,-2.49682 h -0.70466 z"
       id="path44405"
       style="fill:#767676;fill-opacity:1" /><path
       d="m -99.506207,609.84125 h 0.726854 v -3.85066 h -0.726854 z"
       id="path44407"
       style="fill:#767676;fill-opacity:1" /><path
       d="m -96.138271,609.89673 c 0.393943,0 0.826726,-0.0999 1.159636,-0.26078 l -0.160906,-0.51601 c -0.249683,0.0943 -0.560399,0.14981 -0.826727,0.14981 -0.843372,0 -1.370479,-0.55485 -1.370479,-1.42041 0,-0.81563 0.477171,-1.28171 1.287252,-1.28171 0.305167,0 0.654723,0.061 0.904405,0.16091 l 0.199746,-0.55485 c -0.327361,-0.15536 -0.704659,-0.23859 -1.087506,-0.23859 -1.215121,0 -2.047396,0.80454 -2.047396,2.01411 0,1.16518 0.787887,1.94752 1.941975,1.94752 z"
       id="path44409"
       style="fill:#767676;fill-opacity:1" /></g><g
     aria-label="HOME"
     transform="matrix(0,0.99552154,-1.0044986,0,239.29979,633.16481)"
     id="text24753-5"
     style="font-weight:bold;font-size:5.52365px;font-family:Cantarell;-inkscape-font-specification:'Cantarell Bold';text-align:center;letter-spacing:0px;word-spacing:0px;text-anchor:middle;fill:#767676;fill-opacity:1;stroke-width:0.690456"><path
       d="m -71.032918,607.11011 h 0.723599 v -1.64605 h 1.762044 v 1.64605 h 0.718074 v -3.83342 h -0.718074 v 1.55215 h -1.762044 v -1.55215 h -0.723599 z"
       id="path44388"
       style="fill:#767676;fill-opacity:1" /><path
       d="m -65.293852,607.15982 c 1.154443,0 1.92223,-0.80093 1.92223,-1.99956 0,-1.15997 -0.745693,-1.9388 -1.86147,-1.9388 -1.143396,0 -1.900136,0.80093 -1.900136,1.99956 0,1.16549 0.734646,1.9388 1.839376,1.9388 z m 0.06076,-0.62417 c -0.69598,0 -1.154443,-0.54684 -1.154443,-1.37539 0,-0.78988 0.436368,-1.30911 1.093683,-1.30911 0.712551,0 1.176537,0.54132 1.176537,1.36987 0,0.78988 -0.441892,1.31463 -1.115777,1.31463 z"
       id="path44390"
       style="fill:#767676;fill-opacity:1" /><path
       d="m -62.675643,607.11011 h 0.690457 v -2.57402 l 1.010828,1.98299 h 0.546841 l 1.027399,-2.0548 v 2.64583 h 0.690456 v -3.83342 h -0.690456 l -1.264916,2.48565 -1.309105,-2.48565 h -0.701504 z"
       id="path44392"
       style="fill:#767676;fill-opacity:1" /><path
       d="m -57.814835,607.11011 h 2.585068 v -0.62418 h -1.872517 v -1.02739 h 1.717855 v -0.62418 h -1.717855 v -0.93349 h 1.872517 v -0.62418 h -2.585068 z"
       id="path44394"
       style="fill:#767676;fill-opacity:1" /></g><g
     aria-label="BATTERY"
     transform="matrix(0,0.98986495,-1.0102388,0,239.29979,633.16481)"
     id="text24753-5-7"
     style="font-weight:bold;font-size:5.49227px;font-family:Cantarell;-inkscape-font-specification:'Cantarell Bold';text-align:center;letter-spacing:0px;word-spacing:0px;text-anchor:middle;fill:#767676;fill-opacity:1;stroke-width:0.686533"><path
       d="m 27.135675,603.66046 h 1.427991 c 0.917209,0 1.499389,-0.45586 1.499389,-1.18084 0,-0.47782 -0.258136,-0.82384 -0.692026,-0.97762 0.236168,-0.16477 0.384459,-0.43938 0.384459,-0.74695 0,-0.58767 -0.477827,-0.90622 -1.356591,-0.90622 h -1.263222 z m 0.703011,-3.24044 h 0.505289 c 0.450366,0 0.692026,0.18674 0.692026,0.51628 0,0.19772 -0.09337,0.3515 -0.307567,0.47233 h -0.889748 z m 0,2.66925 v -1.12592 h 0.82384 c 0.411921,0 0.664565,0.24166 0.664565,0.60964 0,0.35151 -0.214198,0.51628 -0.675549,0.51628 z"
       id="path44263"
       style="fill:#767676;fill-opacity:1" /><path
       d="m 30.260775,603.66046 h 0.752441 l 0.313059,-0.95565 h 1.460944 l 0.307567,0.95565 h 0.785395 l -1.318145,-3.81163 h -0.911717 z m 1.268714,-1.58726 0.527258,-1.61473 0.527258,1.61473 z"
       id="path44265"
       style="fill:#767676;fill-opacity:1" /><path
       d="m 35.148887,603.66046 h 0.697518 v -3.19101 h 1.230269 v -0.62062 h -3.152563 v 0.62062 h 1.224776 z"
       id="path44267"
       style="fill:#767676;fill-opacity:1" /><path
       d="m 38.394817,603.66046 h 0.697518 v -3.19101 h 1.230268 v -0.62062 H 37.17004 v 0.62062 h 1.224777 z"
       id="path44269"
       style="fill:#767676;fill-opacity:1" /><path
       d="m 40.816906,603.66046 h 2.570382 v -0.62063 h -1.861879 v -1.02156 h 1.708096 v -0.62062 h -1.708096 v -0.9282 h 1.861879 v -0.62062 h -2.570382 z"
       id="path44271"
       style="fill:#767676;fill-opacity:1" /><path
       d="m 44.123247,603.66046 h 0.708503 v -1.4225 h 0.620626 0.02197 l 0.812856,1.4225 h 0.851302 l -0.955655,-1.57079 c 0.444874,-0.2087 0.713995,-0.62062 0.713995,-1.13141 0,-0.70301 -0.510781,-1.10943 -1.351098,-1.10943 h -1.422498 z m 1.329129,-3.1965 c 0.444874,0 0.708503,0.22518 0.708503,0.60415 0,0.357 -0.219691,0.5712 -0.615134,0.5712 H 44.83175 v -1.17535 z"
       id="path44273"
       style="fill:#767676;fill-opacity:1" /><path
       d="m 48.621416,603.66046 h 0.70301 v -1.4939 l 1.351099,-2.31773 H 49.89013 l -0.89524,1.69162 -0.939178,-1.69162 h -0.834825 l 1.400529,2.30675 z"
       id="path44275"
       style="fill:#767676;fill-opacity:1" /></g><g
     aria-label="CONTROL"
     transform="matrix(0,0.97791006,-1.0225889,0,239.29979,633.16481)"
     id="text24753-5-7-5"
     style="font-weight:bold;font-size:5.42594px;font-family:Cantarell;-inkscape-font-specification:'Cantarell Bold';text-align:center;letter-spacing:0px;word-spacing:0px;text-anchor:middle;fill:#767676;fill-opacity:1;stroke-width:0.678241"><path
       d="m 61.263569,596.42413 c 0.385242,0 0.808465,-0.0977 1.134021,-0.25502 l -0.157352,-0.50461 c -0.244167,0.0922 -0.54802,0.1465 -0.808465,0.1465 -0.824743,0 -1.340207,-0.54259 -1.340207,-1.38904 0,-0.79761 0.466631,-1.25339 1.258818,-1.25339 0.298427,0 0.640261,0.0597 0.884428,0.15735 l 0.195334,-0.54259 c -0.32013,-0.15193 -0.689094,-0.23332 -1.063484,-0.23332 -1.188281,0 -2.002172,0.78676 -2.002172,1.96962 0,1.13944 0.770483,1.9045 1.899079,1.9045 z"
       id="path44292"
       style="fill:#767676;fill-opacity:1" /><path
       d="m 64.643926,596.41871 c 1.134022,0 1.888227,-0.78676 1.888227,-1.96419 0,-1.13945 -0.732502,-1.90451 -1.828541,-1.90451 -1.12317,0 -1.866524,0.78676 -1.866524,1.96419 0,1.14487 0.72165,1.90451 1.806838,1.90451 z m 0.05969,-0.61313 c -0.683669,0 -1.134022,-0.53717 -1.134022,-1.35106 0,-0.77591 0.428649,-1.28595 1.074336,-1.28595 0.699947,0 1.155725,0.53174 1.155725,1.34563 0,0.77591 -0.434075,1.29138 -1.096039,1.29138 z"
       id="path44294"
       style="fill:#767676;fill-opacity:1" /><path
       d="m 67.215821,596.36987 h 0.661965 v -2.81063 l 1.850245,2.81063 h 0.781336 v -3.7656 h -0.667391 l -0.0054,2.79979 -1.81769,-2.79979 h -0.803039 z"
       id="path44296"
       style="fill:#767676;fill-opacity:1" /><path
       d="m 72.202256,596.36987 h 0.689094 v -3.15247 h 1.215411 v -0.61313 h -3.11449 v 0.61313 h 1.209985 z"
       id="path44298"
       style="fill:#767676;fill-opacity:1" /><path
       d="m 74.595093,596.36987 h 0.699946 v -1.40532 h 0.613131 0.0217 l 0.803039,1.40532 h 0.841021 l -0.944114,-1.55182 c 0.439501,-0.20618 0.705372,-0.61313 0.705372,-1.11774 0,-0.69452 -0.504612,-1.09604 -1.334781,-1.09604 h -1.405318 z m 1.313077,-3.15789 c 0.439501,0 0.699946,0.22246 0.699946,0.59685 0,0.35269 -0.217037,0.5643 -0.607705,0.5643 h -0.705372 v -1.16115 z"
       id="path44300"
       style="fill:#767676;fill-opacity:1" /><path
       d="m 79.711754,596.41871 c 1.134022,0 1.888227,-0.78676 1.888227,-1.96419 0,-1.13945 -0.732502,-1.90451 -1.828541,-1.90451 -1.12317,0 -1.866524,0.78676 -1.866524,1.96419 0,1.14487 0.72165,1.90451 1.806838,1.90451 z m 0.05969,-0.61313 c -0.683669,0 -1.134022,-0.53717 -1.134022,-1.35106 0,-0.77591 0.428649,-1.28595 1.074336,-1.28595 0.699946,0 1.155725,0.53174 1.155725,1.34563 0,0.77591 -0.434075,1.29138 -1.096039,1.29138 z"
       id="path44302"
       style="fill:#767676;fill-opacity:1" /><path
       d="m 82.283649,596.36987 h 2.322303 v -0.61855 h -1.622357 v -3.14705 h -0.699946 z"
       id="path44304"
       style="fill:#767676;fill-opacity:1" /></g><g
     aria-label="T"
     transform="matrix(0,0.99436872,-1.0056632,0,239.29979,633.16481)"
     id="text24753-5-7-5-5"
     style="font-weight:bold;font-size:8.72794px;font-family:Cantarell;-inkscape-font-specification:'Cantarell Bold';text-align:center;letter-spacing:0px;word-spacing:0px;text-anchor:middle;fill:#1f9ebb;fill-opacity:1;stroke-width:1.09099"><path
       d="m 67.107307,589.66382 h 1.108449 v -5.07093 h 1.955058 v -0.98626 h -5.009837 v 0.98626 h 1.94633 z"
       id="path44253"
       style="fill:#1f9ebb;fill-opacity:1" /></g><g
     aria-label="V"
     transform="matrix(0,0.96306948,-1.0383467,0,239.29979,633.16481)"
     id="text24753-5-7-5-5-7"
     style="font-weight:bold;font-size:8.45321px;font-family:Cantarell;-inkscape-font-specification:'Cantarell Bold';text-align:center;letter-spacing:0px;word-spacing:0px;text-anchor:middle;fill:#1f9ebb;fill-opacity:1;stroke-width:1.05665"><path
       d="m 75.273039,571.10327 h 1.13273 l 2.113303,-5.86653 h -1.115824 l -1.513125,4.57319 -1.453952,-4.57319 H 73.16819 Z"
       id="path44258"
       style="fill:#1f9ebb;fill-opacity:1" /></g><g
     aria-label="POWER"
     transform="matrix(0,0.97791008,-1.0225889,0,239.29979,633.16481)"
     id="text24753-5-7-5-9"
     style="font-weight:bold;font-size:5.42594px;font-family:Cantarell;-inkscape-font-specification:'Cantarell Bold';text-align:center;letter-spacing:0px;word-spacing:0px;text-anchor:middle;fill:#767676;fill-opacity:1;stroke-width:0.678241"><path
       d="m 95.225284,596.36987 h 0.699946 v -1.20998 h 0.472057 c 0.933262,0 1.551819,-0.52632 1.551819,-1.32936 0,-0.7542 -0.553446,-1.22626 -1.432448,-1.22626 h -1.291374 z m 1.226263,-3.15247 c 0.461205,0 0.775909,0.28215 0.775909,0.69995 0,0.40694 -0.260445,0.63483 -0.705372,0.63483 H 95.92523 v -1.33478 z"
       id="path44321"
       style="fill:#767676;fill-opacity:1" /><path
       d="m 100.13576,596.41871 c 1.13402,0 1.88823,-0.78676 1.88823,-1.96419 0,-1.13945 -0.73251,-1.90451 -1.82855,-1.90451 -1.123165,0 -1.866519,0.78676 -1.866519,1.96419 0,1.14487 0.72165,1.90451 1.806839,1.90451 z m 0.0597,-0.61313 c -0.683664,0 -1.134017,-0.53717 -1.134017,-1.35106 0,-0.77591 0.428649,-1.28595 1.074337,-1.28595 0.69995,0 1.15572,0.53174 1.15572,1.34563 0,0.77591 -0.43407,1.29138 -1.09604,1.29138 z"
       id="path44323"
       style="fill:#767676;fill-opacity:1" /><path
       d="m 103.40217,596.36987 h 0.74336 l 0.81931,-2.84319 0.88443,2.84319 h 0.72708 l 1.09604,-3.7656 h -0.70537 l -0.73793,2.83777 -0.84102,-2.81607 h -0.77049 l -0.81389,2.87575 -0.71622,-2.89745 h -0.79761 z"
       id="path44325"
       style="fill:#767676;fill-opacity:1" /><path
       d="m 108.13358,596.36987 h 2.53934 v -0.61313 h -1.83939 v -1.00922 h 1.68747 v -0.61313 h -1.68747 v -0.91699 h 1.83939 v -0.61313 h -2.53934 z"
       id="path44327"
       style="fill:#767676;fill-opacity:1" /><path
       d="m 111.4,596.36987 h 0.69994 v -1.40532 h 0.61313 0.0217 l 0.80304,1.40532 h 0.84102 l -0.94412,-1.55182 c 0.4395,-0.20618 0.70538,-0.61313 0.70538,-1.11774 0,-0.69452 -0.50462,-1.09604 -1.33479,-1.09604 H 111.4 Z m 1.31307,-3.15789 c 0.4395,0 0.69995,0.22246 0.69995,0.59685 0,0.35269 -0.21704,0.5643 -0.60771,0.5643 h -0.70537 v -1.16115 z"
       id="path44329"
       style="fill:#767676;fill-opacity:1" /></g><g
     aria-label="SELECT"
     transform="matrix(0,0.99268423,-1.0073697,0,239.29979,633.16481)"
     id="text24753-5-7-5-9-7"
     style="font-weight:bold;font-size:5.50791px;font-family:Cantarell;-inkscape-font-specification:'Cantarell Bold';text-align:center;letter-spacing:0px;word-spacing:0px;text-anchor:middle;fill:#767676;fill-opacity:1;stroke-width:0.688488"><path
       d="m 138.27519,547.64028 c 0.93083,0 1.49264,-0.46266 1.49264,-1.17869 0,-1.38248 -2.01039,-0.9033 -2.01039,-1.6744 0,-0.29192 0.26438,-0.45716 0.74357,-0.45716 0.31395,0 0.66095,0.0606 0.93634,0.16524 l 0.2038,-0.56181 c -0.32497,-0.1432 -0.72154,-0.22582 -1.10159,-0.22582 -0.9088,0 -1.52018,0.46817 -1.52018,1.18971 0,1.30537 2.00488,0.87575 2.00488,1.65237 0,0.2809 -0.24785,0.45165 -0.71603,0.45165 -0.347,0 -0.7711,-0.0771 -1.15115,-0.23684 l -0.20379,0.57282 c 0.40758,0.18727 0.88126,0.30293 1.3219,0.30293 z"
       id="path44342"
       style="fill:#767676;fill-opacity:1" /><path
       d="m 140.38471,547.58521 h 2.57771 v -0.6224 h -1.86719 v -1.02447 h 1.71296 v -0.62239 h -1.71296 v -0.93084 h 1.86719 v -0.62239 h -2.57771 z"
       id="path44344"
       style="fill:#767676;fill-opacity:1" /><path
       d="m 143.70047,547.58521 h 2.35739 v -0.62791 h -1.64687 v -3.19458 h -0.71052 z"
       id="path44346"
       style="fill:#767676;fill-opacity:1" /><path
       d="m 146.63618,547.58521 h 2.5777 v -0.6224 h -1.86718 v -1.02447 h 1.71296 v -0.62239 h -1.71296 v -0.93084 h 1.86718 v -0.62239 h -2.5777 z"
       id="path44348"
       style="fill:#767676;fill-opacity:1" /><path
       d="m 151.68142,547.64028 c 0.39107,0 0.82068,-0.0991 1.15116,-0.25887 l -0.15973,-0.51223 c -0.24786,0.0936 -0.5563,0.14871 -0.82068,0.14871 -0.8372,0 -1.36045,-0.55079 -1.36045,-1.41002 0,-0.80967 0.47368,-1.27233 1.27783,-1.27233 0.30294,0 0.64993,0.0606 0.89779,0.15973 l 0.19828,-0.55079 c -0.32496,-0.15422 -0.6995,-0.23684 -1.07955,-0.23684 -1.20623,0 -2.03241,0.79864 -2.03241,1.99937 0,1.15666 0.78212,1.93327 1.92776,1.93327 z"
       id="path44350"
       style="fill:#767676;fill-opacity:1" /><path
       d="m 154.30319,547.58521 h 0.6995 v -3.2001 h 1.23377 v -0.62239 h -3.16154 v 0.62239 h 1.22827 z"
       id="path44352"
       style="fill:#767676;fill-opacity:1" /></g><g
     aria-label="START"
     transform="matrix(0,0.9855958,-1.0146147,0,239.29979,633.16481)"
     id="text24753-5-7-5-9-7-5"
     style="font-weight:bold;font-size:5.46858px;font-family:Cantarell;-inkscape-font-specification:'Cantarell Bold';text-align:center;letter-spacing:0px;word-spacing:0px;text-anchor:middle;fill:#767676;fill-opacity:1;stroke-width:0.683572"><path
       d="m 140.73312,512.04892 c 0.92419,0 1.48199,-0.45936 1.48199,-1.17028 0,-1.37261 -1.99603,-0.89685 -1.99603,-1.66245 0,-0.28983 0.26249,-0.45389 0.73825,-0.45389 0.31171,0 0.65623,0.0602 0.92966,0.16406 l 0.20234,-0.5578 c -0.32265,-0.14218 -0.71638,-0.22421 -1.09372,-0.22421 -0.90231,0 -1.50932,0.46483 -1.50932,1.18122 0,1.29605 1.99056,0.8695 1.99056,1.64057 0,0.2789 -0.24609,0.44842 -0.71092,0.44842 -0.34452,0 -0.7656,-0.0766 -1.14293,-0.23515 l -0.20234,0.56874 c 0.40468,0.18593 0.87498,0.30077 1.31246,0.30077 z"
       id="path44367"
       style="fill:#767676;fill-opacity:1" /><path
       d="m 143.64787,511.99423 h 0.69451 v -3.17724 h 1.22497 v -0.61795 h -3.13897 v 0.61795 h 1.21949 z"
       id="path44369"
       style="fill:#767676;fill-opacity:1" /><path
       d="m 145.61656,511.99423 h 0.7492 l 0.31171,-0.95153 h 1.45464 l 0.30624,0.95153 h 0.78201 l -1.31246,-3.79519 h -0.90779 z m 1.26324,-1.58042 0.52499,-1.60776 0.52498,1.60776 z"
       id="path44371"
       style="fill:#767676;fill-opacity:1" /><path
       d="m 149.6633,511.99423 h 0.70545 v -1.41636 h 0.61795 0.0219 l 0.80935,1.41636 h 0.84763 l -0.95153,-1.56401 c 0.44295,-0.20781 0.71092,-0.61795 0.71092,-1.12653 0,-0.69998 -0.50858,-1.10465 -1.34528,-1.10465 h -1.41636 z m 1.3234,-3.18271 c 0.44295,0 0.70545,0.22421 0.70545,0.60154 0,0.35546 -0.21875,0.56873 -0.61249,0.56873 h -0.71091 v -1.17027 z"
       id="path44373"
       style="fill:#767676;fill-opacity:1" /><path
       d="m 154.01629,511.99423 h 0.69451 v -3.17724 h 1.22496 v -0.61795 h -3.13896 v 0.61795 h 1.21949 z"
       id="path44375"
       style="fill:#767676;fill-opacity:1" /></g></g></svg>
